<?xml version="1.0" encoding="UTF-8" standalone="no"?>
<!-- Created with Inkscape (http://www.inkscape.org/) -->

<svg
   width="210mm"
   height="297mm"
   viewBox="0 0 210 297"
   version="1.1"
   id="svg1"
   xml:space="preserve"
   inkscape:version="1.3.2 (091e20e, 2023-11-25, custom)"
   sodipodi:docname="foto1.svg"
   xmlns:inkscape="http://www.inkscape.org/namespaces/inkscape"
   xmlns:sodipodi="http://sodipodi.sourceforge.net/DTD/sodipodi-0.dtd"
   xmlns="http://www.w3.org/2000/svg"
   xmlns:svg="http://www.w3.org/2000/svg"><sodipodi:namedview
     id="namedview1"
     pagecolor="#ffffff"
     bordercolor="#000000"
     borderopacity="0.25"
     inkscape:showpageshadow="2"
     inkscape:pageopacity="0.0"
     inkscape:pagecheckerboard="0"
     inkscape:deskcolor="#d1d1d1"
     inkscape:document-units="mm"
     showguides="false"
     inkscape:zoom="0.64381944"
     inkscape:cx="408.49963"
     inkscape:cy="597.21713"
     inkscape:window-width="1920"
     inkscape:window-height="991"
     inkscape:window-x="-9"
     inkscape:window-y="-9"
     inkscape:window-maximized="1"
     inkscape:current-layer="layer1" /><defs
     id="defs1" /><g
     inkscape:label="Livello 1"
     inkscape:groupmode="layer"
     id="layer1"><rect
       style="fill:#ffb380;fill-rule:evenodd;stroke:#000000;stroke-width:0.529167;fill-opacity:1"
       id="rect2"
       width="210.82191"
       height="295.47943"
       x="0"
       y="0.82191783" /><path
       style="fill:#000000;stroke-width:0.803418"
       d="m 11.904856,287.74901 c -0.821327,-0.24242 -1.476897,-1.08811 -1.752178,-2.26033 -0.117563,-0.50061 -0.2039447,-3.48246 -0.2045757,-7.06213 l -0.0011,-6.19565 1.0262447,0.0699 1.026245,0.0699 0.05207,6.33783 c 0.03455,4.20377 0.124871,6.44155 0.268279,6.64589 0.118916,0.16945 0.458559,0.30808 0.754765,0.30808 0.296205,0 0.63585,-0.13863 0.754765,-0.30808 0.143407,-0.20434 0.233741,-2.44212 0.268279,-6.64589 l 0.05207,-6.33783 0.928507,-0.0705 0.928508,-0.0705 -3.04e-4,6.54298 c -3.31e-4,7.13378 -0.0637,7.59572 -1.172547,8.54789 -0.584331,0.50177 -1.985979,0.70677 -2.929036,0.42841 z m 36.355296,-0.036 c -0.905453,-0.32156 -1.166234,-0.60093 -1.590487,-1.70384 -0.308851,-0.80291 -0.356244,-1.5922 -0.359972,-5.99501 -0.004,-4.58599 0.03265,-5.16064 0.382505,-6.01527 0.520705,-1.27199 1.249431,-1.74385 2.693189,-1.74385 0.88743,0 1.319881,0.12516 1.826855,0.52874 1.19133,0.94837 1.250627,1.29594 1.250627,7.33076 0,4.91372 -0.03518,5.50103 -0.368577,6.15224 -0.687956,1.34381 -2.353543,1.97205 -3.83414,1.44623 z m 1.915658,-2.32797 c 0.302867,-0.35817 0.331983,-9.94004 0.03222,-10.60242 -0.298084,-0.65865 -1.271138,-0.59386 -1.661484,0.11065 -0.261701,0.47232 -0.299825,1.28153 -0.248851,5.28184 0.04562,3.58069 0.125129,4.81641 0.328477,5.10568 0.312712,0.44484 1.210551,0.50523 1.549641,0.10423 z m 5.40732,2.35493 c -0.326572,-0.11878 -0.854356,-0.53748 -1.172851,-0.93036 l -0.579084,-0.71435 -0.05837,-5.75406 c -0.04982,-4.91102 -0.01262,-5.85864 0.253835,-6.468 0.48458,-1.10816 1.36067,-1.61628 2.788404,-1.61729 1.109948,-7.8e-4 1.289312,0.0695 1.915934,0.75041 0.5814,0.63179 0.726222,0.99304 0.910672,2.27158 0.292728,2.02907 0.186824,2.29386 -0.917459,2.29386 h -0.885773 v -1.10437 c 0,-1.30153 -0.417635,-2.13189 -1.072235,-2.13189 -1.017803,0 -1.077992,0.31621 -1.077992,5.66347 0,5.34468 0.06051,5.66345 1.075113,5.66345 0.841117,0 1.075114,-0.55703 1.075114,-2.55929 0,-1.80086 -0.0085,-1.83278 -0.488687,-1.83278 -0.44887,0 -0.488688,-0.0848 -0.488688,-1.04022 v -1.04024 h 1.488705 1.488706 l -0.08123,3.06289 c -0.09115,3.43686 -0.387817,4.56572 -1.355368,5.15741 -0.726778,0.44445 -2.071213,0.60175 -2.818742,0.32978 z m 7.26779,0.007 c -0.746594,-0.27949 -1.295631,-0.88623 -1.618646,-1.78872 -0.391434,-1.09366 -0.379026,-10.85659 0.01522,-11.9724 0.404407,-1.14458 1.323091,-1.72943 2.718256,-1.73049 2.013757,-10e-4 2.853704,1.03758 3.016727,3.732 l 0.09582,1.58386 h -1.003641 -1.003642 v -1.25488 c 0,-1.38539 -0.318478,-1.98139 -1.058779,-1.98139 -0.244437,0 -0.590008,0.19024 -0.767938,0.42274 -0.279513,0.36524 -0.32351,1.08605 -0.32351,5.30021 0,5.2801 0.06213,5.60399 1.075113,5.60399 0.841117,0 1.075114,-0.55705 1.075114,-2.5593 0,-1.80086 -0.0085,-1.83278 -0.488688,-1.83278 -0.448869,0 -0.488688,-0.0848 -0.488688,-1.04023 v -1.04024 h 1.466064 1.466065 l -0.0043,2.94732 c -0.0062,4.30544 -0.530272,5.43886 -2.634622,5.69873 -0.537556,0.0664 -1.228729,0.0266 -1.535936,-0.0885 z m 97.9052,-0.10953 c -0.43006,-0.18706 -0.93365,-0.5604 -1.11912,-0.82962 -0.40471,-0.58749 -0.73531,-1.90553 -0.73682,-2.93749 -7.3e-4,-0.7476 0.004,-0.75128 0.97629,-0.75128 h 0.97739 v 0.90814 c 0,1.03462 0.39463,1.63465 1.0751,1.63465 0.62986,0 1.07511,-0.58755 1.07511,-1.41869 0,-0.98128 -0.26777,-1.4874 -1.75662,-3.32013 -1.69387,-2.08512 -2.15288,-3.14521 -2.15288,-4.97225 0,-2.54202 0.87872,-3.69686 2.81189,-3.69546 1.96747,10e-4 3.05237,1.18982 3.05237,3.34355 0,0.81308 -0.004,0.81649 -0.87591,0.81649 -0.79781,0 -0.886,-0.0567 -0.98903,-0.63569 -0.17909,-1.00661 -0.38683,-1.3241 -0.91573,-1.39951 -0.68097,-0.0971 -1.12884,0.51306 -1.12884,1.53795 0,1.0386 0.26252,1.52088 1.98885,3.65382 1.55777,1.92469 1.92094,2.80191 1.91993,4.63772 -7.4e-4,1.46345 -0.41956,2.54831 -1.22435,3.17191 -0.6868,0.53214 -2.06938,0.65097 -2.97763,0.25589 z M 17.37507,279.98872 v -7.75448 l 1.308604,0.0684 1.308602,0.0684 0.988231,4.36475 0.98823,4.36475 0.05309,-4.42254 0.05309,-4.42255 h 0.875417 0.875418 v 7.756 7.756 l -1.018115,-0.0699 -1.018116,-0.0699 -1.18098,-5.20114 -1.180981,-5.20114 -0.05254,5.25893 -0.05253,5.25894 H 18.348778 17.37507 Z m 8.33441,1.5709 c 0.459745,-3.40096 0.935642,-6.88572 1.057549,-7.74391 l 0.221649,-1.56035 h 1.444678 c 1.337818,0 1.452181,0.0384 1.546102,0.52012 0.05578,0.28606 0.497406,3.48476 0.981382,7.10822 0.483977,3.62346 0.930802,6.87418 0.992946,7.2238 0.1124,0.63243 0.107465,0.63571 -0.958465,0.63571 h -1.071452 l -0.136123,-1.38698 -0.136124,-1.38697 h -1.25753 c -1.377792,0 -1.341665,-0.0394 -1.53586,1.67593 l -0.124307,1.09802 h -0.930172 -0.930172 z m 3.577418,0.92466 c -0.04007,-1.33295 -0.911134,-7.03508 -1.015242,-6.6459 -0.06802,0.25427 -0.263745,1.65857 -0.434938,3.12067 -0.171195,1.4621 -0.35901,2.94443 -0.417369,3.29406 -0.104578,0.62652 -0.09177,0.6357 0.886801,0.6357 0.819942,0 0.990789,-0.0705 0.980748,-0.40453 z m 6.658316,-2.51122 v -7.77013 l 2.003621,0.10252 c 2.290353,0.11717 2.914937,0.39097 3.516031,1.54112 0.367476,0.70314 0.428726,1.16134 0.435019,3.25436 0.0061,2.03113 -0.05766,2.56614 -0.383627,3.21893 -0.513373,1.02809 -1.51947,1.64427 -2.684734,1.64427 h -0.931558 v 2.88952 2.88953 H 36.92259 35.945214 Z m 3.633734,-0.56881 c 0.195024,-0.19139 0.275771,-0.80829 0.275771,-2.10683 0,-2.3376 -0.169732,-2.73044 -1.179729,-2.73044 h -0.775024 v 2.68861 2.6886 l 0.701606,-0.13464 c 0.385883,-0.074 0.825703,-0.25643 0.977376,-0.4053 z m 3.403373,0.59503 v -7.74392 h 0.977377 0.977376 v 7.74392 7.74393 h -0.977376 -0.977377 z m 25.411776,0 v -7.74392 h 0.977376 0.977376 v 7.74392 7.74393 h -0.977376 -0.977376 z m 3.020829,7.2238 c 0.05288,-0.28605 0.495604,-3.53676 0.983827,-7.2238 0.488223,-3.68703 0.932108,-6.93774 0.986413,-7.2238 0.0915,-0.48202 0.204721,-0.52012 1.545543,-0.52012 1.42232,0 1.448603,0.0111 1.552822,0.6357 0.05831,0.34963 0.506115,3.65235 0.995128,7.33938 0.489012,3.68703 0.923861,6.88573 0.966331,7.10824 0.06601,0.3458 -0.07294,0.40453 -0.957407,0.40453 h -1.034624 l -0.168796,-1.32919 -0.168795,-1.32918 -1.299282,-0.0678 -1.299281,-0.0678 -0.137107,1.397 -0.137107,1.39699 h -0.961906 c -0.895706,0 -0.955291,-0.0358 -0.865759,-0.52011 z m 4.332186,-4.96997 c -0.05836,-0.34963 -0.246175,-1.83196 -0.417368,-3.29406 -0.171195,-1.4621 -0.366918,-2.8664 -0.43494,-3.12067 -0.07214,-0.2697 -0.306887,0.93427 -0.56338,2.88951 -0.596195,4.5448 -0.644989,4.16092 0.528886,4.16092 0.978578,0 0.991376,-0.009 0.886802,-0.6357 z m 6.571932,-2.1716 0.05153,-7.71057 2.150226,0.006 c 2.480374,0.007 3.176569,0.3052 3.687671,1.5789 0.267558,0.66678 0.319362,1.6749 0.318284,6.19376 -0.0012,4.86161 -0.03718,5.46174 -0.362824,6.04579 -0.697097,1.25026 -1.110546,1.42426 -3.596921,1.51375 l -2.299495,0.0827 z m 4.003044,4.97448 c 0.316661,-0.51212 0.359678,-9.35506 0.04885,-10.04188 -0.153676,-0.33956 -0.412302,-0.44713 -1.075115,-0.44713 h -0.87276 v 5.57832 5.57832 l 0.823911,-0.13069 c 0.455405,-0.0722 0.936265,-0.31238 1.075114,-0.53694 z m 3.620514,-4.99892 0.05151,-7.68613 1.026245,-0.0699 1.026245,-0.0699 v 7.756 7.756 h -1.077746 -1.07775 z m 6.404449,-0.0642 v -7.75027 l 2.785505,0.0642 2.785514,0.0641 v 1.04022 1.04023 l -1.81538,0.0665 -1.815368,0.0665 0.0561,2.12946 0.0561,2.12945 1.417181,0.0679 1.417197,0.0679 v 1.03011 1.03009 h -1.473137 -1.473141 l 0.056,2.25383 0.0559,2.25384 1.808138,0.0665 1.80814,0.0665 v 1.03156 1.03156 h -2.834384 -2.834377 z m 8.328159,7.12393 c -0.18872,-1.0889 -1.87749,-14.14399 -1.87749,-14.51399 0,-0.26215 0.23625,-0.34751 0.96184,-0.34751 1.13629,0 0.93221,-0.71848 1.77287,6.24136 0.33017,2.73349 0.65403,5.23005 0.71969,5.54789 0.0947,0.4586 1.59425,-10.1738 1.62192,-11.5003 0.006,-0.27876 1.57802,-0.43338 1.7952,-0.17654 0.0523,0.0618 -0.35274,3.52057 -0.90002,7.68612 l -0.99508,7.57373 -1.49357,0.0672 -1.49356,0.0671 z m 6.13699,-7.11758 v -7.74392 h 2.73665 2.73666 v 1.15581 1.15581 h -1.75928 -1.75928 v 2.19603 2.19604 h 1.36833 1.36832 v 1.04023 1.04022 h -1.36832 -1.36833 v 2.31162 2.31162 h 1.75928 1.75928 v 1.04023 1.04022 h -2.73666 -2.73665 z m 6.84163,0 v -7.74392 h 1.17769 c 1.39569,0 1.17813,-0.4448 2.36633,4.83813 l 0.85417,3.79781 0.0977,-4.26018 0.0977,-4.26017 h 0.87964 0.87964 l 0.0515,7.68612 0.0515,7.68612 h -1.06388 -1.06387 l -0.29569,-1.2136 c -0.16264,-0.66747 -0.71865,-3.08493 -1.2356,-5.37213 l -0.93989,-4.15855 -0.0525,5.37215 -0.0525,5.37213 h -0.87604 -0.87604 z m 9.38281,1.16788 v -6.57603 l -1.02625,-0.0699 -1.02624,-0.0699 v -1.04023 -1.04022 h 3.1276 3.12761 v 1.04022 1.04023 l -1.02625,0.0699 -1.02624,0.0699 v 6.57603 6.57603 h -1.07512 -1.07511 z m 5.1286,-1.11009 0.0515,-7.68612 1.02624,-0.0699 1.02624,-0.0699 v 7.756 7.756 h -1.07774 -1.07775 z m 7.96823,1.09802 V 274.567 h -1.0751 -1.07512 v -1.15582 -1.15581 h 3.1276 3.1276 v 1.15581 1.15582 h -1.0751 -1.07512 v 6.5881 6.58811 h -0.97738 -0.97738 z m 5.08236,-1.15581 v -7.74392 h 0.97738 0.97737 v 7.74392 7.74391 h -0.97737 -0.97738 z m 5.95296,7.2238 c 0.0529,-0.28606 0.49561,-3.53678 0.98382,-7.2238 0.48823,-3.68703 0.93211,-6.93774 0.98643,-7.2238 0.0915,-0.48202 0.20471,-0.52012 1.54554,-0.52012 1.42232,0 1.4486,0.0111 1.55282,0.6357 0.0583,0.34963 0.50611,3.65235 0.99512,7.33938 0.48902,3.68702 0.92386,6.88573 0.96634,7.10822 0.066,0.34582 -0.073,0.40453 -0.95742,0.40453 h -1.03461 l -0.1688,-1.32917 -0.16879,-1.32918 -1.29928,-0.0678 -1.29928,-0.0678 -0.13712,1.397 -0.13711,1.39699 h -0.9619 c -0.89571,0 -0.95528,-0.0359 -0.86576,-0.52013 z m 4.33219,-4.96997 c -0.0583,-0.34964 -0.24617,-1.83196 -0.41737,-3.29406 -0.1712,-1.4621 -0.36692,-2.8664 -0.43494,-3.12067 -0.0722,-0.2697 -0.30689,0.93427 -0.56338,2.88951 -0.5962,4.54479 -0.64498,4.16091 0.52888,4.16091 0.97858,0 0.99138,-0.009 0.88681,-0.63569 z m 10.67694,-2.19604 0.0515,-7.68612 h 2.06139 c 2.30062,0 2.82907,0.23624 3.51827,1.5729 0.51688,1.00249 0.55249,5.09919 0.0551,6.33877 -0.39233,0.97769 -1.52689,1.66898 -2.7515,1.67646 l -0.83077,0.005 v 2.88954 2.88952 h -1.07772 -1.07775 z m 3.81376,-0.79017 c 0.2984,-0.48261 0.32984,-3.61816 0.0426,-4.25279 -0.14783,-0.32665 -0.4112,-0.44713 -0.97738,-0.44713 h -0.77503 v 2.6886 2.6886 l 0.73239,-0.14055 c 0.40281,-0.0772 0.84264,-0.31883 0.97738,-0.53673 z m 3.22335,0.79017 0.0515,-7.68612 2.78552,-0.0641 2.78553,-0.0641 v 1.16217 1.16215 h -1.75929 -1.75927 v 2.19603 2.19604 h 1.36833 1.36832 v 1.04023 1.04022 h -1.36832 -1.36833 v 2.31162 2.31162 h 1.75927 1.75929 v 1.04023 1.04023 h -2.83703 -2.83703 z m 8.3592,1.11009 v -6.57603 l -1.02625,-0.0699 -1.02624,-0.0699 v -1.04023 -1.04022 h 3.1276 3.1276 v 1.04022 1.04023 l -1.02624,0.0699 -1.02624,0.0699 v 6.57603 6.57603 h -1.07512 -1.07511 z m 6.64615,0 v -6.57603 l -1.02625,-0.0699 -1.02624,-0.0699 v -1.04023 -1.04022 h 3.1276 3.12761 v 1.04022 1.04023 l -1.02625,0.0699 -1.02624,0.0699 v 6.57603 6.57603 h -1.07512 -1.07511 z m 4.69141,6.26176 c 0,-0.17286 0.43982,-3.54765 0.97738,-7.49951 0.53755,-3.95189 0.97738,-7.29522 0.97738,-7.42965 0,-0.366 2.92099,-0.32306 3.03034,0.0446 0.0811,0.27272 2.05201,14.72566 2.05201,15.0478 0,0.083 -0.43389,0.15109 -0.96421,0.15109 -1.05405,0 -1.05039,0.005 -1.28666,-1.7915 l -0.12921,-0.98245 h -1.23786 c -1.21993,0 -1.23953,0.01 -1.35115,0.69349 -0.0623,0.38142 -0.16424,1.00555 -0.22654,1.38697 -0.10552,0.64575 -0.17274,0.69349 -0.97738,0.69349 -0.5981,0 -0.8641,-0.0967 -0.8641,-0.31428 z m 4.30523,-4.82907 c 0.008,-0.49861 -0.85389,-7.33696 -0.91578,-7.26377 -0.0323,0.0383 -0.23578,1.51924 -0.45204,3.29104 -0.21626,1.7718 -0.43954,3.4555 -0.49617,3.74156 -0.0963,0.48648 -0.0395,0.52012 0.87811,0.52012 0.65201,0 0.98271,-0.097 0.98588,-0.28895 z m 3.70926,3.98754 v -1.15581 h 0.97737 0.97736 v 1.15581 1.1558 h -0.97736 -0.97737 z m 0.12869,-5.25893 c -0.0699,-1.62102 -0.12747,-4.32562 -0.1279,-6.01021 l -7.5e-4,-3.06289 h 0.97739 0.97736 v 4.93771 c 0,2.71574 -0.0559,5.42034 -0.1243,6.0102 -0.12248,1.05675 -0.13497,1.07251 -0.84947,1.07251 h -0.72516 z m -98.53301,-11.63557 c -3.067454,-0.88277 -3.128194,-3.44485 -0.1591,-6.71112 1.27307,-1.4005 1.36495,-1.57253 1.80211,-3.37405 l 0.46064,-1.8983 -0.70756,-1.80028 c -1.05997,-2.69692 -1.72906,-4.79571 -3.57248,-11.20599 -1.812601,-6.30319 -2.610835,-8.71851 -3.791738,-11.47309 -1.261081,-2.94157 -1.206125,-2.91057 -2.038726,-1.14994 -0.39301,0.83107 -1.377785,3.26689 -2.188389,5.41293 -0.810603,2.14604 -1.882311,4.7262 -2.381572,5.73367 -1.056207,2.13134 -2.820065,4.45026 -4.174424,5.48807 -0.774637,0.59359 -0.971336,0.88212 -1.062614,1.55869 -0.385207,2.85524 -0.793083,4.40789 -1.718443,6.54151 l -1.010041,2.32887 -2.101461,0.78826 c -1.813553,0.68027 -2.142117,0.88124 -2.398225,1.46691 -0.47447,1.08504 -1.446928,2.27432 -2.620604,3.20489 l -1.089668,0.86398 -1.759276,-0.27553 c -4.733819,-0.74138 -7.525795,-2.17131 -7.525795,-3.85438 0,-1.62081 1.337319,-3.36556 4.294539,-5.60291 2.11684,-1.60156 3.147443,-2.57131 3.86655,-3.63824 0.714227,-1.05969 0.779269,-1.621 0.315285,-2.72088 -0.305089,-0.7232 -0.299547,-0.8084 0.118844,-1.82701 0.791872,-1.92786 6.982914,-12.34914 8.599751,-14.47582 2.846939,-3.74468 3.52609,-5.31564 4.297181,-9.93995 0.542575,-3.25389 0.900337,-4.77106 1.503182,-6.3746 l 0.48461,-1.28904 -0.574713,-1.71607 c -1.274832,-3.80658 -2.277492,-8.07301 -3.744317,-15.9325 -0.43897,-2.35208 -1.113816,-5.64062 -1.499659,-7.30789 l -0.701532,-3.0314 -0.844119,0.1125 c -0.464266,0.0618 -1.157489,0.043 -1.540495,-0.0419 l -0.696375,-0.15449 0.0017,-1.43428 c 8.86e-4,-0.78887 0.132115,-2.57854 0.291603,-3.97707 0.159489,-1.39853 0.378853,-5.50744 0.487475,-9.13089 0.229914,-7.66947 0.426504,-10.25014 1.087861,-14.28049 0.722168,-4.40095 1.063565,-8.31632 1.063565,-12.1977 0,-3.31526 -0.256984,-8.36827 -0.551862,-10.85111 l -0.136878,-1.1525 -1.304856,1.97613 c -1.796178,2.72021 -3.959821,5.09643 -5.347259,5.87261 -1.323455,0.7404 -3.268378,1.19461 -4.081673,0.95321 -1.983826,-0.58881 -3.336964,-5.30318 -2.850606,-9.93161 0.375291,-3.57144 1.372874,-6.52666 4.146794,-12.28435 1.943987,-4.03505 2.540296,-5.41078 4.069976,-9.38977 1.347782,-3.50585 2.371237,-5.34981 3.698894,-6.66432 0.771761,-0.76412 0.989144,-1.12703 0.989144,-1.65131 0,-0.84582 0.618197,-1.59553 1.319458,-1.60015 0.295656,-0.002 0.637389,-0.0799 0.759407,-0.17337 0.122019,-0.0934 0.539647,-2.198276 0.928065,-4.67749 0.388419,-2.479204 1.013571,-6.459175 1.389229,-8.844366 0.768303,-4.878251 1.175878,-8.548563 1.00706,-9.068811 -0.172811,-0.532551 -0.49465,-0.415694 -0.631544,0.229307 -0.06746,0.317847 -0.224467,0.577904 -0.348907,0.577904 -0.124441,0 -0.840606,-0.426335 -1.591479,-0.947412 C 77.178497,74.877658 69.303263,71.620099 61.345092,69.89237 59.887145,69.575847 58.101319,69.245034 57.376589,69.157227 L 56.058899,68.99758 54.974167,67.293186 C 51.661505,62.088139 41.632915,53.721421 35.749739,51.254501 c -0.698824,-0.293029 -1.293327,-0.550253 -1.32112,-0.57161 -0.0278,-0.02135 0.218433,-0.809447 0.547168,-1.751312 1.284787,-3.68108 1.838426,-7.429386 1.713653,-11.601963 -0.09391,-3.140446 -0.356653,-4.134818 -1.637953,-6.198961 -0.507237,-0.817144 -0.630422,-1.165129 -0.442233,-1.249271 0.143466,-0.06414 4.571076,-1.82157 9.839132,-3.905389 5.268056,-2.08382 12.497642,-4.988459 16.065746,-6.454755 l 6.487461,-2.66599 1.429284,0.224931 c 0.786107,0.123711 2.968652,0.841947 4.8501,1.596081 1.881449,0.754132 4.212491,1.589978 5.180093,1.857436 0.967603,0.267459 2.682898,0.857338 3.811766,1.310846 2.838157,1.140188 4.284424,1.166193 6.093508,0.109573 1.238016,-0.723083 1.338266,-0.745085 1.970801,-0.432546 0.754517,0.372812 1.305016,1.115859 1.895651,2.558694 0.223298,0.545481 0.623899,1.109192 0.890225,1.252693 0.266327,0.143499 1.958333,0.683794 3.760017,1.200654 6.388662,1.832765 8.517502,2.551031 9.619432,3.24558 1.20333,0.758458 2.68829,2.428918 4.34309,4.885617 5.00999,7.437813 9.83955,13.944614 13.69359,18.449201 l 2.68261,3.13542 -0.76903,2.721157 c -1.37311,4.858769 -2.15935,9.203467 -2.54843,14.082402 -0.11307,1.417914 -0.22434,2.600225 -0.24729,2.627354 -0.023,0.02713 -0.52257,-0.09818 -1.11029,-0.278465 -2.33905,-0.717508 -5.70094,-0.273211 -10.65941,1.408706 -3.95339,1.340995 -5.11438,1.884676 -5.94387,2.783471 l -0.70229,0.760951 -0.029,2.50289 c -0.0159,1.376589 -0.11746,2.769591 -0.22567,3.095561 -0.10821,0.325971 -0.6896,1.314187 -1.292,2.196038 -1.32917,1.945784 -1.64119,2.957936 -1.31219,4.256525 0.46085,1.818998 3.01735,4.137226 6.13069,5.559293 1.54395,0.705218 6.34727,2.190257 9.33626,2.886467 0.91385,0.21286 1.74484,0.48095 1.84664,0.59574 0.10181,0.1148 0.36568,0.93041 0.58642,1.81247 0.34431,1.37587 0.53075,1.72909 1.31207,2.48572 0.5009,0.48507 2.20058,2.20468 3.77707,3.82133 1.57649,1.61666 3.39776,3.35904 4.0473,3.87196 1.05551,0.83354 1.30834,0.93312 2.38039,0.93766 1.5141,0.006 2.43826,0.49482 3.87358,2.0472 0.85119,0.9206 1.37174,1.2814 2.23034,1.54587 1.50741,0.4643 2.16172,0.85542 3.31129,1.9793 1.13418,1.10887 1.22915,1.15792 4.25211,2.19662 2.82838,0.97185 3.96151,1.55479 5.94109,3.05648 1.59795,1.21216 6.37138,3.82409 9.61143,5.25917 2.65165,1.17449 3.68229,1.21241 9.16487,0.33727 5.10617,-0.81507 8.30606,-0.90073 8.41531,-0.22527 0.0396,0.24547 -0.33312,0.61453 -1.12508,1.11368 -1.24665,0.78578 -1.32972,1.02487 -0.44655,1.28553 0.65522,0.19338 1.22357,0.76571 1.22357,1.23216 0,0.47883 -1.76008,0.23749 -3.81177,-0.52266 -0.8601,-0.31866 -1.60778,-0.57996 -1.66154,-0.58066 -0.0538,-7e-4 0.43292,0.39689 1.08151,0.88354 1.06591,0.79979 2.63252,2.62585 2.63252,3.06851 0,0.49279 -0.54261,0.41901 -1.5824,-0.21514 -0.63484,-0.3872 -1.15426,-0.6598 -1.15426,-0.60581 0,0.054 0.3042,0.49635 0.676,0.98301 0.73241,0.95871 1.21212,2.1216 0.87518,2.1216 -0.30119,0 -1.66307,-0.85955 -3.39146,-2.1405 l -1.55363,-1.15144 -2.63527,0.26856 c -1.4494,0.14773 -2.71141,0.32424 -2.80445,0.39224 -0.0931,0.068 -0.56582,1.12737 -1.0506,2.35414 -0.48476,1.22677 -1.10385,2.67939 -1.37574,3.22803 l -0.49435,0.99755 -0.6224,-0.43673 c -1.61022,-1.12991 -9.39464,-3.99848 -23.0043,-8.47712 -5.82502,-1.91689 -12.14094,-4.29251 -13.39004,-5.03643 -1.13663,-0.67692 -2.90905,-2.13395 -4.33029,-3.55976 l -1.24076,-1.24471 0.002,3.87787 c 0.005,6.55572 0.50269,13.77041 1.66242,24.10452 0.89074,7.93722 0.99189,9.17395 1.56492,19.13492 0.27265,4.73938 0.57826,9.36841 0.67914,10.2867 0.10086,0.91829 0.18613,2.05554 0.18944,2.52719 l 0.006,0.85757 -1.31947,0.48451 c -2.20902,0.81115 -3.97567,1.17668 -4.92757,1.01952 -0.48829,-0.0806 -1.74328,-0.6045 -2.78885,-1.16419 -1.80634,-0.96695 -3.74918,-1.70823 -4.47709,-1.70823 -0.24928,0 -0.63093,0.89438 -1.5043,3.52521 -1.36698,4.11771 -1.84008,5.92967 -3.06301,11.73146 -1.19378,5.66346 -1.52776,6.97711 -2.64919,10.42022 -0.52084,1.59911 -1.09314,3.5956 -1.27179,4.43663 l -0.32481,1.52917 1.74711,4.00078 c 0.96091,2.20042 2.95066,6.57796 4.42165,9.72786 4.83253,10.34803 6.68401,14.99521 9.12172,22.89528 l 1.41371,4.58154 -0.36553,0.80623 c -0.90495,1.99599 -1.96155,3.24649 -3.52637,4.17351 -1.47904,0.8762 -1.57662,0.98633 -2.89888,3.27172 -0.83284,1.43946 -1.67,2.60333 -2.13917,2.97401 -1.67321,1.32193 -4.81823,2.13597 -6.44429,1.66801 z M 87.580052,99.015048 c 0.433641,-0.563473 1.492924,-1.525685 2.353961,-2.138242 l 1.565523,-1.113744 -0.09754,-2.658361 c -0.106974,-2.915871 -0.344301,-3.932915 -1.392441,-5.967204 -0.372472,-0.722914 -0.812464,-1.945588 -0.977761,-2.71705 -0.297652,-1.389189 -0.295154,-1.419158 0.260135,-3.120683 0.308371,-0.944913 0.529879,-1.779717 0.492239,-1.855115 -0.08438,-0.16904 -3.02035,-1.212176 -3.095272,-1.099736 -0.02969,0.04455 -0.204202,1.381302 -0.387804,2.970539 -0.398482,3.449206 -2.248183,17.291132 -2.382958,17.832457 -0.107621,0.432254 0.861048,0.827062 2.129013,0.867761 0.643371,0.0206 0.851509,-0.115219 1.532895,-1.000622 z M 29.592701,215.82228 c -1.382062,-0.87599 -2.033122,-1.61047 -2.563172,-2.89163 -0.428072,-1.03469 -0.499788,-1.45757 -0.406004,-2.39398 0.408222,-4.07606 5.298128,-9.58706 13.328931,-15.02191 1.182625,-0.80034 2.228376,-1.50808 2.323889,-1.57277 0.25412,-0.17208 -0.01652,1.30862 -0.793038,4.33896 -3.454101,13.47939 -7.915428,20.06085 -11.890606,17.54133 z m -17.801454,-60.7409 c -2.8193444,-1.51433 -3.7755998,-4.57357 -2.4356754,-7.79223 1.0949014,-2.63009 4.2937144,-6.22886 8.4964414,-9.55876 2.286189,-1.81139 6.540446,-4.73508 6.668927,-4.58314 0.04846,0.0573 -0.26114,1.51657 -0.687993,3.2428 -3.481888,14.08111 -7.888964,20.92185 -12.0417,18.69133 z M 22.750638,94.507546 c -0.853259,-0.242629 -1.413841,-0.642907 -2.388915,-1.705794 -1.129311,-1.231001 -1.453245,-2.015219 -1.464881,-3.546329 -0.02554,-3.361011 3.194548,-7.765312 9.131627,-12.489863 1.540735,-1.226073 6.596974,-4.716213 6.683772,-4.613569 0.115191,0.136218 -1.271692,5.670184 -2.122684,8.469976 -1.648172,5.422549 -3.887596,10.240324 -5.620567,12.091787 -1.386573,1.481381 -2.961641,2.151154 -4.218352,1.793792 z M 149.42193,75.840992 c -0.82269,-0.271787 -2.45558,-1.71714 -2.96167,-2.621497 -0.67297,-1.202567 -0.82996,-2.992854 -0.39488,-4.502873 0.69188,-2.401246 3.14994,-5.58294 6.7843,-8.78151 2.60906,-2.296208 8.48733,-6.558249 8.69938,-6.307483 0.0491,0.05798 -0.25802,1.55243 -0.68236,3.320979 -2.31868,9.663837 -5.63603,16.838693 -8.54022,18.470972 -0.78004,0.438419 -2.22049,0.647408 -2.90455,0.421412 z M 18.254708,28.857611 C 17.429997,28.623095 16.872874,28.237034 15.975293,27.278082 11.875266,22.897718 15.968493,16.219177 27.707006,8.1361342 29.059554,7.2047865 30.199149,6.4817589 30.23944,6.5294051 30.27973,6.5770511 29.989226,7.9499381 29.593874,9.5802647 26.387646,22.801919 22.17062,29.971148 18.254708,28.857611 Z m 118.457962,-0.0015 c -1.37554,-0.394597 -2.88627,-1.805738 -3.54587,-3.312126 -0.49315,-1.126274 -0.41117,-3.071451 0.1931,-4.581994 1.13781,-2.844211 4.14071,-6.261303 8.72833,-9.932262 1.47218,-1.1780163 6.49701,-4.6329867 6.58564,-4.5281589 0.10026,0.1184688 -1.03923,4.7187129 -1.88464,7.6088969 -3.0298,10.358037 -6.69166,15.716664 -10.07656,14.745644 z m 43.7536,-0.01414 c -1.66173,-0.443505 -3.36879,-2.359974 -3.8038,-4.270437 -0.74726,-3.281733 2.33816,-7.94948 8.62578,-13.049421 1.80201,-1.461614 5.06202,-3.8102346 6.41904,-4.6244603 0.77635,-0.4658155 0.83879,-0.4733512 0.73901,-0.089181 -0.0599,0.2307916 -0.41214,1.6678941 -0.7827,3.1935613 -3.11366,12.819962 -7.30845,19.877855 -11.19733,18.839943 z"
       id="path1" /></g></svg>
