<svg xmlns="http://www.w3.org/2000/svg" xml:space="preserve" width="210mm" height="297mm" viewBox="0 0 210 297"><path d="M0 .822h210.822v295.479H0z" style="fill:#eaff2a;fill-rule:evenodd;stroke:#000;stroke-width:.529167;fill-opacity:1"/><path d="M84.218 279.915c-.253-.41-.295-1.514-.295-7.716 0-6.739.024-7.263.346-7.594.293-.302.825-.356 3.454-.353 1.71.002 3.207.075 3.33.163.452.328.495 1.278.078 1.752-.356.405-.616.45-2.646.45-1.877 0-2.27.056-2.365.34-.063.187-.115 1.11-.115 2.05 0 1.637.02 1.719.485 1.92.267.115 1.164.21 1.992.21 1.465 0 1.512.016 1.702.586.13.386.133.743.012 1.046-.165.411-.378.471-2.02.57-1.27.075-1.885.2-2 .406-.09.164-.167 1.567-.168 3.117-.002 2.455-.048 2.865-.35 3.175-.481.496-1.091.445-1.44-.122M95.78 280c-.279-.35-.313-1.213-.313-7.831 0-6.065.048-7.483.261-7.684.18-.17 1.285-.229 3.549-.188l3.286.059v1.937l-2.27.113c-1.25.062-2.378.189-2.508.282-.16.114-.236.785-.236 2.081 0 1.293.076 1.968.236 2.086.13.096 1.003.223 1.94.282l1.703.108v1.937l-1.514.054c-2.546.091-2.387-.078-2.325 2.481l.054 2.2 2.42.108c1.87.084 2.461.181 2.6.431.235.425.23 1.006-.012 1.521-.181.386-.425.416-3.377.416-2.841 0-3.214-.042-3.494-.393m12.063.232c-.63-.487-.668-1.083-.535-8.298.076-4.16.21-7.26.318-7.417.26-.373 6.4-.383 6.727-.01.251.285.3 1.218.082 1.601-.087.155-.994.275-2.441.323-1.266.043-2.373.158-2.46.257-.206.234-.206 3.928 0 4.162.086.099.96.213 1.94.254 1.701.071 1.789.098 1.898.592.062.284.06.76-.005 1.055-.116.523-.168.539-1.771.542-.909.002-1.78.094-1.935.206-.359.258-.518 3.4-.206 4.063.194.413.4.455 2.521.51 2.208.058 2.32.083 2.53.566.126.287.163.75.087 1.076l-.135.572-3.203.053c-1.762.03-3.298-.019-3.412-.108zm11.633-.197c-.209-.288-.256-1.723-.24-7.392.01-3.869.076-7.29.145-7.604.145-.66.832-.948 1.416-.593.372.227.388.451.443 6.552.046 4.962.114 6.393.318 6.672.206.282.61.356 1.952.356 2.03 0 2.425.187 2.425 1.148 0 1.155-.175 1.22-3.327 1.22-2.448 0-2.91-.053-3.132-.359m-18.336-31.447c-2.118-1.232-2.794-3.333-1.838-5.71.267-.662.771-1.445 1.157-1.795.377-.342.685-.739.685-.881s-.213-.617-.473-1.053c-1.41-2.364.339-5.77 3.11-6.056 1.866-.192 3.32.68 4.01 2.408.718 1.8.315 3.534-1.089 4.68-.455.372-.827.745-.827.829 0 .268 2.044 1.764 2.23 1.632.1-.07.288-.42.418-.777.251-.69.822-.857 1.506-.441.55.335.587.782.162 1.947l-.4 1.093.378.582c1.097 1.687 1.349 3.319.574 3.72-.654.34-1.4-.066-1.55-.843-.067-.35-.275-.793-.461-.985-.316-.326-.405-.29-1.32.539-1.994 1.806-4.356 2.224-6.272 1.11m3.863-2.113c.324-.159.844-.529 1.156-.823.744-.7.591-.982-1.328-2.46-1.646-1.266-1.957-1.3-3.07-.336-.67.58-.867 1.149-.773 2.236.138 1.594 2.165 2.292 4.015 1.383m.394-8.055c.556-.391.667-.594.667-1.215 0-1.152-.682-1.803-1.892-1.803-.77 0-1.056.106-1.428.529-.641.73-.62 1.738.056 2.546.44.526.63.606 1.225.517.387-.057 1.005-.316 1.372-.574m-48.105-20.65c-.841-.246-1.447-.732-2.073-1.666l-.533-.795-.062-4.753c-.034-2.614-.007-5.164.059-5.667.241-1.836 1.75-3.056 3.787-3.063 1.672-.005 2.48.328 3.435 1.414l.84.957-.055 5.647c-.055 5.52-.066 5.662-.498 6.35-.243.388-.779.9-1.19 1.14-.835.484-2.766.711-3.71.436m2.796-2.5.559-.33v-10.096l-.474-.353c-.567-.422-2.711-.349-3.197.11-.262.247-.303.95-.303 5.177 0 5.197.013 5.277.946 5.667.573.24 1.926.144 2.47-.176m6.722 2.357c-.258-.294-.297-1.285-.297-7.594 0-8.542-.055-8.272 1.673-8.169 1.297.078 1.113-.262 3.273 6.049 2.053 5.998 2.112 5.984 2.265-.546.082-3.46.185-4.986.355-5.218.285-.392 1.16-.433 1.48-.07.168.19.227 2.207.227 7.737v7.48l-.42.335c-.596.474-2.274.448-2.649-.042-.158-.207-.95-2.33-1.758-4.717s-1.534-4.46-1.614-4.606-.28-.206-.447-.133c-.265.115-.303.715-.303 4.76 0 4.354-.022 4.64-.366 4.85-.525.32-1.075.275-1.419-.116m13.055-.14c-.441-.717-.441-14.47 0-15.188.282-.457.418-.479 3.036-.479 3.19 0 3.882.257 4.76 1.764l.52.895.055 5.29c.054 5.153.044 5.316-.378 6.26-.317.706-.662 1.099-1.278 1.452-.762.437-1.118.485-3.632.485-2.667 0-2.801-.021-3.083-.479m6.041-2.238c.27-.307.3-.973.25-5.4-.068-6.028.097-5.66-2.533-5.66-1.413 0-1.763.064-1.856.34-.063.187-.115 2.638-.115 5.446 0 3.684.064 5.178.227 5.364.368.419 3.644.345 4.027-.09m18.649 2.4c-.352-.482-.201-14.977.16-15.473.218-.298.666-.356 2.752-.356 2.208 0 2.587.056 3.333.485.493.283 1.079.872 1.412 1.418.548.898.57 1.023.566 3.23-.005 2.52-.168 3.093-1.209 4.218-.321.348-.584.724-.584.836s.383 1.167.851 2.345c.469 1.178.852 2.309.852 2.512 0 .565-.39.886-1.073.886-.603 0-.646-.064-1.807-2.744l-1.189-2.745-.928-.067c-.614-.044-.98.029-1.085.215-.086.156-.159 1.369-.16 2.697-.003 2.164-.04 2.437-.37 2.637-.524.32-1.252.274-1.521-.094m5.699-8.275c.41-.378.447-.57.447-2.387 0-2.585-.188-2.799-2.461-2.799-1.255 0-1.59.068-1.682.341-.063.187-.115 1.345-.115 2.572 0 2.649.014 2.668 2.013 2.678 1.054.005 1.45-.084 1.798-.405m19.022 8.198c-.279-.35-.313-1.206-.313-7.734 0-6.387.038-7.385.297-7.68.244-.276.8-.337 3.075-.334 2.534.003 2.844.046 3.534.49.462.298.941.863 1.23 1.45.47.954.474 1.01.474 6.237 0 4.922-.026 5.33-.393 6.126a3.08 3.08 0 0 1-1.213 1.346c-.746.449-1.067.493-3.599.493-2.452 0-2.816-.047-3.092-.394m6.032-2.493c.254-.44.29-1.227.241-5.252-.072-5.92.039-5.681-2.6-5.592l-1.81.061-.05 5.355c-.037 3.77.012 5.443.164 5.65.155.213.716.297 1.986.297 1.662 0 1.789-.032 2.07-.519m14.66 2.634c-.364-.118-.939-.453-1.277-.745-1.146-.99-1.183-1.217-1.183-7.248 0-5.315.012-5.488.426-6.183.675-1.135 1.845-1.717 3.436-1.712 1.61.006 2.602.456 3.46 1.567.79 1.023.864 1.701.783 7.166-.055 3.772-.12 4.613-.395 5.19-.844 1.766-3.171 2.637-5.25 1.965m2.824-2.43c.294-.172.587-.536.65-.807s.118-2.459.12-4.862c.002-4.353 0-4.37-.463-4.897-.38-.433-.652-.529-1.501-.529-.57 0-1.256.095-1.523.21l-.485.21v5.146c0 3.856.06 5.2.236 5.364.565.52 2.206.613 2.966.165m-60.779 2.24c-.182-.123-.33-.418-.33-.655 0-.684 3.351-14.391 3.603-14.736.334-.458 1.936-.412 2.31.065.162.207 1.065 3.622 2.006 7.588l1.71 7.212-.4.387a1.26 1.26 0 0 1-.982.323c-.541-.06-.602-.157-.907-1.447-.18-.76-.436-1.462-.57-1.56-.133-.1-1.13-.155-2.217-.125l-1.974.054-.396 1.507c-.368 1.4-.436 1.51-.959 1.56-.31.028-.712-.05-.894-.173m5.818-5.581c.155-.286-.831-4.556-1.138-4.927-.134-.162-.325-.237-.425-.167-.266.187-1.25 4.57-1.116 4.967.087.26.4.338 1.339.338.673 0 1.276-.095 1.34-.211m18.594 5.581c-.182-.123-.33-.37-.33-.547 0-.856 3.463-14.643 3.74-14.886.168-.148.705-.27 1.192-.27.488 0 .973.122 1.079.27.298.418 3.638 14.769 3.52 15.12-.115.34-1.23.659-1.653.474-.144-.063-.323-.486-.397-.939a10 10 0 0 0-.393-1.524l-.257-.7h-1.985c-1.355 0-2.035.084-2.139.263-.084.145-.323.848-.532 1.561-.343 1.176-.431 1.303-.946 1.35-.312.03-.717-.048-.899-.172m5.839-5.672c.105-.311-.783-4.353-1.073-4.888-.138-.253-.206-.249-.439.024-.34.399-1.32 4.438-1.178 4.86.146.432 2.544.435 2.69.004m19.379 5.15c-.243-.726-.023-14.32.237-14.696.25-.36 1.175-.343 1.444.025.154.21.2 2.413.165 7.696l-.05 7.401-.804.067c-.718.059-.825.005-.992-.493M23.48 191.789c-.182-.537-.109-91.993.073-92.538.14-.419 6.502-6.55 7.8-7.518.422-.315 2.473-.342 22.118-.292l21.653.055.094 1.506c.09 1.436.117 1.507.568 1.507.441 0 .48-.086.568-1.291.053-.71.164-1.413.248-1.561.12-.213 6.033-.27 28.52-.27 27.854 0 28.373.009 28.565.417.108.23.197.835.199 1.346.003 1.115.203 1.536.682 1.432.283-.06.366-.296.405-1.151.027-.59.093-1.292.146-1.559l.096-.484h44.244l1.104 1.127c3.356 3.43 5.861 6.117 6.064 6.505.178.342.231 10.752.236 46.436.004 25.298-.045 46.15-.108 46.337-.104.31-7.474.34-81.637.34-74.568 0-81.532-.029-81.638-.344m31.046-2.037c2.964-.408 5.99-1.545 8.917-3.354 5.5-3.397 10.079-9.695 12.026-16.545.933-3.278 1.168-5.104 1.168-9.041 0-2.694-.09-4.142-.339-5.49-2.19-11.81-9.789-20.572-20.099-23.174-2.177-.55-8.065-.545-10.303.007-2.478.611-4.273 1.331-6.539 2.62-6.907 3.932-11.98 11.456-13.52 20.058-1.405 7.844-.05 15.582 3.93 22.447 1.306 2.251 4.707 6.167 6.695 7.708 5.378 4.166 11.212 5.705 18.064 4.763zm-7.789-1.851c-3.126-.642-6.567-2.276-9.345-4.438-1.9-1.479-5.028-5.025-6.214-7.046-2.923-4.978-4.216-9.801-4.216-15.717 0-7.47 2.377-13.936 7.084-19.269 2.025-2.294 3.677-3.667 6.096-5.068 6.93-4.014 15.06-3.953 22.07.165 2.293 1.348 4.24 3.034 6.24 5.407 3.43 4.066 5.43 8.615 6.406 14.572.316 1.927.314 6.844-.004 8.933-1.176 7.737-5.534 14.957-11.396 18.883-4.175 2.795-7.926 3.955-12.652 3.912-1.405-.013-3.236-.163-4.069-.334zm5.52-24.385c1.02-.526 1.452-1.292 1.469-2.597.01-.849-.092-1.184-.573-1.863-.702-.991-1.677-1.43-2.546-1.147-2.529.825-3.05 4.098-.89 5.595.769.534 1.524.537 2.54.012m112.094 25.952c3.8-.99 7.548-2.885 10.23-5.175 5.104-4.359 8.487-10.373 9.879-17.561.53-2.743.57-8.456.08-11.252-1.076-6.115-3.383-11.025-7.206-15.336-3.773-4.254-7.683-6.64-13.117-8.002-2.075-.52-7.877-.52-9.952 0-5.433 1.363-9.343 3.748-13.117 8.002-3.786 4.267-5.959 8.762-7.13 14.748-.575 2.937-.575 8.903 0 11.84 1.767 9.028 6.66 16.263 13.7 20.26 1.889 1.072 4.91 2.207 6.792 2.552.78.143 1.547.295 1.703.338.727.197 7.016-.122 8.138-.414m-8.232-1.365c-10.135-1.623-18.507-10.489-20.52-21.728-.678-3.785-.503-9.054.428-12.9 3.213-13.274 14.834-21.833 26.854-19.78 10.038 1.716 18.135 10.637 20.134 22.183.493 2.848.44 7.705-.114 10.53-1.116 5.68-3.307 10.116-6.992 14.158-3.566 3.911-7.867 6.422-12.6 7.355-1.579.312-5.726.417-7.19.182m4.407-24.58c.888-.518 1.365-1.44 1.364-2.637-.001-1.748-1.05-3.008-2.526-3.033-1.084-.019-2.012.592-2.455 1.616-.299.69-.317.953-.134 1.956.393 2.154 2.06 3.086 3.751 2.098m-29.15 12.049c.04-9.577-.001-12.186-.188-12.321-.131-.095-5.062-.174-10.958-.175-8.405-.003-10.738.054-10.806.265-.047.148-.035 2.497.028 5.22l.113 4.952 10.692.112c5.881.062 10.714.134 10.74.161.389.406-.653.48-6.728.48-5.017 0-6.833.067-7.002.258-.143.164-.227.981-.227 2.218 0 1.236-.083 2.054-.227 2.217-.284.323-3.618.352-4.138.036-.32-.195-.366-.465-.366-2.138 0-1.456-.071-1.996-.298-2.254-.268-.304-1.976-.334-16.7-.284l-16.403.055-.05 6.456c-.027 3.55-.009 6.578.042 6.727.073.218 5.305.262 26.26.218l26.168-.055zm-49.392 9.656c-.266-.176-.332-.518-.332-1.721 0-1.414.029-1.514.486-1.712.524-.226 11.958-.3 12.462-.08.234.103.3.467.3 1.68 0 .917-.093 1.654-.228 1.807-.294.334-12.186.358-12.688.026m30.396-.34c-.26-1.177.784-1.838 1.35-.855.426.74.105 1.427-.667 1.427-.445 0-.583-.115-.683-.571m4.677.102c-.328-.962.738-1.925 1.291-1.168.128.176.206.593.173.925-.052.509-.16.616-.678.673-.499.055-.65-.028-.786-.43m11.564-16.332c-.383-.175-.43-.324-.379-1.224l.058-1.025h1.893l.057 1.023c.053.933.014 1.042-.438 1.238-.579.25-.617.25-1.191-.012m-17.332-.33c-.256-.758-.062-2.027.31-2.027.108 0 .306.17.441.377.207.317.308.334.634.108.483-.336.906-.346 1-.023.054.182.185.177.504-.017.676-.411 1.002-.141.934.773l-.059.79-1.029.059c-.566.031-1.198-.045-1.404-.17-.292-.179-.425-.151-.6.12-.286.445-.583.449-.731.01zm7.87.083c-.124-.142-.226-.559-.226-.926 0-.825.296-1.184.977-1.184.572 0 .915.503.915 1.342 0 .664-.334 1.026-.946 1.026-.27 0-.594-.116-.72-.258m4.885-.062c-.167-.23-.326-.259-.577-.106-.698.425-.939.262-.939-.637 0-.467.064-.893.142-.948s.738-.027 1.467.06c1.096.13 1.365.099 1.561-.183.213-.308.265-.3.52.077.458.673.323 2.057-.2 2.057-.14 0-.337-.17-.44-.376-.176-.359-.213-.359-.745-.002-.488.327-.587.334-.79.058zm-7.193-.864c0-.864.046-.968.431-.968.53 0 1.272.564 1.272.968s-.741.969-1.272.969c-.385 0-.43-.104-.43-.969m-43.16 17.838c.508-.734.494-1.058-.073-1.702-.61-.694-1.296-.68-1.792.038-.494.714-.498 1.251-.014 1.801.544.62 1.399.557 1.879-.137m-1.674-.259c-.437-.93.525-1.977 1.217-1.324.338.32.368 1.105.054 1.462-.341.388-1.06.31-1.27-.138m44.456-8.753c0-.536-.007-.538-1.787-.538s-2.136.14-1.926.764c.082.243.507.312 1.909.312 1.798 0 1.804-.002 1.804-.538m-7.662-3.175c.057-.266.08-2.615.05-5.22l-.053-4.736-1.687-.063c-1.947-.072-1.996-.032-2 1.616-.002.887-.08 1.17-.369 1.345-.24.146-3.94.223-10.704.223s-10.465-.077-10.705-.223c-.292-.177-.366-.456-.366-1.372 0-.726-.098-1.243-.266-1.402-.167-.157-.819-.227-1.75-.187l-1.485.063-.053 4.736c-.03 2.605-.006 4.954.05 5.22l.105.484h29.128zm18.448-17.078c0-.674-.444-.6-.533.089q-.059.466.236.467c.194 0 .297-.194.297-.556m-18.553-3.631c.126-.172.199-.487.163-.7-.063-.368-.765-.387-14.727-.387s-14.664.019-14.726.387c-.177 1.041-.594 1.012 14.726 1.012 12.302 0 14.369-.044 14.564-.312m22.388.01c.223-.253.287-3.031.39-16.737.114-15.118.064-17.763-.344-18.227-.07-.08-11.85-.145-26.176-.145h-26.05l-.135.861c-.197 1.25.06 33.153.264 32.739.152-.308 2.65-.34 26.085-.34 15.081 0 25.916.08 25.916.191 0 .106-.135.251-.3.323s-5.008.131-10.764.131c-10.04 0-10.469.016-10.557.4-.05.22-.014.559.082.753.158.322 1.139.354 10.748.354 8.84 0 10.619-.05 10.841-.303M81.7 149.153c-.328-.15-.337-6.33-.01-6.703.378-.43 1.622-.323 1.849.158.282.601.256 6.102-.032 6.43-.224.254-1.347.326-1.807.115zm1.24-2.82c.055-.852.027-.912-.425-.912-.435 0-.484.083-.484.825 0 .919.125 1.157.558 1.064.198-.043.312-.36.352-.976m4.049 2.704c-.317-.36-.317-6.227 0-6.587.277-.315 1.597-.344 1.762-.039.2.367.234 6.325.038 6.615-.231.344-1.501.351-1.8.011m1.192-2.65c0-.726-.065-.87-.426-.927-.379-.062-.425.023-.425.771 0 .934.124 1.173.558 1.078.206-.045.293-.319.293-.922m4.107 2.65c-.317-.36-.317-6.227 0-6.587.369-.42 1.62-.324 1.84.141.258.55.044 6.33-.243 6.54-.34.25-1.347.19-1.597-.094m1.12-1.84c.035-.25.038-.981.006-1.414-.02-.277-.154-.372-.455-.323-.728.117-.573 1.898.165 1.898.144 0 .271-.073.283-.161zm32.274 1.955c-.069-.079-.126-1.618-.126-3.421 0-3.601-.02-3.54 1.208-3.54.997 0 1.063.222 1.063 3.553 0 2.073-.072 3.117-.227 3.293-.24.273-1.702.36-1.918.115m1.352-2.818c.054-.853.026-.913-.426-.913-.435 0-.484.083-.484.825 0 .919.125 1.157.558 1.064.198-.043.312-.36.352-.976m-17.942 2.24c0-.066.213-.477.473-.913.606-1.015.609-1.89.01-2.573-1.164-1.324-3.02.03-2.558 1.865.243.96.09 1.026-.374.16-1.01-1.884.216-4.07 2.12-3.779 1.748.267 2.544 2.764 1.358 4.256-.17.213-.253.49-.184.616.068.126.041.229-.06.229s-.32.058-.485.13-.3.076-.3.01zm-10.743-.715c-.396-.18-.8-1.284-.8-2.184 0-2.249 2.72-3.204 3.97-1.394.447.645.514 2.322.119 2.915-.389.582-.459.464-.428-.718.024-.913-.045-1.163-.418-1.507a1.5 1.5 0 0 0-2.212.158c-.534.656-.572 1.085-.19 2.128.151.41.258.739.237.73zm20.295-.49q.623-1.372-.176-2.281c-1.118-1.272-2.918-.104-2.615 1.697.11.657.013.713-.408.234-.72-.818-.143-2.93.94-3.446.874-.415 1.392-.383 2.133.13 1.168.81 1.43 2.518.577 3.752-.517.748-.805.693-.451-.087m-36.954-9.311c-.316-.36-.316-6.227 0-6.587.125-.142.534-.258.909-.258.374 0 .783.116.908.258.155.176.227 1.22.227 3.293s-.072 3.118-.227 3.294c-.125.142-.534.258-.908.258-.375 0-.784-.116-.909-.258m1.25-2.703c.055-.854.027-.913-.425-.913-.435 0-.484.083-.484.825 0 .918.125 1.157.558 1.064.198-.043.312-.36.352-.976m32.786 2.113c-.523-.637-.954-1.81-.954-2.596 0-2.062 1.777-4.08 3.593-4.08 2.837 0 4.582 4.098 2.72 6.39-.374.462-.451.5-.345.166.309-.967.318-2.833.016-3.496-.648-1.426-2.735-1.943-3.889-.963-1.298 1.102-1.598 2.702-.795 4.25.541 1.043.372 1.204-.346.329m10.145.362c-.287-.238-.32-.651-.273-3.498l.053-3.227.928-.067c.614-.044.98.028 1.085.215.086.155.159 1.7.16 3.435.002 2.677-.042 3.171-.296 3.282-.496.217-1.311.148-1.657-.14m1.163-2.69c.054-.854.026-.914-.426-.914-.435 0-.484.084-.484.825 0 .92.125 1.158.558 1.064.198-.042.312-.359.352-.976m-37.791 1.272c-.526-.84-.54-2.356-.027-3.096.852-1.233 2.39-1.297 3.405-.141.817.93.816 2.259-.003 3.254l-.579.703.295-.689c.557-1.302.289-2.277-.764-2.777-.572-.272-.718-.269-1.223.028-.818.482-1.052 1.178-.763 2.275.292 1.11.173 1.264-.341.443zm17.355-.087c-.675-1.076-.605-2.333.18-3.225.535-.61.747-.704 1.575-.704.864 0 1.02.08 1.605.805.762.945.845 1.839.272 2.909-.206.385-.405.7-.44.7-.037 0-.029-.518.017-1.15.077-1.052.04-1.19-.436-1.615-1.484-1.328-3.343.734-2.255 2.501.162.263.21.479.107.479-.102 0-.384-.315-.625-.7m-8.66-.19c-1.08-2.017.28-4.196 2.344-3.755 1.489.318 2.164 2.624 1.152 3.933l-.467.604.183-.752c.275-1.13.228-1.477-.281-2.056-1.183-1.346-3.026-.075-2.577 1.777.254 1.046.123 1.138-.354.248M86.39 126.92c-.209-.444-.28-7.91-.081-8.5.103-.306 1.61-.34 15.101-.34 11.404 0 15.041.062 15.214.258.32.365.32 8.376 0 8.74-.173.197-3.792.259-15.133.259-14.543 0-14.91-.01-15.101-.417m3.636-1.68a15 15 0 0 0-1.987 0c-.546.044-.1.08.994.08 1.093 0 1.54-.036.993-.08m7.333-.043a.47.47 0 0 0-.189-.336c-.104-.073-.19-.03-.19.095 0 .37-1.821.277-2.162-.11-.27-.308-.297-.308-.297 0 0 .505-.668.408-1.005-.146l-.293-.485.103.485c.148.691-.433.637-1.157-.108-.317-.326-.428-.39-.247-.145.41.559.414.737.017.737-.17 0-1.14-.928-2.155-2.062-1.015-1.135-1.892-1.978-1.948-1.874s.694 1.023 1.668 2.043 1.72 1.911 1.659 1.981c-.062.07 1.308.127 3.042.127 1.845 0 3.154-.084 3.154-.202m10.361.041c-1.9-.058-2.223-.118-2.223-.417 0-.311-.04-.308-.372.033-.4.412-1.056.295-.856-.153.066-.149-.002-.101-.151.106-.34.471-.82.485-1.044.03-.157-.318-.18-.318-.287 0a.56.56 0 0 1-.501.347c-.303 0-.39-.148-.407-.7l-.023-.7-.12.646c-.085.453-.249.667-.546.715-.236.038-.424-.045-.424-.188 0-.175-.075-.189-.237-.043-.13.117-.647.217-1.148.222-.76.008-.938-.067-1.076-.456-.163-.46-.165-.46-.177-.016-.007.246.045.513.114.592.07.079 2.731.122 5.914.097 3.183-.026 4.787-.077 3.564-.115m6.916.001c-.75-.04-2.027-.04-2.838 0-.812.04-.198.074 1.363.074s2.225-.033 1.475-.074m-15.254-1.724c-.047-.207-.086-.037-.086.377 0 .415.039.584.086.377a2 2 0 0 0 0-.754m3.899.377c.054-.237.021-.377-.073-.31-.094.066-.172.26-.172.43 0 .446.13.383.245-.12m2.594-.025c0-.119-.085-.156-.19-.082a.48.48 0 0 0-.188.348c0 .118.085.155.189.082a.48.48 0 0 0 .19-.348m-7.819-.23c-.06-.172-.105-.121-.114.13-.008.227.036.354.1.282.062-.071.069-.257.014-.412m-.189-.861c-.06-.172-.105-.121-.114.13-.008.227.036.354.1.282.062-.071.069-.257.014-.412m4.165-.333c-.048-.21-.09-.09-.094.265s.035.527.087.381.055-.436.007-.646zm-2.84.117c-.06-.171-.105-.12-.115.13-.008.227.037.354.1.283s.07-.257.015-.413m27.774 4.023c.563-1.557.728-2.705.508-3.54-.78-2.964-3.779-3.81-5.863-1.655-.984 1.019-1.248 2.75-.693 4.55.243.787.24.824-.03.43-.162-.237-.506-.942-.763-1.566-.522-1.268-.484-2.32.136-3.711.818-1.838 2.032-2.675 3.89-2.682 1.165-.005 1.46.079 2.263.643 1.857 1.306 2.5 4.002 1.499 6.287-.491 1.12-1.275 2.15-.947 1.244m-86.983-1.869c.042-.412-.057-.648-.343-.822-.5-.305-.945.045-.945.744 0 .631.172.796.75.72.362-.049.494-.206.538-.642m12.986-6.757c.26-.296.297-1.386.297-8.703s-.037-8.407-.297-8.703c-.265-.301-1.795-.338-13.989-.338-7.53 0-13.825.059-13.99.13-.266.117-.3 1.102-.3 8.898 0 4.822.058 8.832.127 8.91.07.08 6.365.144 13.99.144 12.352 0 13.897-.037 14.162-.338m-14.369-.953-10.408-.108v-15.284h21.384l.05 7.58c.046 7.062.027 7.59-.284 7.749-.184.094-5.017.122-10.742.063m146.646 1.16c.266-.116.3-1.102.3-8.91s-.034-8.794-.3-8.91c-.47-.206-27.583-.147-27.87.06-.389.28-.401 17.411-.012 17.691.297.214 27.397.281 27.882.07m-24.553-1.302c-.181-.207-.153-14.763.03-15.09.119-.214 2.393-.26 10.736-.216l10.586.056v15.284l-10.612.056c-5.837.03-10.67-.01-10.74-.09M81.191 85.719c-.294-.244-.334-.61-.309-2.83.016-1.402.073-2.631.127-2.73s10.95-.18 24.215-.18h24.117l.003 2.099c.001 1.154.052 2.307.112 2.563.073.307-.024.616-.283.911l-.393.448h-23.626c-19.101 0-23.69-.054-23.963-.28zM57.786 66.766c-1.02-.415-1.786-1.112-2.131-1.938-.257-.617-.307-1.588-.307-5.981 0-6.184.043-6.37 1.702-7.338 1.835-1.07 4.212-.715 5.559.83.298.343.617.848.71 1.122.228.681.211 9.874-.02 10.79-.538 2.135-3.323 3.405-5.513 2.515m3.119-2.518.499-.446-.003-4.774c-.002-2.626-.066-4.88-.142-5.01-.42-.716-2.358-.996-3.348-.483l-.482.25V64.07l.615.304c.937.463 2.268.405 2.86-.126zm6.37 2.498c-.352-.482-.202-14.977.16-15.473.218-.298.665-.356 2.751-.356 2.208 0 2.588.056 3.334.485.492.283 1.078.872 1.412 1.418.548.898.57 1.023.566 3.23-.005 2.52-.169 3.093-1.21 4.218-.32.348-.584.724-.584.836s.383 1.167.852 2.345.851 2.308.851 2.512c0 .565-.389.886-1.072.886-.604 0-.646-.064-1.807-2.744l-1.19-2.745-.927-.067c-.614-.044-.981.028-1.085.215-.087.156-.16 1.369-.16 2.697-.004 2.164-.041 2.437-.37 2.637-.524.32-1.253.274-1.521-.094m5.699-8.275c.41-.378.446-.57.446-2.387 0-2.585-.187-2.799-2.46-2.799-1.255 0-1.59.068-1.683.341-.063.187-.115 1.345-.115 2.572 0 2.649.015 2.668 2.014 2.678 1.054.005 1.449-.084 1.798-.405m7.05 8.43c-.629-.487-.667-1.083-.535-8.298.076-4.159.21-7.26.319-7.416.26-.374 6.4-.384 6.727-.011.25.285.299 1.219.082 1.602-.087.154-.995.274-2.441.322-1.267.043-2.374.158-2.46.257-.206.234-.206 3.928 0 4.162.086.099.959.213 1.94.254 1.7.071 1.788.099 1.897.592.063.285.061.76-.005 1.056-.115.522-.167.538-1.77.541-.91.002-1.78.095-1.935.206-.36.259-.519 3.4-.206 4.063.194.414.4.455 2.52.51 2.209.059 2.32.083 2.53.566.127.287.164.75.087 1.076l-.134.572-3.204.053c-1.762.03-3.297-.019-3.412-.107zm22.36-.257c-.276-.346-.322-.731-.266-2.225.059-1.589.135-1.92.635-2.742.328-.542 1.452-1.681 2.669-2.706 2.555-2.154 2.913-2.631 2.913-3.888 0-.83-.073-.995-.615-1.382-.8-.572-2.228-.472-2.857.2-.237.253-.618.46-.845.46-.455 0-1.17-.698-1.17-1.141 0-.481 1.192-1.623 2.058-1.97 2.784-1.118 5.493.813 5.507 3.926.009 1.949-.99 3.413-4.07 5.966-1.973 1.636-2.171 1.893-2.171 2.822 0 .783.623.946 3.612.946 2.633 0 2.642.001 2.857.538.16.403.16.674 0 1.076l-.216.539h-3.854c-3.577 0-3.878-.03-4.187-.419m14.97.105c-.832-.338-1.554-1.038-1.94-1.882-.343-.749-.39-10.906-.054-11.65.424-.939 1.212-1.67 2.133-1.982 1.807-.61 3.458-.315 4.596.821 1.132 1.13 1.197 1.512 1.192 6.981-.004 4.297-.047 5.01-.352 5.765-.413 1.024-.835 1.483-1.773 1.93-.857.406-2.82.415-3.802.017m2.518-2.073c.584-.142 1.03-.388 1.144-.631.108-.228.188-2.428.188-5.152V54.14l-.615-.426c-.74-.514-2.02-.56-2.801-.1l-.558.328v5.027c0 5.449-.02 5.348 1.076 5.722.293.1.55.19.57.2.021.01.469-.086.996-.215m7.719 2.154c-.208-.137-.33-.477-.329-.908.004-1.052.21-1.264 1.152-1.187.816.066.834.084.892.89.033.452-.042.96-.165 1.13-.26.355-1.068.395-1.55.075m10.58-.086c-.234-.267-.315-.752-.317-1.903-.002-.85-.078-1.68-.169-1.843-.116-.209-.728-.329-2.031-.4-2.18-.119-2.339-.248-2.339-1.897 0-1.062.11-1.306 2.391-5.287 1.315-2.295 2.486-4.245 2.602-4.332.374-.28.864-.176 1.252.266.353.401.378.718.378 4.624 0 4.656-.115 4.235 1.224 4.464.49.084.823 1.312.483 1.779-.132.18-.434.327-.673.327-.957 0-1.033.148-1.036 2.014-.002.964-.07 1.873-.152 2.019-.258.463-1.261.569-1.612.17m-.625-6.629c.27-.224.32-.547.273-1.759-.031-.816-.142-1.514-.246-1.55-.222-.078-1.798 2.574-1.798 3.025 0 .565 1.202.758 1.771.284m10.557 6.483c-.917-.516-1.966-1.981-1.88-2.626.03-.23.279-.607.552-.838.58-.49 1.067-.308 1.471.552.692 1.47 3.38 1.272 4.096-.301.411-.905.359-3.16-.093-4.004-.537-1.002-.988-1.186-3.268-1.335-1.522-.1-2.102-.218-2.234-.456-.099-.177-.18-1.599-.182-3.159-.002-2.295.054-2.902.294-3.175.445-.507 6.608-.505 6.78.002.196.584.125 1.533-.134 1.778-.14.132-1.24.262-2.508.296l-2.259.06-.056 1.1-.056 1.097 1.38.146c1.685.178 2.777.75 3.653 1.914.796 1.058 1.039 1.951 1.037 3.816-.002 3.234-2.02 5.598-4.779 5.597a3.8 3.8 0 0 1-1.814-.464zM38.25 35.529c-.28-.318-.313-1.152-.313-7.753 0-6.436.038-7.44.297-7.734.239-.272.767-.338 2.684-.338 2.02 0 2.51.067 3.189.441 2.048 1.128 2.914 4.396 1.758 6.638-.372.72-.372.734-.011 1.184 1.651 2.058 1.311 5.544-.695 7.127-.81.64-.851.648-3.707.72-2.493.062-2.93.023-3.202-.285m5.875-2.372c.611-.487.906-1.706.649-2.683-.364-1.379-.667-1.539-2.791-1.468l-1.87.062-.055 2.027c-.04 1.476.012 2.075.19 2.203.445.322 3.433.213 3.877-.14m-.342-7.082c.512-.527.682-1.629.4-2.598-.34-1.172-.84-1.435-2.583-1.361l-1.487.063-.055 1.934c-.07 2.416.034 2.543 1.978 2.438.993-.053 1.46-.18 1.747-.476m23.144 9.5c-.127-.173-.221-2.606-.26-6.662-.045-4.749-.121-6.46-.297-6.659-.13-.148-.896-.322-1.703-.387l-1.467-.118V19.81l4.31-.058 4.31-.058.157.483c.087.265.1.727.03 1.026-.119.508-.225.553-1.574.662-.796.065-1.514.194-1.596.287s-.174 3.087-.204 6.652c-.036 4.234-.126 6.58-.26 6.764-.261.358-1.186.363-1.446.007m11.318.02c-.364-.117-.94-.452-1.278-.744-1.145-.989-1.182-1.217-1.182-7.248 0-5.315.012-5.488.426-6.183.675-1.135 1.845-1.717 3.436-1.712 1.609.006 2.602.456 3.46 1.567.79 1.023.863 1.701.783 7.166-.055 3.772-.12 4.613-.395 5.19-.844 1.766-3.171 2.637-5.25 1.965m2.824-2.429c.294-.172.586-.536.65-.807.064-.27.118-2.459.119-4.862.003-4.353 0-4.37-.462-4.897-.38-.433-.653-.528-1.502-.528-.57 0-1.255.094-1.522.21l-.485.21v5.145c0 3.856.059 5.2.236 5.364.564.52 2.206.613 2.966.165m17.652 2.424c-.144-.163-.227-.983-.227-2.228 0-1.82.04-2.033.535-2.809.634-.994 1.318-1.676 3.464-3.453 1.842-1.526 2.367-2.396 2.17-3.594-.243-1.467-2.07-1.93-3.44-.871-.57.44-.83.522-1.19.377-1.18-.48-.923-1.725.55-2.663 1.087-.692 3.098-.749 4.229-.118.871.486 1.717 1.89 1.893 3.144.293 2.082-.668 3.694-3.762 6.305-2.11 1.782-2.592 2.419-2.414 3.19.153.669.824.826 3.522.826 2.644 0 2.959.106 2.959.994 0 1.18.077 1.159-4.146 1.159-2.794 0-3.981-.074-4.143-.259m15.434-.048c-1.665-.675-2.617-2.018-2.753-3.88-.106-1.457.199-2.503 1.017-3.49.355-.428.646-.881.646-1.006s-.23-.5-.511-.835c-.424-.503-.526-.848-.59-2.005-.095-1.692.144-2.43 1.11-3.422 1.277-1.312 3.223-1.58 4.838-.664 1.43.811 1.853 1.594 1.936 3.587.068 1.627.06 1.658-.593 2.469l-.662.821.807 1.02c1.057 1.338 1.32 2.854.822 4.743-.272 1.034-1.53 2.358-2.578 2.716-.974.331-2.602.307-3.489-.054m3.267-2.386c.716-.422.942-.931.942-2.126 0-.846-.08-1.039-.615-1.491-.967-.817-1.66-1.005-2.494-.679-1.151.45-1.812 1.31-1.805 2.347.007.998.267 1.48 1.053 1.945.706.419 2.21.42 2.919.004zm-.375-7.86c.702-.407.75-.495.75-1.383 0-.769-.095-1.034-.5-1.395-.686-.615-2.105-.61-2.796.008-.441.394-.501.586-.452 1.453.052.9.123 1.035.72 1.375.858.487 1.36.475 2.278-.058zm18.197 10.294c-.168-.19-.227-2.202-.227-7.716 0-8.563-.08-8.17 1.667-8.17.804 0 1.02.084 1.243.484.147.266.84 2.712 1.538 5.435.698 2.724 1.349 5.121 1.445 5.328.097.208.34.377.541.377s.44-.17.531-.377.746-2.653 1.456-5.435c.71-2.783 1.418-5.229 1.574-5.436.335-.446 2.095-.53 2.457-.118.326.37.326 15.258 0 15.628-.125.142-.448.259-.719.259-.886 0-.946-.26-.946-4.116 0-1.98-.052-3.752-.115-3.94-.298-.884-.638-.138-1.585 3.481-.55 2.102-1.129 3.99-1.288 4.198-.212.277-.576.377-1.38.377-1.253 0-1.58-.257-1.868-1.463-1.01-4.228-1.846-7.04-2.095-7.04-.235 0-.287.639-.33 3.982-.042 3.435-.093 4.02-.367 4.252-.403.341-1.236.347-1.532.01m28.774.017c-.18-.21-.236-2.057-.236-7.733 0-7.073.019-7.477.362-7.83.315-.325.708-.364 2.995-.303 2.506.067 2.671.099 3.42.662 1.216.918 1.55 1.878 1.55 4.467 0 2.366-.258 3.276-1.212 4.29-.27.286-.492.651-.492.81s.383 1.222.852 2.362.851 2.233.851 2.429c0 .554-.395.872-1.086.872-.622 0-.65-.042-1.807-2.744l-1.175-2.745h-2.081l-.095 2.62c-.053 1.441-.148 2.68-.214 2.754-.26.293-1.402.356-1.632.089m5.434-8.15c.736-.447 1.02-2.98.495-4.41-.316-.86-.84-1.038-2.759-.934l-1.23.066-.054 2.473c-.046 2.139-.01 2.51.273 2.745.388.323 2.772.367 3.275.06m7.117 8.053c-.216-.246-.297-.768-.297-1.916v-1.578l2.933-4.48c1.613-2.463 2.933-4.649 2.933-4.856 0-.636-.644-.824-2.83-.824-2.037 0-2.104-.015-2.307-.522a2.16 2.16 0 0 1-.087-1.076l.122-.554h3.373c4.053 0 4-.03 4 2.294v1.508l-3.028 4.593c-1.665 2.526-3.028 4.655-3.028 4.73 0 .515.614.652 2.934.652 2.714 0 2.933.088 2.933 1.184 0 1.138-.15 1.184-3.904 1.184-2.884 0-3.498-.056-3.747-.339m14.274.086c-.364-.118-.939-.453-1.277-.745-1.146-.989-1.183-1.217-1.183-7.248 0-5.315.012-5.488.426-6.183.675-1.135 1.845-1.717 3.436-1.712 1.61.006 2.602.456 3.46 1.567.79 1.023.864 1.701.783 7.166-.055 3.772-.12 4.613-.395 5.19-.844 1.766-3.171 2.637-5.25 1.965m2.824-2.43c.294-.172.587-.536.65-.807.065-.271.118-2.459.12-4.862.002-4.353 0-4.37-.463-4.897-.38-.433-.652-.529-1.501-.529-.57 0-1.256.095-1.523.21l-.485.21v5.146c0 3.856.06 5.2.236 5.364.565.52 2.206.613 2.966.165M15.673 35.113c-.625-.331-1.151-.812-1.466-1.34-.566-.947-.614-1.414-.195-1.891.478-.544 1.105-.402 1.742.393 1.088 1.36 2.732 1.537 3.686.396.656-.784.83-1.64.464-2.275-.278-.483-1.51-1.444-3.793-2.962-.608-.404-1.439-1.144-1.845-1.644-.66-.812-.74-1.03-.74-2.013 0-1.417.443-2.462 1.37-3.226 1.658-1.366 4.115-1.306 5.596.137.937.912 1.113 1.446.71 2.147-.428.743-1.1.679-1.798-.172-.51-.62-.689-.7-1.59-.7-1.24 0-1.936.395-2.197 1.245-.18.586-.14.705.432 1.315.346.368 1.389 1.151 2.317 1.739 2.08 1.317 3.42 2.69 3.664 3.75.443 1.933-.608 4.25-2.392 5.274-.932.535-2.781.454-3.965-.173m9.727.293c-.182-.123-.33-.37-.33-.547 0-.856 3.464-14.643 3.74-14.886.396-.35 2.023-.35 2.271 0 .298.418 3.638 14.769 3.52 15.12-.115.34-1.23.659-1.653.474-.144-.063-.322-.486-.397-.939a10 10 0 0 0-.393-1.524l-.257-.7h-1.985c-1.355 0-2.034.084-2.139.264-.084.144-.323.847-.531 1.56-.343 1.176-.432 1.303-.947 1.35-.312.03-.716-.048-.899-.172m5.839-5.672c.105-.311-.783-4.353-1.073-4.888-.138-.253-.206-.249-.439.024-.34.399-1.32 4.439-1.177 4.86.145.432 2.543.435 2.689.004m19.297 5.561c-.164-.186-.298-.388-.298-.45 0-.06.767-3.296 1.704-7.188s1.703-7.123 1.703-7.177c0-.716 2.178-1.1 2.64-.466.125.171.895 3.15 1.712 6.62s1.597 6.778 1.733 7.351c.229.963.22 1.066-.116 1.346-.2.166-.643.302-.983.302-.57 0-.636-.073-.827-.915-.357-1.572-.416-1.768-.61-2.045-.13-.183-.805-.269-2.13-.269-1.329 0-1.998.085-2.124.27-.1.147-.294.753-.43 1.345-.137.592-.331 1.197-.432 1.345-.256.377-1.187.336-1.542-.069m5.884-5.597c.134-.398-.85-4.78-1.116-4.967-.1-.07-.289.005-.42.167-.304.378-1.295 4.647-1.143 4.927.063.116.666.211 1.34.211.939 0 1.252-.079 1.339-.338m94.887 5.52c-.36-.408-.359-.438.098-2.313a2024 2024 0 0 0 1.717-7.174c.69-2.9 1.383-5.444 1.54-5.65.394-.52 1.953-.52 2.341 0 .267.356 3.563 14.008 3.563 14.754 0 .463-.645.842-1.287.758-.426-.056-.552-.228-.756-1.036-.53-2.104-.45-2.045-2.79-2.045h-2.075l-.437 1.56c-.412 1.471-.47 1.561-.994 1.561-.305 0-.72-.186-.92-.414m5.797-5.542c.143-.424-.662-4.233-1.007-4.764-.177-.272-.292-.303-.454-.121-.27.303-1.348 4.808-1.21 5.061.054.102.65.184 1.324.184.971 0 1.25-.074 1.347-.36" style="fill:#000"/></svg>