<?xml version="1.0" encoding="UTF-8" standalone="no"?>
<!-- Created with Inkscape (http://www.inkscape.org/) -->

<svg
   width="210mm"
   height="297mm"
   viewBox="0 0 210 297"
   version="1.1"
   id="svg1"
   xml:space="preserve"
   xmlns="http://www.w3.org/2000/svg"
   xmlns:svg="http://www.w3.org/2000/svg"><defs
     id="defs1" /><g
     id="layer1"><rect
       style="fill:#eaff2a;fill-rule:evenodd;stroke:#000000;stroke-width:0.529167;fill-opacity:1"
       id="rect2"
       width="210.82191"
       height="295.47943"
       x="0"
       y="0.82191783" /><path
       style="fill:#000000"
       d="m 84.217817,279.91499 c -0.25245,-0.41 -0.29459,-1.51388 -0.29459,-7.7163 0,-6.73853 0.0239,-7.26244 0.34607,-7.59412 0.29275,-0.30138 0.82485,-0.35576 3.45365,-0.35297 1.70916,0.002 3.20726,0.0754 3.32912,0.1636 0.45315,0.3279 0.49581,1.27739 0.0787,1.75186 -0.35608,0.40505 -0.61605,0.44919 -2.64553,0.44919 -1.87772,0 -2.26967,0.0564 -2.36551,0.34051 -0.0632,0.18728 -0.11487,1.10995 -0.11487,2.05038 0,1.63735 0.0206,1.71877 0.48543,1.9198 0.26698,0.11547 1.16325,0.20994 1.99171,0.20994 1.46529,0 1.51162,0.0159 1.70211,0.58589 0.12901,0.38598 0.13293,0.74289 0.0115,1.04605 -0.16488,0.41165 -0.3777,0.47166 -2.0188,0.56931 -1.27089,0.0756 -1.88543,0.20066 -2.00032,0.40701 -0.0912,0.16383 -0.16714,1.56639 -0.16873,3.11681 -0.002,2.45497 -0.0476,2.86494 -0.34898,3.1752 -0.4819,0.49611 -1.09214,0.44437 -1.44098,-0.12216 z m 11.56229,0.0848 c -0.27871,-0.35032 -0.31319,-1.21257 -0.31319,-7.83093 0,-6.06483 0.0482,-7.48281 0.26144,-7.68409 0.18005,-0.16998 1.284661,-0.22844 3.548259,-0.18781 l 3.286814,0.059 v 0.96871 0.96871 l -2.27089,0.11253 c -1.248984,0.0619 -2.377328,0.1887 -2.507425,0.28179 -0.16032,0.11471 -0.23655,0.78544 -0.23655,2.08126 0,1.29321 0.0766,1.96837 0.23655,2.08617 0.130097,0.0958 1.002974,0.22259 1.939708,0.28178 l 1.703157,0.10764 v 0.96871 0.9687 l -1.513917,0.0542 c -2.545758,0.0912 -2.387398,-0.0779 -2.324748,2.48116 l 0.0539,2.20053 2.420255,0.10763 c 1.8702,0.0832 2.46093,0.18102 2.59916,0.43054 0.23536,0.42482 0.23107,1.00605 -0.0112,1.52103 -0.18175,0.38631 -0.42562,0.41638 -3.376994,0.41638 -2.841459,0 -3.214539,-0.042 -3.494289,-0.39367 z m 12.063083,0.23174 c -0.62932,-0.48651 -0.66781,-1.08292 -0.53559,-8.29787 0.0762,-4.15877 0.20945,-7.25966 0.31864,-7.41623 0.26038,-0.37337 6.39949,-0.3832 6.72689,-0.0108 0.25117,0.28571 0.29909,1.21877 0.0823,1.60182 -0.0874,0.15434 -0.99474,0.27434 -2.44151,0.3229 -1.26636,0.0425 -2.37341,0.158 -2.46013,0.25667 -0.20533,0.23362 -0.20558,3.92783 -2.9e-4,4.16185 0.0866,0.0987 0.95987,0.21298 1.94071,0.25403 1.70081,0.0712 1.78862,0.0986 1.89748,0.59198 0.0628,0.28455 0.0607,0.75953 -0.005,1.05553 -0.11524,0.5223 -0.16745,0.53826 -1.771,0.54146 -0.90873,0.002 -1.77919,0.0946 -1.93434,0.20618 -0.35924,0.25836 -0.51882,3.39913 -0.20644,4.06309 0.19446,0.41334 0.40064,0.45509 2.52119,0.51056 2.20807,0.0578 2.31908,0.0825 2.53011,0.56481 0.12567,0.28717 0.16289,0.7507 0.0864,1.07634 l -0.1343,0.57195 -3.20365,0.0533 c -1.76201,0.0293 -3.29736,-0.0191 -3.41188,-0.10763 z m 11.63316,-0.1961 c -0.20933,-0.28855 -0.25599,-1.72302 -0.24049,-7.39248 0.0106,-3.86895 0.0757,-7.29058 0.14481,-7.60362 0.14575,-0.6606 0.83274,-0.94815 1.41637,-0.59285 0.37242,0.22673 0.38758,0.45064 0.44342,6.55132 0.0454,4.96227 0.1135,6.39279 0.31754,6.67213 0.20602,0.28206 0.60964,0.35558 1.95216,0.35558 2.02962,0 2.42451,0.18706 2.42451,1.14849 0,1.15532 -0.17497,1.21946 -3.32639,1.21946 -2.44805,0 -2.91057,-0.0529 -3.13193,-0.35803 z m -18.33611,-31.44786 c -2.118104,-1.23177 -2.794538,-3.3326 -1.838184,-5.70888 0.266647,-0.66253 0.771244,-1.44558 1.157404,-1.79607 0.37656,-0.34178 0.68465,-0.73821 0.68466,-0.88095 0,-0.14274 -0.21289,-0.61639 -0.4731,-1.05256 -1.410274,-2.364 0.33877,-5.77021 3.10971,-6.05603 1.86614,-0.19249 3.31976,0.68051 4.0096,2.40804 0.71868,1.79979 0.31569,3.53353 -1.08785,4.6801 -0.45503,0.37172 -0.82734,0.74452 -0.82734,0.82843 0,0.26853 2.04358,1.76404 2.23073,1.63247 0.0991,-0.0696 0.2867,-0.41933 0.41696,-0.77706 0.2512,-0.68984 0.8224,-0.85718 1.50579,-0.44114 0.55066,0.33524 0.5878,0.78159 0.16198,1.94713 l -0.39931,1.09301 0.37812,0.58179 c 1.09679,1.68755 1.34819,3.319 0.57332,3.7206 -0.654,0.33897 -1.39912,-0.0666 -1.54907,-0.84327 -0.0676,-0.35001 -0.2754,-0.79341 -0.46182,-0.98532 -0.31628,-0.3256 -0.40447,-0.28958 -1.31896,0.5387 -1.99439,1.80635 -4.3573,2.22487 -6.27264,1.11101 z m 3.86315,-2.11252 c 0.32334,-0.15883 0.84337,-0.52905 1.15562,-0.82271 0.744,-0.6997 0.59121,-0.98271 -1.32798,-2.45985 -1.64603,-1.26691 -1.95661,-1.30099 -3.07041,-0.3369 -0.66997,0.57992 -0.86646,1.14891 -0.77237,2.23662 0.13787,1.59391 2.16454,2.29191 4.01514,1.38284 z m 0.39333,-8.05516 c 0.55614,-0.39099 0.66766,-0.59394 0.66766,-1.21506 0,-1.15221 -0.68268,-1.80244 -1.8924,-1.80244 -0.77056,0 -1.05639,0.10577 -1.42791,0.52839 -0.64148,0.7297 -0.61933,1.73841 0.0559,2.54624 0.43957,0.52588 0.62983,0.60627 1.22475,0.51743 0.38738,-0.0578 1.00478,-0.3164 1.37199,-0.57456 z M 57.292317,217.76978 c -0.84177,-0.24566 -1.44699,-0.73187 -2.07379,-1.66598 l -0.53301,-0.79434 -0.0614,-4.75325 c -0.0337,-2.61428 -0.007,-5.16448 0.0588,-5.66711 0.2413,-1.83573 1.75075,-3.05634 3.7874,-3.06267 1.67161,-0.005 2.47911,0.32723 3.4343,1.4138 l 0.84122,0.95692 -0.0561,5.64644 c -0.0549,5.52117 -0.0659,5.66208 -0.49784,6.35094 -0.24295,0.38748 -0.77873,0.90007 -1.19061,1.1391 -0.83472,0.48441 -2.76558,0.71146 -3.70897,0.43615 z m 2.79596,-2.50054 0.55832,-0.32843 v -5.04831 -5.04831 l -0.47349,-0.35292 c -0.56671,-0.42239 -2.71148,-0.34925 -3.19691,0.10903 -0.26241,0.24774 -0.30366,0.95105 -0.30366,5.17813 0,5.19652 0.0133,5.27634 0.94621,5.66652 0.57351,0.23989 1.92671,0.1436 2.46953,-0.17571 z m 6.72217,2.35811 c -0.25858,-0.29415 -0.29738,-1.28493 -0.29738,-7.59413 0,-8.54186 -0.0552,-8.27229 1.67285,-8.16906 1.29701,0.0775 1.11331,-0.26199 3.27315,6.0486 2.05295,5.99828 2.112,5.98404 2.26534,-0.54622 0.0812,-3.46033 0.18482,-4.98536 0.35434,-5.21772 0.28571,-0.3916 1.16092,-0.43299 1.48003,-0.07 0.16791,0.191 0.22709,2.20737 0.22709,7.73745 v 7.47913 l -0.42059,0.33511 c -0.59555,0.47451 -2.27279,0.44815 -2.64785,-0.0416 -0.15867,-0.20719 -0.94985,-2.32968 -1.75817,-4.71663 -0.80833,-2.38695 -1.5347,-4.45957 -1.61415,-4.60582 -0.0795,-0.14625 -0.2808,-0.20639 -0.44743,-0.13366 -0.26479,0.11559 -0.30296,0.71534 -0.30296,4.7597 0,4.35471 -0.0216,4.64058 -0.36604,4.85029 -0.52513,0.3197 -1.07506,0.27494 -1.41823,-0.11543 z m 13.05483,-0.14016 c -0.44166,-0.71728 -0.44166,-14.47097 0,-15.18825 0.28137,-0.45695 0.41765,-0.47844 3.03539,-0.47844 3.19034,0 3.88225,0.2564 4.75985,1.76385 l 0.52063,0.89427 0.0553,5.29044 c 0.0539,5.15284 0.044,5.31564 -0.37848,6.25915 -0.31667,0.70711 -0.66184,1.09951 -1.27819,1.45306 -0.76166,0.43691 -1.11746,0.48435 -3.63215,0.48435 -2.66629,0 -2.80063,-0.0209 -3.08238,-0.47843 z m 6.04102,-2.23867 c 0.26907,-0.30607 0.29993,-0.9724 0.25007,-5.39938 -0.0679,-6.02768 0.0963,-5.66068 -2.53293,-5.66068 -1.41333,0 -1.76301,0.0641 -1.85624,0.3405 -0.0632,0.18728 -0.11486,2.63811 -0.11486,5.44629 0,3.68414 0.0632,5.17771 0.22709,5.3641 0.36795,0.41856 3.64403,0.34466 4.02687,-0.0908 z m 18.648703,2.40043 c -0.35163,-0.48197 -0.20122,-14.97693 0.16056,-15.4726 0.21748,-0.29797 0.66496,-0.35585 2.7512,-0.35585 2.20817,0 2.58722,0.0551 3.33333,0.48436 0.49256,0.2834 1.07843,0.87181 1.41209,1.41824 0.54809,0.89757 0.57009,1.02311 0.56606,3.22902 -0.005,2.52156 -0.1686,3.09384 -1.20898,4.21901 -0.32154,0.34775 -0.58461,0.7238 -0.58461,0.83567 0,0.11187 0.38321,1.16728 0.85158,2.34535 0.46837,1.17807 0.85158,2.30836 0.85158,2.51175 0,0.56479 -0.38918,0.88646 -1.07251,0.88646 -0.60379,0 -0.64631,-0.0646 -1.80725,-2.74467 l -1.18891,-2.74467 -0.9279,-0.067 c -0.61419,-0.0443 -0.98109,0.0285 -1.08524,0.21526 -0.0865,0.15523 -0.15864,1.36862 -0.16024,2.69643 -0.003,2.16461 -0.0407,2.43723 -0.36893,2.63703 -0.5249,0.31955 -1.25299,0.27466 -1.52183,-0.0938 z m 5.69903,-8.27504 c 0.41078,-0.37837 0.44676,-0.5706 0.44676,-2.38697 0,-2.58527 -0.18749,-2.79848 -2.46085,-2.79848 -1.25464,0 -1.59026,0.0679 -1.68221,0.3405 -0.0632,0.18728 -0.11486,1.34492 -0.11486,2.57253 0,2.64841 0.0145,2.66771 2.01337,2.67739 1.05419,0.005 1.44919,-0.0839 1.79779,-0.40497 z m 19.02169,8.19804 c -0.27854,-0.35011 -0.31319,-1.20585 -0.31319,-7.73428 0,-6.38626 0.0387,-7.38459 0.29738,-7.67889 0.24364,-0.27715 0.7993,-0.33764 3.07516,-0.33473 2.53352,0.003 2.8443,0.0464 3.53421,0.49086 0.46159,0.29737 0.94104,0.86236 1.23007,1.44952 0.46945,0.95369 0.47364,1.00881 0.47364,6.23627 0,4.92252 -0.0262,5.3309 -0.39314,6.1266 -0.25646,0.55614 -0.67801,1.0239 -1.21252,1.34543 -0.74642,0.449 -1.0669,0.49289 -3.5989,0.49289 -2.45242,0 -2.81638,-0.0463 -3.09271,-0.39367 z m 6.03239,-2.49268 c 0.25391,-0.4408 0.28997,-1.22694 0.24092,-5.25197 -0.0721,-5.91966 0.0386,-5.68147 -2.60028,-5.59234 l -1.80995,0.0611 -0.0507,5.35505 c -0.0357,3.76995 0.0132,5.44258 0.1651,5.65079 0.15485,0.21224 0.71558,0.29574 1.98603,0.29574 1.66144,0 1.7886,-0.0319 2.06885,-0.5184 z m 14.66015,2.63343 c -0.36428,-0.11776 -0.93919,-0.45308 -1.27757,-0.74516 -1.14531,-0.9886 -1.18256,-1.21686 -1.18256,-7.24722 0,-5.31523 0.0119,-5.48821 0.42579,-6.18362 0.67512,-1.13433 1.84508,-1.71707 3.4361,-1.71147 1.6091,0.006 2.60206,0.45534 3.46003,1.56691 0.78933,1.02264 0.86348,1.70112 0.78323,7.1661 -0.0554,3.77151 -0.11946,4.61288 -0.39523,5.18976 -0.84411,1.76578 -3.17108,2.63663 -5.24979,1.9647 z m 2.82396,-2.42931 c 0.29385,-0.17285 0.58651,-0.53612 0.65036,-0.80725 0.0639,-0.27114 0.11726,-2.45901 0.11868,-4.86195 0.003,-4.35342 9.3e-4,-4.37084 -0.46192,-4.89735 -0.38016,-0.43245 -0.6528,-0.52838 -1.50161,-0.52838 -0.57041,0 -1.25554,0.0945 -1.52253,0.20994 l -0.48542,0.20994 v 5.1454 c 0,3.85631 0.0593,5.20014 0.23655,5.36387 0.56442,0.52126 2.20563,0.613 2.96589,0.16578 z m -60.778953,2.23989 c -0.18214,-0.12367 -0.33117,-0.41864 -0.33117,-0.65548 0,-0.68426 3.35232,-14.39097 3.60406,-14.73602 0.33384,-0.45758 1.935411,-0.4122 2.309758,0.0654 0.16239,0.2072 1.065024,3.62189 2.005858,7.58821 l 1.710617,7.21149 -0.40075,0.38758 c -0.24435,0.23632 -0.6273,0.36234 -0.981257,0.3229 -0.541617,-0.0603 -0.602397,-0.15728 -0.907357,-1.44694 -0.179767,-0.76024 -0.436037,-1.46283 -0.569487,-1.56131 -0.133447,-0.0985 -1.131211,-0.15455 -2.217252,-0.12461 l -1.97463,0.0544 -0.39606,1.50687 c -0.36794,1.39985 -0.43602,1.51063 -0.95861,1.55958 -0.3094,0.029 -0.71157,-0.0485 -0.89372,-0.17214 z m 5.817238,-5.58163 c 0.155247,-0.28574 -0.830507,-4.55556 -1.137328,-4.92636 -0.13406,-0.16201 -0.32544,-0.23712 -0.4253,-0.16692 -0.26554,0.18669 -1.25038,4.56896 -1.11619,4.96676 0.0875,0.25928 0.40007,0.33825 1.33895,0.33825 0.673661,0 1.276598,-0.0953 1.339868,-0.21173 z m 18.594815,5.58163 c -0.18214,-0.12367 -0.33117,-0.36984 -0.33117,-0.54705 0,-0.85669 3.46432,-14.64329 3.74075,-14.88664 0.1681,-0.148 0.70474,-0.26909 1.19251,-0.26909 0.48778,0 0.97306,0.12109 1.07842,0.26909 0.29815,0.41883 3.63808,14.76901 3.51933,15.12101 -0.11437,0.33905 -1.22841,0.65795 -1.65219,0.47296 -0.14377,-0.0628 -0.32253,-0.4851 -0.39726,-0.93854 -0.0747,-0.45344 -0.25145,-1.13927 -0.39272,-1.52407 l -0.25686,-0.69962 h -1.98551 c -1.35488,0 -2.03415,0.0836 -2.13862,0.26315 -0.0842,0.14474 -0.32341,0.84705 -0.53158,1.5607 -0.34297,1.17581 -0.43174,1.30249 -0.9462,1.35024 -0.31225,0.029 -0.71675,-0.0485 -0.8989,-0.17214 z m 5.83843,-5.67229 c 0.10492,-0.31103 -0.78254,-4.35328 -1.07314,-4.88794 -0.1373,-0.25262 -0.20535,-0.24891 -0.43861,0.0239 -0.3409,0.39868 -1.3197,4.43854 -1.17752,4.86002 0.14567,0.43181 2.54375,0.4354 2.68927,0.004 z m 19.37914,5.14958 c -0.24252,-0.72561 -0.0233,-14.32041 0.23699,-14.69571 0.24925,-0.35941 1.1754,-0.34306 1.4443,0.0255 0.15341,0.21028 0.20066,2.41286 0.1651,7.69584 l -0.0498,7.40125 -0.80481,0.0662 c -0.71718,0.059 -0.82516,0.005 -0.99175,-0.49311 z M 23.479647,191.78886 c -0.18116,-0.53703 -0.10821,-91.993317 0.0738,-92.537924 0.13988,-0.418517 6.5015,-6.550773 7.79917,-7.517978 0.42221,-0.314694 2.47383,-0.341792 22.11813,-0.292136 l 21.65276,0.05473 0.0946,1.506878 c 0.0901,1.435113 0.11715,1.506873 0.56772,1.506873 0.44148,0 0.47948,-0.0863 0.56847,-1.291604 0.0524,-0.710386 0.16392,-1.412699 0.24772,-1.560696 0.12077,-0.2133 6.03343,-0.269085 28.520633,-0.269085 27.85323,0 28.37186,0.0076 28.5642,0.416385 0.10775,0.229011 0.19721,0.834453 0.1988,1.345426 0.003,1.115314 0.20381,1.536054 0.68212,1.432634 0.28318,-0.0612 0.3659,-0.29624 0.40526,-1.151334 0.0272,-0.590921 0.0927,-1.292363 0.14553,-1.558757 l 0.0961,-0.484354 h 22.12232 22.12233 l 1.10338,1.127392 c 3.35632,3.429324 5.86177,6.116759 6.06425,6.504726 0.17832,0.34168 0.23135,10.751904 0.23656,46.436384 0.004,25.2978 -0.045,46.14922 -0.10817,46.3365 -0.10449,0.30977 -7.47406,0.34051 -81.63718,0.34051 -74.567973,0 -81.532213,-0.0294 -81.638533,-0.34457 z m 31.04618,-2.0372 c 2.96456,-0.40739 5.98972,-1.54493 8.91752,-3.35322 5.50044,-3.39721 10.07836,-9.69546 12.02603,-16.54527 0.9322,-3.27845 1.16807,-5.10421 1.16807,-9.04127 0,-2.69421 -0.0895,-4.14224 -0.33919,-5.48934 -2.18931,-11.81009 -9.78892,-20.57278 -20.09882,-23.17483 -2.17704,-0.54945 -8.06533,-0.54522 -10.30367,0.007 -2.47764,0.61169 -4.27321,1.33136 -6.53876,2.62073 -6.90722,3.93105 -11.97916,11.45535 -13.52021,20.05746 -1.40527,7.84422 -0.0505,15.58168 3.93021,22.4466 1.30575,2.25184 4.70708,6.16784 6.69518,7.70829 5.37742,4.1666 11.21155,5.70508 18.06364,4.76345 z m -7.78843,-1.85072 c -3.12672,-0.64179 -6.56749,-2.27566 -9.34556,-4.43779 -1.90049,-1.47912 -5.02763,-5.02497 -6.21399,-7.04601 -2.92236,-4.97839 -4.21612,-9.80142 -4.21612,-15.71729 0,-7.46981 2.3773,-13.93602 7.08403,-19.26843 2.02478,-2.29393 3.67676,-3.66746 6.09647,-5.06884 6.93041,-4.01378 15.05952,-3.95272 22.06956,0.16577 2.29324,1.34731 4.24032,3.03403 6.24089,5.40635 3.42921,4.06645 5.42869,8.61503 6.40553,14.57184 0.31605,1.92727 0.31406,6.84414 -0.004,8.93363 -1.17619,7.73649 -5.53405,14.9568 -11.39668,18.88255 -4.17426,2.79518 -7.9251,3.95499 -12.65185,3.91213 -1.40511,-0.0127 -3.23602,-0.163 -4.06868,-0.33391 z m 5.52054,-24.38487 c 1.0182,-0.52588 1.451,-1.29163 1.46794,-2.59723 0.011,-0.84852 -0.0921,-1.18406 -0.57262,-1.86256 -0.70229,-0.99174 -1.67688,-1.43092 -2.54609,-1.14735 -2.52871,0.82497 -3.04986,4.09765 -0.89096,5.59499 0.76948,0.53368 1.52495,0.53729 2.54173,0.0121 z m 112.092633,25.95179 c 3.80073,-0.98898 7.54834,-2.88461 10.22984,-5.17452 5.10466,-4.35919 8.48806,-10.37356 9.87932,-17.56156 0.53078,-2.74229 0.57112,-8.45575 0.0795,-11.25205 -1.07517,-6.11489 -3.38195,-11.02456 -7.20536,-15.33564 -3.77263,-4.25382 -7.68279,-6.63928 -13.11708,-8.0023 -2.07488,-0.52042 -7.87649,-0.52042 -9.95137,0 -5.43392,1.36292 -9.34352,3.74794 -13.11764,8.0023 -3.78551,4.26719 -5.95834,8.76174 -7.12968,14.74793 -0.57466,2.93681 -0.57466,8.90295 0,11.83976 1.76653,9.02793 6.65935,16.26339 13.70043,20.26011 1.8885,1.07196 4.90896,2.20701 6.79155,2.55217 0.78062,0.14312 1.54705,0.295 1.70317,0.33751 0.72664,0.19786 7.01587,-0.12189 8.13736,-0.41371 z m -8.23198,-1.36471 c -10.13432,-1.62343 -18.50685,-10.48907 -20.51955,-21.72809 -0.67778,-3.78477 -0.50297,-9.05359 0.42799,-12.89969 3.21303,-13.27402 14.83384,-21.8334 26.85423,-19.77966 10.03739,1.71494 18.13491,10.6363 20.13386,22.1823 0.49302,2.84766 0.44014,7.70543 -0.11462,10.53087 -1.11502,5.67881 -3.30607,10.11552 -6.99157,14.1574 -3.56605,3.91088 -7.86658,6.42138 -12.59919,7.35497 -1.57935,0.31155 -5.72687,0.41647 -7.19115,0.1819 z m 4.40739,-24.57991 c 0.88803,-0.51863 1.36466,-1.44022 1.36375,-2.63692 -10e-4,-1.74796 -1.05063,-3.00823 -2.5258,-3.0336 -1.08376,-0.0186 -2.01205,0.59243 -2.45514,1.61615 -0.29884,0.69045 -0.31682,0.9534 -0.13377,1.95643 0.39297,2.15327 2.05986,3.08558 3.75096,2.09794 z m -29.14904,12.04836 c 0.0385,-9.57646 -0.002,-12.18525 -0.18924,-12.32081 -0.13098,-0.0946 -5.06177,-0.17346 -10.95731,-0.17528 -8.40502,-0.003 -10.73792,0.0548 -10.80597,0.26579 -0.0477,0.148 -0.0356,2.49712 0.0271,5.22026 l 0.11386,4.95117 10.69211,0.11212 c 5.88066,0.0617 10.7134,0.13432 10.73942,0.16145 0.38895,0.40556 -0.65275,0.47987 -6.72751,0.47987 -5.01699,0 -6.83375,0.067 -7.00192,0.25832 -0.14335,0.16307 -0.22709,0.98067 -0.22709,2.21726 0,1.2366 -0.0837,2.0542 -0.22708,2.21727 -0.28433,0.32343 -3.61795,0.35201 -4.1379,0.0355 -0.31977,-0.19468 -0.36604,-0.46485 -0.36604,-2.13731 0,-1.45624 -0.0714,-1.99572 -0.29842,-2.25393 -0.2679,-0.30474 -1.97603,-0.33384 -16.700483,-0.28446 l -16.40208,0.055 -0.0502,6.4557 c -0.0276,3.55063 -0.009,6.57818 0.0416,6.72789 0.0735,0.21796 5.30543,0.26132 26.260033,0.21762 l 26.16823,-0.0546 z m -49.393433,9.65601 c -0.26531,-0.17579 -0.33117,-0.51802 -0.33117,-1.72093 0,-1.4137 0.0284,-1.51379 0.48542,-1.71145 0.52387,-0.22657 11.95803,-0.29931 12.4621,-0.0793 0.23457,0.1024 0.29934,0.46572 0.29934,1.6791 0,0.9173 -0.0926,1.65371 -0.22709,1.80675 -0.29382,0.33423 -12.18658,0.35842 -12.6886,0.0258 z m 30.396183,-0.33898 c -0.25982,-1.17759 0.78401,-1.83876 1.35044,-0.85538 0.42623,0.73997 0.10519,1.42687 -0.66689,1.42687 -0.44546,0 -0.58279,-0.11482 -0.68355,-0.57149 z m 4.67705,0.10091 c -0.3273,-0.9612 0.73858,-1.92482 1.29122,-1.16734 0.12852,0.17615 0.20623,0.59252 0.17269,0.92528 -0.0512,0.50806 -0.1598,0.61583 -0.67764,0.6726 -0.49871,0.0547 -0.64909,-0.0277 -0.78627,-0.43054 z m 11.56416,-16.33146 c -0.38313,-0.17484 -0.42922,-0.32392 -0.37848,-1.22414 l 0.0578,-1.02506 h 0.9462 0.9462 l 0.0577,1.02335 c 0.0526,0.93323 0.014,1.04224 -0.43811,1.23779 -0.57899,0.25041 -0.61726,0.25003 -1.19129,-0.0119 z m -17.33214,-0.3294 c -0.25608,-0.75909 -0.0619,-2.02744 0.3103,-2.02744 0.1075,0 0.3061,0.16953 0.44133,0.37672 0.20676,0.31676 0.30756,0.33389 0.63333,0.10764 0.48334,-0.33569 0.9064,-0.34539 1.00088,-0.023 0.0533,0.18193 0.1847,0.1776 0.50366,-0.0166 0.67557,-0.41128 1.0019,-0.1412 0.93389,0.77289 l -0.0588,0.79063 -1.02919,0.058 c -0.56605,0.0319 -1.198,-0.0447 -1.40432,-0.17036 -0.29185,-0.17767 -0.42512,-0.15063 -0.60023,0.12177 -0.28522,0.44372 -0.58308,0.44765 -0.73083,0.01 z m 7.87109,0.0822 c -0.1249,-0.14208 -0.22709,-0.55862 -0.22709,-0.92565 0,-0.82501 0.29634,-1.18398 0.9774,-1.18398 0.57232,0 0.91501,0.50263 0.91501,1.34204 0,0.66344 -0.33431,1.02591 -0.9462,1.02591 -0.27062,0 -0.59422,-0.11624 -0.71912,-0.25832 z m 4.88405,-0.0623 c -0.16729,-0.2293 -0.32567,-0.25823 -0.57679,-0.10535 -0.69815,0.42503 -0.93877,0.2616 -0.93877,-0.63762 0,-0.46661 0.0639,-0.89284 0.14193,-0.94719 0.0781,-0.0543 0.73804,-0.0278 1.46662,0.0591 1.09656,0.13069 1.36542,0.0992 1.56123,-0.18297 0.21333,-0.30739 0.26442,-0.29983 0.52042,0.077 0.45729,0.67317 0.32266,2.05772 -0.20009,2.05772 -0.13981,0 -0.33787,-0.16952 -0.44012,-0.37672 -0.17677,-0.35817 -0.21343,-0.35829 -0.74486,-0.002 -0.48884,0.32747 -0.58788,0.33479 -0.78957,0.0583 z m -7.19279,-0.86331 c 0,-0.86454 0.0463,-0.96871 0.431,-0.96871 0.5304,0 1.27217,0.56483 1.27217,0.96871 0,0.40388 -0.74177,0.9687 -1.27217,0.9687 -0.38465,0 -0.431,-0.10416 -0.431,-0.9687 z M 73.690487,185.3235 c 0.50816,-0.73487 0.49443,-1.05823 -0.0723,-1.7029 -0.60994,-0.69383 -1.29632,-0.67897 -1.79266,0.0388 -0.49319,0.71322 -0.49729,1.25069 -0.0137,1.80075 0.54455,0.61944 1.39881,0.55729 1.87868,-0.13667 z m -1.67306,-0.25907 c -0.43748,-0.92986 0.52441,-1.97713 1.21615,-1.32409 0.33886,0.31992 0.36803,1.10464 0.0543,1.46151 -0.34137,0.38831 -1.05968,0.31062 -1.27047,-0.13742 z m 44.455203,-8.75316 c 0,-0.53605 -0.007,-0.53817 -1.78662,-0.53817 -1.7815,0 -2.13645,0.14073 -1.92628,0.76374 0.082,0.24303 0.50687,0.3126 1.90917,0.3126 1.79782,0 1.80373,-0.002 1.80373,-0.53817 z m -7.6617,-3.17521 c 0.0574,-0.2664 0.0803,-2.61551 0.0509,-5.22026 l -0.0535,-4.7359 -1.68717,-0.0627 c -1.94668,-0.0724 -1.99588,-0.0326 -2.00013,1.61584 -0.002,0.88746 -0.0796,1.16926 -0.36894,1.34543 -0.23951,0.14581 -3.93985,0.22284 -10.704533,0.22284 -6.7647,0 -10.46504,-0.077 -10.70455,-0.22284 -0.29177,-0.17763 -0.36604,-0.45619 -0.36604,-1.37289 0,-0.72516 -0.0982,-1.24279 -0.26592,-1.40109 -0.16688,-0.15755 -0.81883,-0.22749 -1.75048,-0.18781 l -1.48455,0.0632 -0.0535,4.7359 c -0.0294,2.60475 -0.006,4.95386 0.0509,5.22026 l 0.10438,0.48435 h 14.56434 14.564323 z m 18.44843,-17.07795 c 0,-0.67437 -0.44442,-0.60056 -0.53357,0.0886 -0.0402,0.31046 0.0393,0.46749 0.23655,0.46749 0.19322,0 0.29702,-0.19435 0.29702,-0.55611 z m -18.55315,-3.63128 c 0.12542,-0.17191 0.19855,-0.48674 0.16251,-0.69962 -0.0624,-0.3686 -0.7649,-0.38706 -14.726493,-0.38706 -13.9616,0 -14.6641,0.0185 -14.72651,0.38706 -0.17622,1.04091 -0.59414,1.01218 14.72651,1.01218 12.301393,0 14.368313,-0.0444 14.563983,-0.31256 z m 22.38811,0.01 c 0.2222,-0.25275 0.28695,-3.03116 0.39011,-16.73712 0.11378,-15.11723 0.0637,-17.76224 -0.34484,-18.22706 -0.0698,-0.0794 -11.84895,-0.1444 -26.17588,-0.1444 H 78.914777 l -0.13572,0.86108 c -0.19693,1.24939 0.0608,33.15238 0.26444,32.73836 0.15148,-0.30789 2.64876,-0.34049 26.084083,-0.34049 15.08158,0 25.9166,0.0804 25.9166,0.19224 0,0.10573 -0.1347,0.25103 -0.29934,0.3229 -0.16464,0.0719 -5.00873,0.13067 -10.76466,0.13067 -10.03949,0 -10.46906,0.0163 -10.55726,0.39996 -0.0506,0.21998 -0.0137,0.55903 0.0819,0.75344 0.15803,0.32122 1.13909,0.35348 10.74847,0.35348 8.8396,0 10.61827,-0.0497 10.84098,-0.30306 z m -49.394673,-3.28381 c -0.32814,-0.15062 -0.33687,-6.33053 -0.009,-6.70296 0.37745,-0.42936 1.6216,-0.32294 1.8479,0.15806 0.28277,0.60103 0.25608,6.10237 -0.0312,6.42915 -0.22408,0.25489 -1.34737,0.32684 -1.80725,0.11575 z m 1.24094,-2.81923 c 0.0544,-0.85312 0.0264,-0.91303 -0.42579,-0.91303 -0.43498,0 -0.48398,0.0836 -0.48398,0.8252 0,0.91863 0.12527,1.15728 0.55849,1.06398 0.19805,-0.0426 0.31196,-0.3592 0.35128,-0.97615 z m 4.04834,2.70348 c -0.31645,-0.35997 -0.31645,-6.22724 0,-6.58721 0.27664,-0.31469 1.59662,-0.34366 1.76232,-0.0387 0.19941,0.36702 0.23369,6.32495 0.0381,6.61511 -0.23132,0.34312 -1.50154,0.35072 -1.80039,0.0108 z m 1.19222,-2.65075 c 0,-0.72601 -0.0656,-0.86872 -0.42579,-0.92691 -0.37917,-0.0613 -0.4258,0.0232 -0.4258,0.77137 0,0.93357 0.12408,1.17304 0.5585,1.07787 0.20617,-0.0452 0.29309,-0.31869 0.29309,-0.92233 z m 4.10652,2.65075 c -0.31644,-0.35997 -0.31644,-6.22724 0,-6.58721 0.3691,-0.41986 1.62122,-0.32375 1.83999,0.14124 0.2586,0.54966 0.0445,6.32986 -0.24226,6.53954 -0.34131,0.2496 -1.34787,0.19065 -1.59773,-0.0936 z m 1.12011,-1.84055 c 0.0349,-0.25035 0.0382,-0.98101 0.006,-1.41421 -0.0203,-0.27628 -0.15427,-0.37143 -0.4546,-0.3229 -0.72789,0.11759 -0.57301,1.89856 0.1651,1.89856 0.14338,0 0.27082,-0.0727 0.2832,-0.16145 z m 32.274573,1.95536 c -0.0694,-0.0789 -0.12616,-1.6185 -0.12616,-3.42126 0,-3.60105 -0.0211,-3.53908 1.2077,-3.53908 0.997,0 1.06319,0.22115 1.06319,3.55192 0,2.07375 -0.0719,3.11712 -0.22709,3.29361 -0.23937,0.27229 -1.7022,0.35987 -1.91764,0.11481 z m 1.35134,-2.81829 c 0.0544,-0.85312 0.0264,-0.91303 -0.42579,-0.91303 -0.43498,0 -0.48398,0.0836 -0.48398,0.8252 0,0.91863 0.12526,1.15728 0.55849,1.06398 0.19804,-0.0426 0.31196,-0.3592 0.35128,-0.97615 z m -17.94145,2.24095 c 0,-0.0666 0.21289,-0.47797 0.4731,-0.91414 0.60537,-1.01476 0.6083,-1.89035 0.009,-2.57253 -1.16368,-1.32373 -3.01967,0.0297 -2.55704,1.86459 0.24225,0.96085 0.09,1.02628 -0.37389,0.16071 -1.01011,-1.88472 0.21566,-4.06953 2.12015,-3.77895 1.74755,0.26663 2.54385,2.76341 1.3571,4.25512 -0.16948,0.21302 -0.25219,0.49028 -0.18381,0.61614 0.0684,0.12586 0.0411,0.22884 -0.0606,0.22884 -0.10171,0 -0.31964,0.0588 -0.48427,0.13066 -0.16464,0.0719 -0.29934,0.0762 -0.29934,0.01 z m -10.743388,-0.71539 c -0.39593,-0.18121 -0.800287,-1.2848 -0.800287,-2.18415 0,-2.24887 2.719805,-3.20387 3.971085,-1.39435 0.44588,0.64482 0.51378,2.32224 0.118,2.91532 -0.38833,0.58193 -0.45837,0.46427 -0.42749,-0.71821 0.0238,-0.91321 -0.0456,-1.1633 -0.41817,-1.50688 -0.65857,-0.60725 -1.645804,-0.53687 -2.211641,0.15766 -0.534517,0.65609 -0.572837,1.08552 -0.189857,2.12816 0.150807,0.41059 0.257257,0.73888 0.236547,0.72953 -0.0207,-0.009 -0.1459,-0.0665 -0.278187,-0.12708 z m 20.295188,-0.49103 c 0.41525,-0.91344 0.35653,-1.67527 -0.17578,-2.2808 -1.11781,-1.27155 -2.91807,-0.10323 -2.61547,1.69738 0.1104,0.65699 0.0132,0.71294 -0.40747,0.23445 -0.71952,-0.81849 -0.1437,-2.93119 0.93918,-3.44588 0.87401,-0.41541 1.3929,-0.38377 2.13386,0.13011 1.1677,0.80985 1.43025,2.5174 0.57682,3.75157 -0.51727,0.74805 -0.80546,0.69258 -0.45114,-0.0868 z m -36.953853,-9.31028 c -0.31645,-0.35997 -0.31645,-6.22724 0,-6.58721 0.12489,-0.14208 0.53366,-0.25832 0.90835,-0.25832 0.3747,0 0.78346,0.11624 0.90836,0.25832 0.15515,0.17649 0.22709,1.21985 0.22709,3.2936 0,2.07375 -0.0719,3.11712 -0.22709,3.29361 -0.1249,0.14207 -0.53366,0.25832 -0.90836,0.25832 -0.37469,0 -0.78346,-0.11625 -0.90835,-0.25832 z m 1.2504,-2.70348 c 0.0544,-0.85312 0.0264,-0.91303 -0.42579,-0.91303 -0.43498,0 -0.48398,0.0835 -0.48398,0.82519 0,0.91864 0.12527,1.15729 0.55849,1.06399 0.19805,-0.0426 0.31196,-0.3592 0.35128,-0.97615 z m 32.785433,2.11333 c -0.52326,-0.6372 -0.95444,-1.80989 -0.95444,-2.59582 0,-2.06212 1.77754,-4.08065 3.59346,-4.08065 2.8373,0 4.58198,4.09826 2.72088,6.39135 -0.3746,0.46155 -0.45232,0.49862 -0.34569,0.16488 0.30877,-0.9664 0.31733,-2.83258 0.016,-3.49536 -0.64845,-1.42645 -2.73531,-1.94361 -3.88902,-0.96377 -1.29866,1.10295 -1.59781,2.70215 -0.795,4.24996 0.54127,1.04355 0.37227,1.20434 -0.34622,0.32941 z m 10.14488,0.36258 c -0.28693,-0.23867 -0.31914,-0.65178 -0.27272,-3.49811 l 0.0526,-3.22749 0.9279,-0.067 c 0.61419,-0.0443 0.98109,0.0285 1.08524,0.21527 0.0865,0.15523 0.15864,1.70071 0.16024,3.4344 0.002,2.67779 -0.0422,3.17184 -0.29645,3.28284 -0.49598,0.21651 -1.31106,0.14766 -1.65684,-0.13995 z m 1.16279,-2.69118 c 0.0544,-0.85311 0.0264,-0.91303 -0.42579,-0.91303 -0.43498,0 -0.48398,0.0836 -0.48398,0.8252 0,0.91863 0.12526,1.15728 0.55849,1.06398 0.19804,-0.0426 0.31196,-0.3592 0.35128,-0.97615 z m -37.791073,1.27263 c -0.52567,-0.83976 -0.53892,-2.35597 -0.0271,-3.0962 0.85235,-1.23262 2.38981,-1.2963 3.40538,-0.14106 0.81728,0.92968 0.81588,2.25907 -0.003,3.2547 l -0.5785,0.70302 0.29464,-0.68893 c 0.55682,-1.30195 0.28855,-2.27743 -0.76389,-2.77765 -0.57242,-0.27207 -0.71772,-0.26867 -1.22304,0.0286 -0.81827,0.48134 -1.05206,1.17794 -0.76328,2.27435 0.29217,1.10932 0.17308,1.26418 -0.34083,0.44319 z m 17.355363,-0.0868 c -0.67457,-1.07655 -0.60457,-2.33276 0.1797,-3.22489 0.53563,-0.6093 0.74713,-0.70376 1.57578,-0.70376 0.86354,0 1.02043,0.0786 1.6049,0.8041 0.76155,0.94528 0.84494,1.83922 0.2714,2.90928 -0.20625,0.38479 -0.40454,0.69962 -0.44066,0.69962 -0.0361,0 -0.0279,-0.51733 0.0181,-1.14962 0.0767,-1.05181 0.0396,-1.18918 -0.43574,-1.61452 -1.48428,-1.32811 -3.34377,0.73368 -2.25557,2.50097 0.16203,0.26314 0.2104,0.47844 0.10751,0.47844 -0.1029,0 -0.38436,-0.31483 -0.62547,-0.69962 z m -8.660028,-0.19099 c -1.080674,-2.01639 0.27968,-4.19466 2.344418,-3.75403 1.48855,0.31766 2.16389,2.62398 1.15168,3.93301 l -0.46704,0.60399 0.18318,-0.75201 c 0.2753,-1.13023 0.22785,-1.47705 -0.28133,-2.05626 -1.183107,-1.34583 -3.026065,-0.075 -2.576598,1.77678 0.254087,1.04681 0.122857,1.13886 -0.35431,0.24852 z m -11.547935,-9.21285 c -0.2089,-0.44401 -0.28007,-7.90961 -0.081,-8.49964 0.1034,-0.30653 1.61021,-0.34051 15.101393,-0.34051 11.40389,0 15.04084,0.0618 15.21364,0.25832 0.32042,0.36449 0.32042,8.37541 0,8.73989 -0.17278,0.19655 -3.79174,0.25833 -15.13261,0.25833 -14.542943,0 -14.910263,-0.0101 -15.101393,-0.41639 z m 3.63622,-1.67973 c -0.54643,-0.0435 -1.44059,-0.0435 -1.98702,0 -0.54644,0.0435 -0.0993,0.0791 0.99351,0.0791 1.09287,0 1.53995,-0.0356 0.99351,-0.0791 z m 7.333088,-0.0439 c 0,-0.11141 -0.0852,-0.26243 -0.189237,-0.33561 -0.10409,-0.0732 -0.18924,-0.0305 -0.18924,0.0949 0,0.37045 -1.821811,0.27754 -2.162761,-0.1103 -0.27034,-0.30753 -0.29738,-0.30753 -0.29738,0 0,0.50573 -0.6682,0.40854 -1.00435,-0.14608 l -0.29356,-0.48435 0.10331,0.48435 c 0.14752,0.69168 -0.43354,0.63765 -1.15759,-0.10763 -0.31632,-0.3256 -0.42743,-0.39062 -0.24691,-0.1445 0.40961,0.55846 0.41392,0.73648 0.0178,0.73648 -0.1707,0 -1.14077,-0.92806 -2.1557,-2.06235 -1.01493,-1.13429 -1.89147,-1.97743 -1.94786,-1.87364 -0.0564,0.1038 0.69428,1.0231 1.66816,2.0429 0.97389,1.0198 1.72042,1.91137 1.65897,1.98127 -0.0615,0.0699 1.30758,0.12709 3.04229,0.12709 1.84464,0 3.154008,-0.0841 3.154008,-0.20256 z m 10.360915,0.0418 c -1.90078,-0.0583 -2.22358,-0.11891 -2.22358,-0.41761 0,-0.31122 -0.0406,-0.30761 -0.37143,0.0329 -0.4001,0.41188 -1.05617,0.29494 -0.85659,-0.15268 0.0663,-0.14883 -0.002,-0.10108 -0.1508,0.10611 -0.33943,0.47107 -0.81999,0.485 -1.04371,0.0303 -0.15666,-0.31844 -0.1799,-0.31844 -0.28733,0 -0.0643,0.19055 -0.28986,0.34646 -0.50129,0.34646 -0.30296,0 -0.38917,-0.14826 -0.40681,-0.69962 l -0.0224,-0.69962 -0.12076,0.64581 c -0.0845,0.45201 -0.24817,0.66644 -0.54533,0.71459 -0.23631,0.0383 -0.42458,-0.045 -0.42458,-0.18781 0,-0.17531 -0.0749,-0.18916 -0.23655,-0.0437 -0.1301,0.1171 -0.646607,0.21717 -1.147794,0.22239 -0.761037,0.008 -0.938427,-0.0672 -1.076134,-0.45562 -0.16287,-0.45941 -0.16504,-0.45961 -0.17688,-0.0166 -0.007,0.24666 0.0448,0.51306 0.11416,0.59199 0.0694,0.0789 2.730578,0.12268 5.913768,0.0972 3.18319,-0.0255 4.787,-0.077 3.56403,-0.11446 z m 6.91594,10e-4 c -0.74984,-0.0408 -2.02721,-0.041 -2.83861,-5.5e-4 -0.8114,0.0404 -0.19789,0.0738 1.36335,0.0741 1.56123,3e-4 2.2251,-0.0328 1.47526,-0.0735 z m -15.254014,-1.72396 c -0.0476,-0.20719 -0.0865,-0.0377 -0.0865,0.37672 0,0.4144 0.0389,0.58392 0.0865,0.37672 0.0476,-0.20719 0.0476,-0.54624 0,-0.75344 z m 3.898504,0.37643 c 0.0545,-0.23696 0.0218,-0.37655 -0.0726,-0.3102 -0.0944,0.0663 -0.17159,0.26022 -0.17159,0.43083 0,0.44555 0.12859,0.38202 0.24414,-0.12063 z m 2.59447,-0.0251 c 0,-0.1184 -0.0851,-0.1554 -0.18924,-0.0822 -0.10408,0.0732 -0.18924,0.22991 -0.18924,0.34831 0,0.1184 0.0852,0.1554 0.18924,0.0822 0.10409,-0.0732 0.18924,-0.22992 0.18924,-0.34831 z m -7.818828,-0.23023 c -0.0604,-0.17172 -0.10525,-0.12071 -0.11433,0.13006 -0.008,0.22693 0.0365,0.35407 0.0994,0.28254 0.0629,-0.0715 0.0696,-0.2572 0.0149,-0.4126 z m -0.189237,-0.86107 c -0.0604,-0.17173 -0.10525,-0.12072 -0.11433,0.13006 -0.008,0.22693 0.0365,0.35407 0.0994,0.28254 0.0629,-0.0715 0.0696,-0.2572 0.0149,-0.4126 z m 4.165155,-0.33226 c -0.048,-0.20945 -0.0904,-0.0902 -0.0943,0.26499 -0.004,0.35519 0.0354,0.52656 0.0872,0.38082 0.0518,-0.14575 0.055,-0.43636 0.007,-0.64581 z m -2.840474,0.11699 c -0.0604,-0.17172 -0.10525,-0.12072 -0.11433,0.13006 -0.008,0.22693 0.0365,0.35407 0.0994,0.28254 0.0629,-0.0715 0.0696,-0.2572 0.0149,-0.4126 z m 27.774064,4.02283 c 0.56354,-1.55719 0.7283,-2.70463 0.50831,-3.53989 -0.78083,-2.96464 -3.77905,-3.81112 -5.86267,-1.65519 -0.98447,1.01864 -1.24833,2.75006 -0.69328,4.54927 0.24305,0.78787 0.24051,0.82447 -0.0299,0.43054 -0.16252,-0.2368 -0.50584,-0.94136 -0.76293,-1.56571 -0.52233,-1.26847 -0.48388,-2.31983 0.13572,-3.71118 0.81832,-1.83758 2.03219,-2.67447 3.89063,-2.68236 1.16451,-0.005 1.46011,0.0791 2.26252,0.64345 1.85702,1.30602 2.49944,4.00175 1.49828,6.28713 -0.49068,1.12009 -1.2747,2.15027 -0.94671,1.24394 z m -86.982443,-1.86912 c 0.0418,-0.41153 -0.0569,-0.64784 -0.34327,-0.8222 -0.50103,-0.30502 -0.94545,0.0449 -0.94545,0.74438 0,0.6309 0.17188,0.7957 0.74988,0.71903 0.36253,-0.0481 0.49456,-0.20521 0.53884,-0.64121 z m 12.98545,-6.75699 c 0.26014,-0.29592 0.29738,-1.38573 0.29738,-8.70299 0,-7.31725 -0.0372,-8.40707 -0.29738,-8.70299 -0.26486,-0.30129 -1.79433,-0.33827 -13.98835,-0.33827 -7.53003,0 -13.82567,0.0588 -13.9903,0.13066 -0.26618,0.11619 -0.29934,1.1019 -0.29934,8.89776 0,4.8219 0.0568,8.83167 0.12616,8.9106 0.0694,0.0789 6.36503,0.14351 13.99031,0.14351 12.35144,0 13.89659,-0.0369 14.16152,-0.33828 z m -14.36879,-0.95333 -10.40824,-0.10763 v -7.64203 -7.64202 h 10.6921 10.69211 l 0.0497,7.57916 c 0.0463,7.06273 0.027,7.59078 -0.28386,7.74966 -0.18347,0.0938 -5.01729,0.12206 -10.74183,0.0629 z m 146.646173,1.16094 c 0.26618,-0.11619 0.29934,-1.10303 0.29934,-8.9106 0,-7.80757 -0.0332,-8.7944 -0.29934,-8.9106 -0.46944,-0.20492 -27.58291,-0.14626 -27.86945,0.0603 -0.38976,0.28096 -0.40214,17.4113 -0.0128,17.69163 0.29682,0.21371 27.3971,0.28105 27.88224,0.0693 z m -24.55274,-1.30268 c -0.18164,-0.20662 -0.15341,-14.76299 0.0293,-15.09032 0.11916,-0.21352 2.39363,-0.25912 10.73652,-0.21526 l 10.58533,0.0556 v 7.64202 7.64203 l -10.6117,0.0556 c -5.83643,0.0306 -10.66917,-0.01 -10.73942,-0.0897 z M 81.190597,85.719385 c -0.29322,-0.243894 -0.33313,-0.610443 -0.30816,-2.830221 0.0158,-1.402522 0.0728,-2.631134 0.1266,-2.73025 0.0539,-0.09912 10.95058,-0.180211 24.214933,-0.180211 h 24.11704 l 0.003,2.098866 c 0.001,1.154376 0.0519,2.307868 0.11212,2.563316 0.0724,0.306946 -0.0238,0.616078 -0.28352,0.911566 l -0.39306,0.447114 H 105.1537 c -19.100953,0 -23.690353,-0.05366 -23.962683,-0.28018 z M 57.786237,66.76562 c -1.01974,-0.414533 -1.78663,-1.111843 -2.13119,-1.937805 -0.25731,-0.616819 -0.30719,-1.588061 -0.30719,-5.981294 0,-6.18348 0.043,-6.3688 1.70257,-7.33704 1.83454,-1.07033 4.21148,-0.71527 5.55814,0.83026 0.29846,0.34254 0.6178,0.84706 0.70965,1.12116 0.22839,0.68158 0.21213,9.873613 -0.0191,10.790683 -0.538,2.133919 -3.32334,3.404112 -5.51289,2.514036 z m 3.1187,-2.517123 0.49863,-0.446161 -0.003,-4.774095 c -0.002,-2.62575 -0.0655,-4.88068 -0.14193,-5.01095 -0.42015,-0.71576 -2.35787,-0.99481 -3.34723,-0.48203 l -0.482,0.24982 v 5.14228 5.142276 l 0.61503,0.304084 c 0.93686,0.463203 2.26791,0.404932 2.8604,-0.125224 z m 6.36963,2.497435 c -0.35163,-0.481967 -0.20122,-14.976931 0.16056,-15.472601 0.21748,-0.29797 0.66496,-0.35584 2.75121,-0.35584 2.20816,0 2.58721,0.0551 3.33332,0.48435 0.49257,0.2834 1.07844,0.87182 1.4121,1.41824 0.54808,0.89758 0.57009,1.02312 0.56606,3.22902 -0.005,2.52156 -0.1686,3.09385 -1.20898,4.21901 -0.32154,0.34775 -0.58462,0.7238 -0.58462,0.83567 0,0.111871 0.38321,1.167279 0.85159,2.345351 0.46837,1.178072 0.85158,2.308362 0.85158,2.511757 0,0.564784 -0.38919,0.886451 -1.07252,0.886451 -0.60379,0 -0.6463,-0.06456 -1.80725,-2.74467 l -1.18891,-2.74467 -0.92789,-0.06696 c -0.61419,-0.04432 -0.9811,0.02846 -1.08524,0.215269 -0.0865,0.155225 -0.15865,1.368614 -0.16024,2.696421 -0.003,2.164619 -0.0407,2.437231 -0.36894,2.637036 -0.52489,0.31955 -1.25298,0.274657 -1.52183,-0.09383 z m 5.69903,-8.275031 c 0.41078,-0.37838 0.44676,-0.57061 0.44676,-2.38697 0,-2.58528 -0.18749,-2.79849 -2.46085,-2.79849 -1.25463,0 -1.59025,0.0679 -1.6822,0.34051 -0.0632,0.18728 -0.11487,1.34491 -0.11487,2.57252 0,2.64842 0.0145,2.66771 2.01338,2.6774 1.05419,0.005 1.44919,-0.0839 1.79778,-0.40497 z m 7.05121,8.429775 c -0.62932,-0.486511 -0.66782,-1.08292 -0.53559,-8.297865 0.0762,-4.15877 0.20945,-7.25966 0.31864,-7.41624 0.26038,-0.37337 6.39949,-0.38319 6.72689,-0.0108 0.25117,0.28571 0.29908,1.21877 0.0823,1.60182 -0.0874,0.15434 -0.99473,0.27434 -2.4415,0.3229 -1.26636,0.0425 -2.37342,0.158 -2.46013,0.25667 -0.20533,0.23362 -0.20559,3.92783 -2.9e-4,4.16185 0.0865,0.0987 0.95987,0.21298 1.9407,0.25403 1.70082,0.0712 1.78862,0.0986 1.89749,0.59198 0.0628,0.28455 0.0607,0.75953 -0.005,1.05553 -0.11524,0.5223 -0.16746,0.53826 -1.771,0.54146 -0.90873,0.002 -1.77919,0.0946 -1.93434,0.20618 -0.35924,0.25836 -0.51882,3.399132 -0.20645,4.063086 0.19447,0.413345 0.40065,0.455097 2.52119,0.510568 2.20808,0.05776 2.31909,0.08254 2.53012,0.564802 0.12567,0.287175 0.16288,0.750702 0.0864,1.076341 l -0.13429,0.571949 -3.20366,0.05334 c -1.762,0.02933 -3.29735,-0.0191 -3.41187,-0.107634 z m 22.358863,-0.256687 c -0.27542,-0.346191 -0.32142,-0.731191 -0.26588,-2.225184 0.0591,-1.588705 0.13562,-1.919367 0.63488,-2.741975 0.32874,-0.541649 1.45236,-1.680819 2.66925,-2.706169 2.55544,-2.15325 2.91336,-2.63085 2.91336,-3.88764 0,-0.83008 -0.0736,-0.99538 -0.61504,-1.38219 -0.80046,-0.57182 -2.22854,-0.4721 -2.85698,0.19949 -0.2375,0.2538 -0.61793,0.46146 -0.84541,0.46146 -0.45446,0 -1.17056,-0.69847 -1.17056,-1.14175 0,-0.48126 1.19285,-1.62293 2.05884,-1.97048 2.78421,-1.11744 5.4926,0.81373 5.50664,3.9264 0.009,1.94856 -0.9904,3.41332 -4.06973,5.96607 -1.97295,1.635558 -2.17106,1.893085 -2.17106,2.822132 0,0.782698 0.62279,0.945773 3.61195,0.945773 2.63354,0 2.64173,0.0015 2.85667,0.538171 0.16125,0.402586 0.16125,0.673755 0,1.076341 l -0.21556,0.538171 h -3.85417 c -3.57725,0 -3.87809,-0.03008 -4.1872,-0.41862 z m 14.96991,0.104619 c -0.8315,-0.337247 -1.55378,-1.03795 -1.93975,-1.881809 -0.34247,-0.748735 -0.38913,-10.906238 -0.0535,-11.649328 0.42416,-0.93915 1.21157,-1.67103 2.13254,-1.98214 1.80708,-0.61045 3.45802,-0.31564 4.59575,0.8207 1.13213,1.13074 1.19718,1.51152 1.19255,6.98092 -0.004,4.296565 -0.0472,5.010966 -0.35176,5.765341 -0.41345,1.024207 -0.83548,1.483181 -1.77389,1.929204 -0.85602,0.406858 -2.81919,0.415694 -3.80192,0.01711 z m 2.51803,-2.072266 c 0.58427,-0.142537 1.03048,-0.388745 1.14476,-0.631653 0.10733,-0.228127 0.18728,-2.427288 0.18728,-5.151288 v -4.75322 l -0.61503,-0.42656 c -0.74039,-0.51351 -2.01985,-0.55908 -2.8007,-0.0998 l -0.55832,0.32843 v 5.02691 c 0,5.448363 -0.0189,5.348015 1.07603,5.721877 0.29288,0.100006 0.54961,0.190155 0.57051,0.200332 0.0209,0.01018 0.46886,-0.08661 0.99547,-0.215081 z m 7.71892,2.153756 c -0.20749,-0.137473 -0.33009,-0.476713 -0.32827,-0.908344 0.004,-1.05202 0.20986,-1.263866 1.1513,-1.187244 0.81641,0.06645 0.834,0.084 0.89235,0.890061 0.0327,0.452254 -0.0416,0.960825 -0.1651,1.130158 -0.25936,0.355492 -1.06814,0.394811 -1.55028,0.07537 z m 10.58116,-0.08591 c -0.23448,-0.266732 -0.31558,-0.752552 -0.31774,-1.903458 -0.002,-0.849926 -0.0775,-1.679357 -0.16873,-1.843181 -0.11588,-0.208128 -0.72787,-0.328488 -2.03144,-0.399521 -2.17932,-0.118753 -2.33871,-0.248049 -2.33871,-1.89718 0,-1.06157 0.11053,-1.30598 2.39101,-5.28674 1.31506,-2.29555 2.48599,-4.24489 2.60206,-4.33187 0.37352,-0.27991 0.86364,-0.17585 1.25188,0.26578 0.35257,0.40107 0.37848,0.71756 0.37848,4.62417 0,4.65538 -0.11528,4.23474 1.22335,4.46401 0.49017,0.084 0.82355,1.311734 0.48294,1.778589 -0.13129,0.179952 -0.43421,0.327185 -0.67316,0.327185 -0.95656,0 -1.03295,0.148505 -1.03603,2.014263 -0.002,0.964112 -0.0697,1.872561 -0.15134,2.018776 -0.25872,0.463352 -1.26148,0.568553 -1.61257,0.169177 z m -0.62525,-6.6291 c 0.26915,-0.22387 0.3192,-0.54669 0.27272,-1.75881 -0.0313,-0.81653 -0.14209,-1.51436 -0.24617,-1.55073 -0.22182,-0.0775 -1.79779,2.57473 -1.79779,3.02554 0,0.565 1.20176,0.75768 1.77124,0.284 z m 10.55625,6.48279 c -0.91684,-0.516241 -1.96532,-1.980871 -1.87993,-2.626101 0.0304,-0.229847 0.27886,-0.607028 0.55209,-0.838181 0.57968,-0.490416 1.0668,-0.307681 1.47122,0.551906 0.69175,1.470321 3.38066,1.27286 4.09604,-0.300794 0.41133,-0.904813 0.35863,-3.16064 -0.0935,-4.0042 -0.53708,-1.00199 -0.98735,-1.18587 -3.268,-1.33456 -1.52158,-0.0992 -2.10136,-0.21756 -2.23388,-0.45601 -0.0984,-0.17712 -0.18027,-1.59866 -0.18186,-3.15897 -0.002,-2.29512 0.0539,-2.90153 0.29448,-3.1752 0.44514,-0.50637 6.60802,-0.50434 6.7789,0.002 0.19719,0.58454 0.12597,1.53371 -0.13346,1.77863 -0.13943,0.13163 -1.23905,0.2612 -2.50744,0.29544 l -2.25911,0.061 -0.0562,1.09831 -0.0562,1.0983 1.38014,0.14591 c 1.68498,0.17814 2.77744,0.75053 3.65283,1.91389 0.79573,1.05749 1.03873,1.95115 1.03767,3.816155 -0.002,3.233311 -2.02048,5.597278 -4.77926,5.596805 -0.63244,-1.09e-4 -1.28739,-0.1678 -1.81443,-0.464558 z M 38.251497,35.529108 c -0.28006,-0.31858 -0.3138,-1.15219 -0.3138,-7.75296 0,-6.43661 0.0386,-7.43988 0.29738,-7.73428 0.23891,-0.27177 0.76669,-0.33828 2.68424,-0.33828 2.01963,0 2.51019,0.0679 3.18838,0.44137 2.04874,1.12819 2.91436,4.39654 1.75805,6.63795 -0.37158,0.72028 -0.37171,0.73428 -0.0109,1.18397 1.65119,2.05781 1.31151,5.54371 -0.69449,7.12696 -0.81112,0.64018 -0.85155,0.64803 -3.70757,0.71973 -2.49237,0.0626 -2.93046,0.0236 -3.20132,-0.28446 z m 5.87456,-2.37192 c 0.61098,-0.48681 0.90582,-1.70626 0.64863,-2.68274 -0.36333,-1.37947 -0.66657,-1.53904 -2.79111,-1.46864 l -1.86961,0.062 -0.0548,2.02706 c -0.0399,1.47656 0.0114,2.07489 0.18924,2.2032 0.44593,0.32183 3.43317,0.21333 3.87768,-0.14083 z m -0.34233,-7.08215 c 0.51187,-0.52695 0.68188,-1.62895 0.40078,-2.59785 -0.3401,-1.17222 -0.83977,-1.43552 -2.58342,-1.36131 l -1.48712,0.0633 -0.0553,1.93364 c -0.0691,2.41583 0.0346,2.54368 1.9783,2.43857 0.9932,-0.0537 1.45985,-0.18096 1.74678,-0.47634 z m 23.14413,9.50053 c -0.12651,-0.1734 -0.22135,-2.60638 -0.25972,-6.66287 -0.0449,-4.7485 -0.12122,-6.45879 -0.29705,-6.65856 -0.13014,-0.14786 -0.89656,-0.32208 -1.70317,-0.38716 l -1.46657,-0.11834 v -0.96871 -0.96871 l 4.31001,-0.0579 4.31001,-0.0579 0.15687,0.48237 c 0.0863,0.2653 0.0996,0.72726 0.0297,1.02658 -0.11866,0.50761 -0.22453,0.55214 -1.57416,0.66206 -0.79582,0.0648 -1.51387,0.19384 -1.59567,0.28672 -0.0818,0.0929 -0.17367,3.08636 -0.20416,6.65218 -0.0362,4.23347 -0.12633,6.58048 -0.25972,6.76332 -0.26155,0.35849 -1.18658,0.36288 -1.44632,0.007 z m 11.31814,0.0202 c -0.36429,-0.11776 -0.9392,-0.45307 -1.27757,-0.74515 -1.14531,-0.9886 -1.18256,-1.21686 -1.18256,-7.24722 0,-5.31524 0.0119,-5.48821 0.42579,-6.18362 0.67512,-1.13434 1.84507,-1.71708 3.4361,-1.71147 1.6091,0.006 2.60206,0.45534 3.46002,1.56691 0.78934,1.02264 0.86349,1.70111 0.78324,7.16609 -0.0554,3.77152 -0.11946,4.61289 -0.39523,5.18976 -0.84411,1.76578 -3.17108,2.63663 -5.24979,1.9647 z m 2.82396,-2.4293 c 0.29385,-0.17285 0.58651,-0.53612 0.65036,-0.80726 0.0638,-0.27113 0.11725,-2.45901 0.11867,-4.86194 0.003,-4.35342 9.4e-4,-4.37085 -0.46191,-4.89735 -0.38017,-0.43245 -0.6528,-0.52839 -1.50161,-0.52839 -0.57041,0 -1.25555,0.0945 -1.52253,0.20994 l -0.48542,0.20994 v 5.14541 c 0,3.8563 0.0593,5.20014 0.23655,5.36387 0.56442,0.52126 2.20563,0.613 2.96589,0.16578 z m 17.651892,2.42391 c -0.14353,-0.16327 -0.22709,-0.98306 -0.22709,-2.22802 0,-1.82059 0.0405,-2.03325 0.535247,-2.80925 0.633997,-0.99445 1.317814,-1.67625 3.463854,-3.4536 1.8425,-1.52597 2.36716,-2.39508 2.16947,-3.59377 -0.24184,-1.46645 -2.06848,-1.92899 -3.43917,-0.87088 -0.57001,0.44002 -0.8304,0.52248 -1.18956,0.37672 -1.179931,-0.47886 -0.923174,-1.72409 0.54892,-2.6621 1.08744,-0.69291 3.09827,-0.74919 4.22901,-0.11836 0.87162,0.48627 1.71777,1.89083 1.8939,3.14377 0.29275,2.08254 -0.66886,3.69434 -3.76196,6.3056 -2.10987,1.78121 -2.59218,2.41813 -2.41493,3.18915 0.15381,0.66904 0.82443,0.82638 3.52229,0.82638 2.64432,0 2.95876,0.10565 2.95876,0.99415 0,1.1803 0.0779,1.15853 -4.1457,1.15853 -2.79343,0 -3.981051,-0.074 -4.143041,-0.25832 z m 15.434301,-0.048 c -1.66467,-0.67584 -2.61702,-2.01826 -2.75276,-3.88025 -0.10621,-1.45684 0.19844,-2.50277 1.0163,-3.48922 0.35563,-0.42895 0.64661,-0.88214 0.64661,-1.0071 0,-0.12495 -0.23025,-0.50057 -0.51166,-0.83469 -0.42344,-0.50277 -0.52514,-0.84847 -0.58989,-2.00519 -0.0947,-1.69215 0.14441,-2.42913 1.11026,-3.42173 1.27681,-1.31217 3.22309,-1.57926 4.83786,-0.66391 1.43024,0.81075 1.85274,1.5935 1.93583,3.58651 0.0678,1.62701 0.0604,1.65793 -0.59304,2.46903 l -0.66174,0.82139 0.80661,1.02053 c 1.05714,1.33752 1.32017,2.85343 0.82278,4.74192 -0.27239,1.03418 -1.52966,2.35834 -2.57868,2.71586 -0.97351,0.33179 -2.60143,0.30698 -3.48848,-0.0531 z m 3.26647,-2.38677 c 0.71665,-0.42156 0.94242,-0.93072 0.94242,-2.12535 0,-0.84645 -0.0794,-1.03894 -0.61503,-1.4913 -0.96686,-0.81651 -1.65947,-1.00495 -2.49409,-0.67856 -1.15109,0.45015 -1.81226,1.30961 -1.80512,2.34648 0.007,0.99774 0.26745,1.47921 1.05272,1.94505 0.7065,0.41911 2.20966,0.42101 2.9191,0.004 z m -0.37473,-7.85944 c 0.70187,-0.40731 0.74943,-0.49511 0.74943,-1.38362 0,-0.7685 -0.0947,-1.03345 -0.49862,-1.39486 -0.68702,-0.61473 -2.10538,-0.61042 -2.79708,0.008 -0.44105,0.39464 -0.50062,0.58645 -0.45131,1.45306 0.0512,0.89955 0.12239,1.03566 0.71915,1.37478 0.8586,0.4879 1.35993,0.47517 2.27843,-0.0579 z m 18.19744,10.2942 c -0.16789,-0.19097 -0.22709,-2.20267 -0.22709,-7.71629 0,-8.56346 -0.0802,-8.17051 1.66639,-8.17051 0.80457,0 1.02105,0.0844 1.24293,0.48436 0.14777,0.26639 0.84001,2.71238 1.53831,5.43552 0.69829,2.72314 1.34877,5.12069 1.44551,5.32789 0.0967,0.2072 0.3402,0.37672 0.54105,0.37672 0.20084,0 0.43966,-0.16952 0.5307,-0.37672 0.091,-0.2072 0.74634,-2.65318 1.4562,-5.43552 0.70986,-2.78235 1.41798,-5.22833 1.57361,-5.43553 0.33504,-0.44605 2.09477,-0.53084 2.45734,-0.11839 0.3255,0.37026 0.3255,15.25821 0,15.62847 -0.12489,0.14208 -0.4485,0.25832 -0.71911,0.25832 -0.88648,0 -0.9462,-0.25979 -0.9462,-4.11554 0,-1.9794 -0.0517,-3.75213 -0.11487,-3.93941 -0.29854,-0.88497 -0.63817,-0.13913 -1.58493,3.4805 -0.54969,2.10156 -1.12915,3.99054 -1.28769,4.19773 -0.21228,0.27742 -0.57627,0.37672 -1.38087,0.37672 -1.25218,0 -1.57981,-0.25658 -1.86775,-1.46275 -1.00943,-4.22834 -1.84614,-7.04034 -2.09485,-7.04034 -0.23465,0 -0.28748,0.63915 -0.32922,3.98246 -0.0429,3.43544 -0.0933,4.01942 -0.36734,4.25155 -0.40321,0.34159 -1.23616,0.34744 -1.53212,0.0108 z m 28.77407,0.0165 c -0.18004,-0.20916 -0.23655,-2.05649 -0.23655,-7.73279 0,-7.07277 0.0187,-7.47722 0.36219,-7.83083 0.31463,-0.3239 0.70792,-0.36361 2.99528,-0.30245 2.50546,0.067 2.67117,0.0991 3.41888,0.66264 1.21706,0.91725 1.55024,1.87723 1.55024,4.46658 0,2.36564 -0.25703,3.27549 -1.21164,4.28907 -0.27034,0.28703 -0.49152,0.65188 -0.49152,0.81077 0,0.1589 0.38321,1.22174 0.85158,2.36188 0.46837,1.14013 0.85158,2.23319 0.85158,2.42901 0,0.55474 -0.39583,0.87268 -1.08648,0.87268 -0.62243,0 -0.65069,-0.0429 -1.80725,-2.74467 l -1.17494,-2.74467 h -1.04083 -1.04082 l -0.0946,2.62005 c -0.0521,1.44102 -0.14794,2.68027 -0.21311,2.75387 -0.25981,0.29347 -1.40233,0.35567 -1.63199,0.0889 z m 5.43321,-8.14909 c 0.73601,-0.44807 1.02023,-2.98151 0.49493,-4.41164 -0.31592,-0.86008 -0.83973,-1.03736 -2.75836,-0.93354 l -1.23006,0.0666 -0.0539,2.47297 c -0.0466,2.13843 -0.01,2.50972 0.27272,2.74467 0.38801,0.32275 2.77181,0.36714 3.2747,0.061 z m 7.11751,8.05264 c -0.21625,-0.24599 -0.29738,-0.76875 -0.29738,-1.9162 v -1.57793 l 2.93324,-4.4796 c 1.61327,-2.46377 2.93323,-4.6495 2.93323,-4.85717 0,-0.63597 -0.64385,-0.82326 -2.83023,-0.82326 -2.03737,0 -2.10421,-0.0151 -2.30735,-0.52229 -0.11506,-0.28727 -0.15419,-0.77162 -0.087,-1.07634 l 0.12225,-0.55405 h 3.3734 c 4.05245,0 3.99978,-0.0302 3.99978,2.29467 v 1.50734 l -3.02785,4.59345 c -1.66532,2.5264 -3.02786,4.65457 -3.02786,4.72926 0,0.516 0.61345,0.65245 2.93324,0.65245 2.71428,0 2.93323,0.0884 2.93323,1.18397 0,1.1387 -0.14929,1.18398 -3.90377,1.18398 -2.88367,0 -3.49838,-0.0555 -3.74697,-0.33828 z m 14.27417,0.0853 c -0.36429,-0.11775 -0.9392,-0.45307 -1.27758,-0.74515 -1.14531,-0.9886 -1.18255,-1.21686 -1.18255,-7.24722 0,-5.31523 0.0119,-5.48821 0.42579,-6.18362 0.67511,-1.13434 1.84507,-1.71707 3.4361,-1.71147 1.6091,0.006 2.60205,0.45534 3.46002,1.56691 0.78933,1.02264 0.86349,1.70111 0.78324,7.16609 -0.0554,3.77152 -0.11946,4.61289 -0.39523,5.18976 -0.84412,1.76578 -3.17109,2.63664 -5.24979,1.9647 z m 2.82396,-2.4293 c 0.29385,-0.17286 0.58651,-0.53612 0.65036,-0.80726 0.0639,-0.27113 0.11725,-2.45901 0.11867,-4.86194 0.003,-4.35342 9.3e-4,-4.37085 -0.46191,-4.89735 -0.38017,-0.43245 -0.65281,-0.52839 -1.50161,-0.52839 -0.57041,0 -1.25555,0.0945 -1.52253,0.20994 l -0.48542,0.20994 v 5.14541 c 0,3.8563 0.0593,5.20014 0.23655,5.36387 0.56442,0.52126 2.20563,0.61299 2.96589,0.16578 z m -177.995073,1.94639 c -0.62552,-0.3313 -1.15114,-0.81137 -1.46662,-1.33948 -0.56573,-0.94706 -0.61376,-1.41463 -0.19431,-1.89177 0.47775,-0.54346 1.10507,-0.40161 1.74133,0.39377 1.08816,1.36027 2.73228,1.53663 3.68649,0.39543 0.65559,-0.78405 0.8299,-1.63893 0.46379,-2.27454 -0.27805,-0.48273 -1.50962,-1.44442 -3.79321,-2.96201 -0.60785,-0.40395 -1.43815,-1.144 -1.8451,-1.64454 -0.65993,-0.8117 -0.73992,-1.02926 -0.73992,-2.01252 0,-1.41742 0.44385,-2.46197 1.37066,-3.22568 1.65775,-1.36604 4.11443,-1.30621 5.59589,0.13628 0.93678,0.91213 1.1131,1.44622 0.70903,2.14771 -0.42767,0.74248 -1.09843,0.67828 -1.79701,-0.17199 -0.51023,-0.62104 -0.68877,-0.69962 -1.58949,-0.69962 -1.24122,0 -1.93695,0.3939 -2.19752,1.24416 -0.17959,0.58604 -0.14059,0.70482 0.43165,1.31456 0.346,0.36866 1.3888,1.15141 2.31734,1.73944 2.07966,1.317 3.42052,2.68932 3.66365,3.74958 0.44334,1.93334 -0.60748,4.25058 -2.39179,5.27431 -0.93182,0.53463 -2.78108,0.45389 -3.96486,-0.17309 z m 9.72731,0.29349 c -0.18214,-0.12367 -0.33117,-0.36984 -0.33117,-0.54705 0,-0.85669 3.46433,-14.64328 3.74075,-14.88663 0.39604,-0.34867 2.02272,-0.34867 2.27093,0 0.29815,0.41883 3.63808,14.769 3.51933,15.12101 -0.11437,0.33904 -1.22841,0.65795 -1.65219,0.47296 -0.14377,-0.0627 -0.32253,-0.4851 -0.39726,-0.93855 -0.0747,-0.45344 -0.25144,-1.13927 -0.39272,-1.52406 l -0.25686,-0.69962 h -1.98551 c -1.35488,0 -2.03415,0.0836 -2.13862,0.26315 -0.0842,0.14473 -0.32341,0.84704 -0.53158,1.56069 -0.34297,1.17581 -0.43174,1.30249 -0.9462,1.35025 -0.31225,0.029 -0.71675,-0.0485 -0.8989,-0.17215 z m 5.83843,-5.67229 c 0.10492,-0.31103 -0.78254,-4.35327 -1.07314,-4.88793 -0.1373,-0.25262 -0.20534,-0.24892 -0.43861,0.0239 -0.3409,0.39867 -1.3197,4.43853 -1.17752,4.86001 0.14567,0.43181 2.54375,0.43541 2.68927,0.004 z m 19.29681,5.56109 c -0.16355,-0.18605 -0.29737,-0.38835 -0.29737,-0.44956 0,-0.0612 0.76642,-3.2962 1.70316,-7.18887 0.93675,-3.89267 1.70317,-7.12236 1.70317,-7.17708 0,-0.71531 2.17807,-1.09915 2.64049,-0.46534 0.12468,0.1709 0.89498,3.14967 1.71179,6.6195 0.8168,3.46983 1.59659,6.77797 1.73286,7.35142 0.22875,0.96259 0.21982,1.0659 -0.11624,1.34543 -0.20021,0.16653 -0.64251,0.30278 -0.98289,0.30278 -0.56934,0 -0.63552,-0.0732 -0.82668,-0.91489 -0.35718,-1.57257 -0.41566,-1.7686 -0.61009,-2.04505 -0.12925,-0.18378 -0.80448,-0.26908 -2.12993,-0.26908 -1.32877,0 -1.99841,0.0848 -2.12374,0.26908 -0.10067,0.148 -0.29463,0.75344 -0.43101,1.34543 -0.13639,0.59199 -0.33035,1.19743 -0.43102,1.34543 -0.25659,0.37718 -1.18677,0.33546 -1.5425,-0.0692 z m 5.88432,-5.59695 c 0.13419,-0.39779 -0.85065,-4.78006 -1.11619,-4.96675 -0.0999,-0.0702 -0.28845,0.005 -0.41908,0.16691 -0.30492,0.37815 -1.29573,4.64626 -1.1436,4.92627 0.0633,0.11651 0.66626,0.21183 1.33992,0.21183 0.93888,0 1.25148,-0.079 1.33895,-0.33826 z m 94.886933,5.52066 c -0.35976,-0.40925 -0.3585,-0.43896 0.0982,-2.31413 0.25447,-1.04476 1.02703,-4.2729 1.71681,-7.17364 0.68977,-2.90074 1.38261,-5.4436 1.53965,-5.65079 0.39424,-0.52018 1.95356,-0.52018 2.34171,0 0.26627,0.35683 3.56237,14.00918 3.56237,14.75523 0,0.46212 -0.64477,0.84163 -1.28673,0.75736 -0.42611,-0.0559 -0.5517,-0.2281 -0.75557,-1.0358 -0.5312,-2.10446 -0.45013,-2.04505 -2.7906,-2.04505 h -2.07439 l -0.43752,1.5607 c -0.41219,1.47034 -0.46971,1.56069 -0.99351,1.56069 -0.3058,0 -0.72,-0.18656 -0.92045,-0.41457 z m 5.79677,-5.54315 c 0.14308,-0.42414 -0.66172,-4.23308 -1.00656,-4.76384 -0.1769,-0.27229 -0.29215,-0.30294 -0.45462,-0.12091 -0.27018,0.30271 -1.34761,4.8085 -1.21027,5.0613 0.055,0.10131 0.65126,0.1842 1.32492,0.1842 0.97127,0 1.25003,-0.0747 1.34653,-0.36075 z"
       id="path2" /></g></svg>
