<?xml version="1.0" encoding="UTF-8" standalone="no"?>
<!-- Created with Inkscape (http://www.inkscape.org/) -->

<svg
   width="270mm"
   height="95mm"
   viewBox="0 0 270 95"
   version="1.1"
   id="svg1"
   xml:space="preserve"
   inkscape:export-filename="aulogo.svg"
   inkscape:export-xdpi="96"
   inkscape:export-ydpi="96"
   inkscape:version="1.3.2 (091e20e, 2023-11-25, custom)"
   sodipodi:docname="logo vettoriale auditorium.svg"
   xmlns:inkscape="http://www.inkscape.org/namespaces/inkscape"
   xmlns:sodipodi="http://sodipodi.sourceforge.net/DTD/sodipodi-0.dtd"
   xmlns="http://www.w3.org/2000/svg"
   xmlns:svg="http://www.w3.org/2000/svg"><sodipodi:namedview
     id="namedview1"
     pagecolor="#ffffff"
     bordercolor="#000000"
     borderopacity="0.25"
     inkscape:showpageshadow="2"
     inkscape:pageopacity="0.0"
     inkscape:pagecheckerboard="0"
     inkscape:deskcolor="#d1d1d1"
     inkscape:document-units="mm"
     inkscape:zoom="0.64381944"
     inkscape:cx="396.07378"
     inkscape:cy="22.521842"
     inkscape:window-width="1920"
     inkscape:window-height="991"
     inkscape:window-x="-9"
     inkscape:window-y="-9"
     inkscape:window-maximized="1"
     inkscape:current-layer="layer1" /><defs
     id="defs1" /><g
     inkscape:label="Livello 1"
     inkscape:groupmode="layer"
     id="layer1"><path
       style="fill:#000000"
       d="m 1.8860371,91.674906 c -0.425008,-0.60679 -0.417972,-1.09774 0.02095,-1.46157 0.287446,-0.23828 2.396188,-0.2905 11.7296639,-0.2905 6.258569,0 11.436719,-0.0574 11.507001,-0.12759 0.07028,-0.0702 -0.07991,-0.90361 -0.333771,-1.85209 l -0.461557,-1.72449 h -5.95606 c -4.350269,0 -6.02454,-0.0685 -6.21006,-0.254 -0.195702,-0.1957 -0.254,-9.13238 -0.254,-38.93672 V 8.3452362 l 0.79375,-0.220436 c 0.436563,-0.121239 0.981727,-0.220966 1.211476,-0.221616 0.22975,-6.49e-4 2.468125,-0.392048 4.974167,-0.869775 2.506043,-0.477728 5.366066,-0.988397 6.355608,-1.134821 0.989542,-0.146424 3.594734,-0.631743 5.789318,-1.078486 l 3.99015,-0.812261 1.08985,0.385204 c 0.599417,0.211861 3.994974,1.667415 7.545683,3.234565 3.550708,1.567149 6.860646,3.0266378 7.355417,3.2433088 l 0.899583,0.393947 v 7.420235 7.420235 l 1.322917,-0.002 c 0.727604,-0.0011 3.132667,-0.09366 5.344584,-0.205666 2.211916,-0.112003 6.164792,-0.303473 8.784167,-0.425488 2.619375,-0.122016 6.715125,-0.314096 9.101667,-0.426846 2.386542,-0.112749 6.958538,-0.303594 10.159998,-0.424099 3.20146,-0.120505 9.01171,-0.357829 12.91167,-0.527387 11.028361,-0.479478 17.132081,-0.719185 34.925001,-1.371582 3.20146,-0.117385 8.57809,-0.317671 11.94806,-0.445079 5.78475,-0.218703 6.14263,-0.210577 6.40292,0.145383 0.22346,0.305606 0.27569,6.163688 0.27569,30.922408 v 30.54538 l 1.00542,0.003 c 1.80456,0.006 2.56316,0.7405 1.86472,1.80645 l -0.3399,0.51876 H 93.144457 30.648796 l -0.523213,1.64042 c -0.287767,0.90223 -0.523213,1.73124 -0.523213,1.84225 0,0.12763 22.372077,0.18586 60.854167,0.1584 49.011403,-0.035 60.957153,0.009 61.383343,0.2268 0.65109,0.33249 0.79301,1.11003 0.3017,1.65292 -0.36073,0.3986 -1.70811,0.40588 -75.146678,0.40588 H 2.2155401 Z m 26.7386159,-6.30291 c 0.475842,-1.68804 1.822005,-7.02204 2.991473,-11.85333 2.688569,-11.10698 5.40738,-21.50238 6.773016,-25.8967 0.247705,-0.79707 0.413097,-1.48648 0.367536,-1.53205 -0.04556,-0.0456 -0.790418,0.73044 -1.655239,1.72445 -5.681334,6.52997 -9.380573,15.32939 -10.80598,25.7043 -0.151947,1.10596 -0.278235,3.67771 -0.28064,5.715 -0.0036,3.08412 0.07966,4.11163 0.49762,6.13833 0.585112,2.83723 0.811757,3.53143 1.065105,3.26239 0.100068,-0.10627 0.571267,-1.57435 1.047109,-3.26239 z m -4.720433,-1.83158 c -0.07385,-0.19245 -0.138519,-1.88314 -0.143706,-3.75708 -0.02862,-10.3379 2.997467,-21.1996 8.042105,-28.86602 l 1.292251,-1.96386 v -21.18337 c 0,-19.4040268 -0.02868,-21.1723668 -0.341487,-21.0523328 -0.505112,0.19383 -11.400698,2.320169 -17.068097,3.3309418 l -1.42875,0.254816 v 36.793415 36.79341 h 4.890979 c 4.461945,0 4.879201,-0.0307 4.756705,-0.34992 z m 20.197317,-28.23172 c 0,-22.67555 0.05467,-28.6005 0.264583,-28.67288 0.145521,-0.0502 1.407584,-0.16625 2.804584,-0.25794 l 2.54,-0.166707 0.05313,-6.468007 c 0.0404,-4.919451 -0.01027,-6.550992 -0.211671,-6.814613 -0.145636,-0.190633 -3.009867,-1.543917 -6.364958,-3.0072968 -3.355091,-1.463381 -6.474528,-2.851678 -6.932083,-3.085106 L 35.423203,6.4117342 V 26.206868 c 0,10.887328 0.02381,19.793688 0.05292,19.791918 0.0291,-0.002 1.100667,-1.00539 2.38125,-2.23025 2.262033,-2.16362 2.934259,-2.60149 3.601037,-2.34562 0.691336,0.26529 0.745176,1.09513 0.190093,2.92995 -1.633078,5.39811 -4.483377,16.08824 -7.077761,26.54535 -1.620893,6.5333 -3.042325,12.12924 -3.158735,12.43542 l -0.211656,0.5567 h 6.450594 6.450595 z m 8.890001,18.28346 v -10.29817 l -2.381251,0.13721 c -1.309687,0.0755 -2.833687,0.13765 -3.386666,0.13818 l -1.005417,9.6e-4 v 10.16 10.16 h 3.386667 3.386667 z m 54.398342,1.97262 c 0,-4.57905 -0.0427,-8.36822 -0.0948,-8.42038 -0.0521,-0.0522 -1.79046,0.0204 -3.86291,0.16117 -2.07246,0.1408 -6.530353,0.40949 -9.906433,0.5971 -6.39536,0.35539 -15.077816,0.86868 -17.991668,1.06363 -2.104945,0.14084 -4.476921,0.28426 -7.090834,0.42876 -1.105958,0.0611 -4.296833,0.25103 -7.090834,0.42197 -2.794,0.17095 -5.341937,0.31175 -5.662083,0.31289 l -0.582084,0.002 v 6.87917 6.87917 h 26.140835 26.140841 z m 24.55333,-4.59135 v -12.9169 l 0.51212,-0.19471 c 0.48846,-0.18571 8.37757,-0.0877 9.3833,0.11652 l 0.47625,0.0967 v 12.90763 12.90764 h 4.23333 4.23334 V 54.151166 24.412003 l -1.95792,0.0038 c -1.07686,0.0021 -3.81529,0.09241 -6.08542,0.200718 -2.27012,0.108304 -6.65162,0.298403 -9.73667,0.422442 -13.0516,0.524761 -26.56381,1.06176 -29.42166,1.16927 -1.68805,0.0635 -6.402923,0.255471 -10.477503,0.426601 -4.07459,0.17113 -11.027838,0.45871 -15.451671,0.63907 -4.423834,0.18035 -12.989338,0.56271 -19.034454,0.84967 -6.045116,0.28697 -11.307679,0.52176 -11.694584,0.52176 h -0.703464 v 16.29833 16.29833 h 0.786927 c 0.43281,0 2.552122,-0.0937 4.709583,-0.20819 2.157462,-0.1145 5.922907,-0.30513 8.367657,-0.42362 8.938415,-0.43321 13.209229,-0.64622 17.145001,-0.85512 5.194765,-0.27572 14.978495,-0.74655 24.422978,-1.17532 6.25561,-0.284 7.51931,-0.29322 7.66968,-0.056 0.099,0.15623 0.18149,5.92762 0.18327,12.82531 l 0.003,12.54125 h 11.21834 11.21833 z m -28.04583,-25.31391 c -0.55969,-0.0967 -13.660113,-1.00015 -24.130008,-1.66402 -12.074802,-0.76563 -18.054534,-1.18567 -18.944167,-1.33071 l -0.9525,-0.15528 v -4.33917 -4.33917 l 2.010833,0.0461 c 1.105958,0.0254 4.677834,0.24226 7.9375,0.48197 3.259667,0.23972 8.498418,0.6191 11.641668,0.84307 14.229191,1.01388 23.745264,1.7758 24.182924,1.93626 0.47154,0.17287 0.47625,0.21521 0.47625,4.28469 0,3.5526 -0.0454,4.12752 -0.33481,4.23857 -0.34066,0.13072 -1.12346,0.12975 -1.88769,-0.002 z m -0.10584,-4.40704 v -1.99787 l -0.89958,-0.10964 c -0.49477,-0.0603 -2.42358,-0.21161 -4.286253,-0.33624 -1.86267,-0.12464 -3.79148,-0.27747 -4.28625,-0.33964 l -0.89958,-0.11302 v 2.12963 2.12964 l 0.89958,0.0157 c 0.49477,0.009 2.42358,0.13937 4.28625,0.29049 1.862673,0.15111 3.791483,0.28691 4.286253,0.30177 l 0.89958,0.027 z m -12.745253,-0.91256 -0.0606,-2.06375 -1.48167,-0.13637 c -0.81491,-0.075 -3.10091,-0.24306 -5.08,-0.37347 -1.97908,-0.13041 -3.955519,-0.2743 -4.392081,-0.31974 l -0.79375,-0.0826 v 2.06925 2.06926 l 1.005416,0.12475 c 0.55298,0.0686 2.767545,0.23048 4.921255,0.3597 2.1537,0.12922 4.01108,0.26834 4.1275,0.30914 0.11641,0.0408 0.5723,0.0817 1.01308,0.0909 l 0.80141,0.0167 z m -14.180939,-1.13022 -0.06131,-1.99186 -2.116667,-0.14144 c -8.449712,-0.56463 -12.115436,-0.84132 -12.435417,-0.93862 -0.336208,-0.10223 -0.370417,0.0901 -0.370417,2.08259 v 2.19523 l 5.450417,0.38727 c 2.997729,0.21301 6.307667,0.44909 7.355417,0.52463 1.04775,0.0755 1.980214,0.0781 2.072142,0.006 0.09193,-0.0724 0.139553,-1.02798 0.105834,-2.1235 z m 63.332862,32.72147 v -11.95917 h -3.06916 -3.06917 v 11.95917 11.95917 h 3.06917 3.06916 z m -79.586148,-4.43983 c 6.350848,-0.38253 12.00668,-0.70166 15.239477,-0.85988 1.338792,-0.0655 2.743729,-0.16627 3.122083,-0.22388 l 0.687917,-0.10476 v -2.14023 -2.14024 l -3.33375,0.13379 c -5.515397,0.22134 -16.955222,0.789 -19.102918,0.94791 l -2.010833,0.14879 -0.06135,1.99495 c -0.05395,1.75428 0.01316,2.55588 0.21398,2.55588 0.03305,0 2.393473,-0.14055 5.245394,-0.31233 z m 26.669475,-1.59998 c 2.03729,-0.1192 6.13304,-0.35472 9.10167,-0.52337 8.374523,-0.47577 9.370433,-0.54012 10.107083,-0.65304 l 0.68792,-0.10546 v -2.00124 c 0,-1.76581 -0.0436,-2.00095 -0.37042,-1.9987 -0.20373,10e-4 -3.03741,0.1404 -6.29708,0.30891 -3.259673,0.1685 -8.022173,0.40501 -10.583333,0.52558 -2.56117,0.12057 -5.39486,0.27722 -6.29709,0.34812 l -1.640415,0.12891 v 2.20297 2.20297 l 0.793755,-0.10946 c 0.43656,-0.0602 2.46062,-0.20699 4.49791,-0.32619 z m 87.619543,20.263 c -2.70187,-0.76324 -4.05666,-2.64206 -4.07794,-5.65527 -0.0132,-1.86466 0.53851,-3.22073 1.73908,-4.27485 1.1315,-0.99347 2.03967,-1.28929 3.94314,-1.28442 1.85351,0.005 3.02559,0.42751 4.19349,1.51255 1.34127,1.24612 1.9758,3.86684 1.42717,5.89448 -0.76477,2.82646 -4.23114,4.65322 -7.22494,3.80751 z m 2.88556,-2.60406 c 1.022,-0.48497 1.58257,-1.49953 1.59923,-2.89439 0.0239,-2.00206 -1.11098,-3.32475 -2.85416,-3.32645 -1.63286,-0.002 -2.72227,1.13174 -2.83849,2.95293 -0.0909,1.42363 0.36149,2.42811 1.40838,3.12748 0.84708,0.56588 1.69501,0.61023 2.68504,0.14043 z m 9.57214,2.59482 c -1.01578,-0.28456 -1.30225,-0.4537 -2.36692,-1.39753 -2.24274,-1.9882 -2.14374,-6.40374 0.1895,-8.45236 1.19968,-1.05332 2.09293,-1.35977 4.01769,-1.37835 1.97501,-0.0191 3.39062,0.53027 4.16349,1.61567 l 0.46228,0.64921 -0.60172,0.4798 c -1.11545,0.88943 -1.60085,1.07315 -1.87575,0.70997 -0.51312,-0.67793 -1.3084,-1.04286 -2.27269,-1.04286 -1.67264,0 -2.7335,1.25043 -2.73278,3.22112 9.9e-4,2.7426 2.85869,4.32197 4.67373,2.58304 l 0.62022,-0.59421 0.79244,0.4515 c 1.09838,0.62581 1.24331,0.92323 0.7883,1.61767 -0.86952,1.32705 -3.83253,2.10467 -5.85779,1.53733 z m 10.73027,0.0995 c -2.73809,-0.72536 -4.12217,-2.5858 -4.11356,-5.52933 0.008,-2.67528 0.87622,-4.23242 2.91761,-5.23157 2.29325,-1.12243 5.65716,-0.61392 6.82943,1.03237 l 0.45059,0.63281 -0.7137,0.61143 c -1.08285,0.92769 -1.37014,0.95625 -2.20915,0.21959 -0.58406,-0.51282 -0.93667,-0.6513 -1.65838,-0.6513 -1.63558,0 -2.66726,1.24474 -2.66668,3.21741 4.2e-4,1.4144 0.51858,2.45066 1.47804,2.95589 1.20368,0.63383 2.23732,0.47893 3.30977,-0.49602 0.44515,-0.40468 0.4573,-0.40311 1.42875,0.18366 0.53888,0.3255 0.97978,0.6511 0.97978,0.72356 0,0.33745 -0.96609,1.29931 -1.78999,1.78214 -0.99234,0.58155 -3.09381,0.85367 -4.24251,0.54936 z m 22.71386,-0.0979 c -2.7191,-0.76577 -4.13336,-2.89946 -3.93497,-5.93666 0.1502,-2.29929 1.13434,-3.87639 3.02,-4.83956 1.22105,-0.6237 3.50874,-0.62732 4.67948,-0.007 1.81179,0.95934 2.62235,2.4325 2.62462,4.77011 l 0.001,1.21709 h -3.68939 -3.6894 l 0.17109,0.59656 c 0.28158,0.98178 0.68803,1.47475 1.52837,1.85369 0.96523,0.43526 2.11528,0.3005 2.99667,-0.35114 0.65821,-0.48663 0.89577,-0.43612 2.04221,0.43422 0.51536,0.39125 0.51736,0.40462 0.12516,0.838 -1.14615,1.26648 -3.98937,1.95617 -5.87502,1.42511 z m 3.63864,-7.11741 c 0,-0.22878 -0.29562,-0.75266 -0.65693,-1.16417 -0.73901,-0.84168 -1.64933,-0.9894 -2.71171,-0.44002 -0.495,0.25598 -1.28803,1.42172 -1.28803,1.8934 0,0.0697 1.04775,0.12676 2.32834,0.12676 2.17348,0 2.32833,-0.0277 2.32833,-0.41597 z m 22.16521,7.18234 c -2.41248,-0.6055 -3.81424,-2.32844 -4.09724,-5.03604 -0.25884,-2.47649 1.12013,-5.04147 3.1462,-5.85214 1.12368,-0.44961 3.39015,-0.46652 4.41497,-0.0329 1.68319,0.71211 3.06982,3.17121 2.9061,5.15377 l -0.0661,0.80015 -3.75709,0.0578 c -4.14106,0.0637 -4.13158,0.0598 -3.27661,1.33965 0.98145,1.46914 2.94944,1.8493 4.36295,0.8428 0.72463,-0.51599 1.04812,-0.43362 1.90806,0.48578 0.63158,0.67525 0.44919,0.9496 -1.15223,1.7331 -1.25948,0.6162 -3.10639,0.83 -4.38904,0.50808 z m 3.65812,-6.879 c 0,-0.0619 -0.13281,-0.4305 -0.29514,-0.81901 -0.79948,-1.91343 -3.24998,-1.85985 -4.25992,0.0931 -0.1723,0.33319 -0.31327,0.65815 -0.31327,0.72214 0,0.064 1.09538,0.11635 2.43417,0.11635 1.33879,0 2.43416,-0.0507 2.43416,-0.11263 z m -19.80777,6.49864 c -1.15723,-0.72665 -1.35889,-1.49849 -1.35889,-5.20092 v -3.30176 h -0.63097 c -0.69653,0 -0.943,-0.48878 -0.81431,-1.61484 0.0584,-0.51134 0.177,-0.61806 0.74798,-0.67329 l 0.67853,-0.0656 0.0623,-1.4147 0.0623,-1.41471 1.00497,-0.1829 c 1.52955,-0.27836 1.64086,-0.17326 1.64086,1.54943 v 1.48831 h 1.11125 1.11125 v 1.16416 1.16417 h -1.12765 -1.12765 l 0.0693,2.85055 c 0.0785,3.22957 0.19024,3.48355 1.56557,3.5594 0.80921,0.0446 0.83537,0.0705 0.95184,0.94315 0.0659,0.4935 0.0468,1.01528 -0.0423,1.15952 -0.0978,0.15829 -0.77461,0.28944 -1.70725,0.33084 -1.24317,0.0552 -1.6726,-0.0114 -2.19712,-0.34078 z m 7.19271,-0.002 c -1.09689,-0.68904 -1.35494,-1.70411 -1.35494,-5.3298 v -3.17072 h -0.64606 -0.64606 l 0.064,-1.11125 c 0.0594,-1.03172 0.10496,-1.11598 0.63669,-1.17732 0.55154,-0.0636 0.57501,-0.1184 0.635,-1.48167 l 0.0623,-1.41559 0.98293,-0.19003 c 1.52729,-0.29526 1.6629,-0.16811 1.6629,1.55922 v 1.48831 h 1.16417 1.16416 v 1.16416 1.16417 h -1.18016 -1.18017 l 0.0689,2.98085 c 0.0622,2.69014 0.1102,3.01145 0.49225,3.29468 0.23444,0.17381 0.72026,0.28057 1.08881,0.23928 0.64611,-0.0724 0.66871,-0.0466 0.77689,0.88573 0.0613,0.52816 0.022,1.05253 -0.0873,1.16526 -0.10928,0.11273 -0.83988,0.23687 -1.62356,0.27585 -1.13122,0.0563 -1.56003,-0.014 -2.08076,-0.34113 z m -78.61327,-7.33635 v -7.51417 l 3.33375,0.001 c 3.55502,0.001 4.44971,0.14657 5.57611,0.90565 2.08013,1.40181 2.46043,4.50274 0.78608,6.40972 -0.36186,0.41213 -0.98196,0.91556 -1.37801,1.11875 l -0.7201,0.36943 0.40488,0.51889 c 0.53278,0.68281 3.42729,5.39422 3.42729,5.57863 0,0.0788 -0.78564,0.11554 -1.74587,0.0817 l -1.74587,-0.0615 -1.58788,-2.79922 -1.58788,-2.79922 -0.89959,-0.005 -0.89958,-0.005 v 2.8575 2.8575 h -1.48167 -1.48166 z m 6.21006,-0.72787 c 0.94583,-0.3596 1.40994,-1.06161 1.40994,-2.13265 0,-1.52968 -0.5839,-1.95297 -2.85869,-2.07237 l -1.79798,-0.0944 v 2.24905 2.24904 h 1.36205 c 0.74913,0 1.59724,-0.0894 1.88468,-0.1987 z m 39.93327,0.72787 v -7.51417 h 1.46341 1.46341 l -0.10324,2.54 c -0.0568,1.397 -0.0528,2.54 0.009,2.54 0.0617,0 0.44986,-0.22921 0.86268,-0.50935 1.34048,-0.90968 3.6473,-0.91486 4.93314,-0.0111 0.2635,0.18521 0.66262,0.6965 0.88694,1.1362 0.35492,0.69569 0.41637,1.35335 0.47342,5.06626 l 0.0656,4.26679 -1.41539,-2.5e-4 -1.41539,-2.4e-4 -0.0663,-3.82878 -0.0663,-3.82879 -0.59389,-0.51038 c -0.89294,-0.76738 -1.91316,-0.6915 -2.81395,0.20929 l -0.71966,0.71966 v 3.6195 3.6195 h -1.48167 -1.48167 z m -26.30159,-12.03609 c -2.94113,-1.10107 -4.4541,-4.35782 -3.42609,-7.37486 0.41565,-1.21985 1.57584,-2.58564 2.71001,-3.19025 1.2078,-0.64386 4.27508,-0.67443 5.52441,-0.055 1.27047,0.62986 2.39404,1.90822 2.75987,3.1401 1.21003,4.07464 -1.09008,7.43086 -5.26745,7.68603 -0.98584,0.0602 -1.77949,-0.0108 -2.30075,-0.20597 z m 3.73477,-2.69343 c 0.80172,-0.63063 1.18854,-1.49974 1.18816,-2.66955 -4.1e-4,-1.27265 -0.52891,-2.3478 -1.45972,-2.96963 -1.88457,-1.25897 -4.25372,0.34151 -4.25462,2.87421 -4.3e-4,1.19279 0.53928,2.30826 1.35856,2.80785 0.90222,0.55017 2.44015,0.52935 3.16762,-0.0429 z m 18.96712,2.78425 c -2.45156,-0.74573 -3.88427,-2.82941 -3.86697,-5.62395 0.0154,-2.48176 1.03302,-4.24436 2.95982,-5.12648 0.98027,-0.44878 1.38999,-0.51437 2.81012,-0.44988 1.43903,0.0654 1.7842,0.16101 2.56764,0.71164 1.3156,0.92464 1.95844,2.29253 1.97415,4.20078 l 0.0124,1.51149 -3.74439,0.0577 -3.74438,0.0577 0.20933,0.60049 c 0.36581,1.04936 1.31527,1.76655 2.48784,1.87922 1.02119,0.0981 1.53791,-0.0546 2.72196,-0.80434 0.43364,-0.27459 0.52984,-0.24046 1.23256,0.43731 l 0.76221,0.73515 -0.79558,0.69138 c -1.27814,1.11073 -3.89533,1.6362 -5.58675,1.12169 z m 3.81137,-7.1259 c 0,-0.34365 -0.27028,-0.82061 -0.71967,-1.27 -0.80477,-0.80477 -1.63811,-0.93422 -2.64897,-0.41149 -0.5449,0.28178 -1.28803,1.43523 -1.28803,1.99923 0,0.15492 0.77756,0.23259 2.32834,0.23259 h 2.32833 z m 19.41999,7.02167 c -2.11754,-0.75567 -3.54451,-2.91018 -3.54482,-5.35215 -4.4e-4,-3.45485 2.18113,-5.77837 5.42189,-5.77467 3.10404,0.004 5.00687,1.88118 5.03971,4.97298 l 0.0157,1.48167 -3.77878,0.0579 -3.77878,0.0579 0.14322,0.57711 c 0.45196,1.82117 3.32636,2.57413 5.02696,1.31682 l 0.63772,-0.47148 0.769,0.77964 0.76899,0.77964 -0.72354,0.61307 c -1.39739,1.18403 -4.14121,1.62396 -5.9973,0.96159 z m 4.28668,-6.66922 c 0,-0.8282 -0.89014,-1.98136 -1.73688,-2.2501 -0.59524,-0.18892 -1.67638,0.0675 -2.22901,0.52867 -0.43717,0.36481 -0.90245,1.25234 -0.90245,1.72143 0,0.11126 1.0655,0.19788 2.43417,0.19788 1.36867,0 2.43417,-0.0866 2.43417,-0.19788 z m -70.06167,-0.96628 v -7.51417 l 3.22791,0.001 c 3.44607,10e-4 4.34937,0.15027 5.46387,0.90134 1.09462,0.73766 1.52868,1.67427 1.63088,3.51906 0.0805,1.45356 0.0302,1.72464 -0.51492,2.77509 -0.51692,0.99609 -0.78427,1.25429 -1.8518,1.78845 -1.0251,0.51292 -1.58165,0.64025 -3.12013,0.71381 l -1.87248,0.0895 v 2.61994 2.61994 h -1.48167 -1.48166 z m 6.30236,-0.74172 c 0.7513,-0.45808 1.10597,-1.14545 1.10597,-2.14348 0,-1.42361 -1.00911,-2.08897 -3.1682,-2.08897 h -1.2768 v 2.32833 2.32834 l 1.32292,-7.9e-4 c 0.94857,-5.7e-4 1.51906,-0.12039 2.01611,-0.42343 z m 5.39928,2.85838 6.6e-4,-5.3975 h 1.45135 1.45135 v 5.3975 5.3975 h -1.45201 -1.45201 z m 19.94545,5.19058 c -0.0703,-0.11381 -0.68625,-1.75688 -1.36869,-3.65125 -0.68244,-1.89438 -1.53539,-4.20415 -1.89544,-5.13283 -0.36004,-0.92868 -0.65463,-1.71449 -0.65463,-1.74625 0,-0.0318 0.69056,-0.0559 1.53458,-0.0537 l 1.53459,0.004 1.16416,3.59354 c 1.04334,3.22058 1.48167,4.19446 1.48167,3.29198 0,-0.16665 0.48014,-1.7859 1.06698,-3.59834 l 1.06698,-3.29535 h 1.47302 c 0.81016,0 1.47302,0.0598 1.47302,0.1329 0,0.0731 -0.8788,2.50196 -1.95289,5.3975 l -1.95288,5.2646 h -1.42129 c -0.78171,0 -1.47884,-0.0931 -1.54918,-0.20692 z m 18.94124,-5.19058 v -5.3975 h 1.37584 1.37583 v 0.64498 0.64497 l 0.86843,-0.69789 c 0.81624,-0.65594 0.96797,-0.69789 2.52448,-0.69789 1.34247,0 1.76673,0.0826 2.24057,0.43641 1.54697,1.15498 1.76313,1.98712 1.7698,6.81317 l 0.005,3.65125 h -1.37583 -1.37583 v -3.28763 c 0,-3.54705 -0.18693,-4.41785 -1.08308,-5.04554 -0.62693,-0.43911 -1.33898,-0.43876 -2.08349,10e-4 -1.1443,0.67595 -1.27843,1.19273 -1.27843,4.92522 v 3.40692 h -1.48167 -1.48167 z m -33.90255,-15.9865 c -1.74257,-0.92051 -2.07805,-2.07202 -2.0796,-7.13808 l -0.001,-3.86291 h 1.37583 1.37583 l 0.005,3.12208 c 0.003,1.71715 0.093,3.50308 0.20059,3.96875 0.37074,1.60529 1.97717,2.28417 3.40677,1.43968 1.02496,-0.60546 1.25593,-1.57165 1.25593,-5.25396 v -3.27655 h 1.37583 1.37583 v 5.60916 5.60917 h -1.37583 -1.37583 v -0.78044 -0.78043 l -0.58209,0.5446 c -1.36737,1.27934 -3.4211,1.61033 -4.95713,0.79893 z m 13.26505,0.12462 c -1.21676,-0.44235 -2.56725,-2.00597 -2.99074,-3.46272 -0.50781,-1.74681 -0.29873,-3.95707 0.51042,-5.39587 0.90774,-1.61409 2.12301,-2.3112 4.23467,-2.42912 1.489,-0.0831 1.73453,-0.037 2.79648,0.52584 l 1.16417,0.61699 v -2.76579 -2.76578 l 1.42875,-0.0626 1.42875,-0.0626 v 7.94717 7.94717 h -1.35901 c -1.33109,0 -1.36182,-0.0128 -1.4954,-0.62096 l -0.13639,-0.62096 -0.94687,0.66742 c -0.79785,0.56238 -1.17043,0.67702 -2.36751,0.7285 -0.86356,0.0371 -1.75267,-0.0596 -2.26732,-0.24672 z m 4.27274,-2.64841 c 1.21301,-0.73963 1.70424,-2.37123 1.21248,-4.02717 -1.17353,-3.95171 -6.32968,-2.35188 -5.71126,1.77206 0.1542,1.02825 0.92684,2.15392 1.69044,2.46283 0.78342,0.31693 2.10866,0.2189 2.80834,-0.20772 z m 14.14226,2.81204 c -0.23283,-0.0622 -0.64992,-0.31798 -0.92686,-0.56829 -0.92575,-0.83675 -1.08397,-1.58189 -1.08397,-5.10499 v -3.28763 h -0.74083 c -0.73692,0 -0.74084,-0.005 -0.74084,-0.9525 0,-0.52388 -0.002,-1.02394 -0.004,-1.11125 -0.002,-0.0873 0.33094,-0.18831 0.74083,-0.22444 l 0.74526,-0.0657 v -1.55003 c 0,-1.74449 0.0593,-1.80243 1.85208,-1.80819 l 0.89959,-0.003 v 1.69333 1.69334 h 1.27 1.27 v 1.16416 1.16417 h -1.27 -1.27 l 0.0119,2.48708 c 0.007,1.3679 0.12564,2.82046 0.26459,3.22792 0.23446,0.68755 0.32298,0.74539 1.23071,0.80423 l 0.97809,0.0634 0.13471,0.98281 c 0.0781,0.56992 0.0449,1.07263 -0.0791,1.19661 -0.23504,0.23503 -2.60852,0.37886 -3.28179,0.19886 z m 7.85866,-0.17001 c -1.21731,-0.43391 -2.27672,-1.37955 -2.99032,-2.66917 -0.56146,-1.01466 -0.63368,-1.34368 -0.62353,-2.8409 0.009,-1.40061 0.10775,-1.87957 0.56849,-2.77072 1.15932,-2.24237 2.90459,-3.15916 5.73152,-3.01079 2.01283,0.10565 3.31468,0.69778 4.26052,1.93785 1.09585,1.43673 1.52322,4.13615 0.93026,5.87583 -0.80551,2.36328 -2.91155,3.79575 -5.55649,3.77937 -0.82543,-0.005 -1.86963,-0.14077 -2.32045,-0.30147 z m 3.81607,-2.673 c 0.94002,-0.58097 1.37567,-1.46555 1.38782,-2.81799 0.0184,-2.04829 -1.13805,-3.2976 -3.05393,-3.29912 -3.0177,-0.002 -4.00455,4.54124 -1.33934,6.16653 0.85573,0.52185 2.11462,0.50114 3.00545,-0.0494 z m 21.34527,2.58568 c -1.96161,-0.90078 -2.2225,-1.71044 -2.2225,-6.89762 v -4.13429 h 1.37584 1.37583 v 3.60884 c 0,3.81424 0.1601,4.58877 1.04661,5.06321 0.60653,0.32461 1.96919,0.26348 2.50584,-0.1124 0.96445,-0.67553 1.10422,-1.31558 1.10422,-5.05664 v -3.50301 h 1.48166 1.48167 v 5.60916 5.60917 h -1.37583 -1.37584 v -0.74083 c 0,-0.87281 -0.11861,-0.91622 -0.65169,-0.23852 -0.92052,1.17025 -3.12281,1.53821 -4.74581,0.79293 z m -82.65583,-0.10307 c 0,-0.16941 1.28587,-3.71153 2.8575,-7.87137 1.57162,-4.15984 2.8575,-7.59728 2.8575,-7.63875 0,-0.0415 0.76404,-0.0754 1.69787,-0.0754 1.55937,0 1.71446,0.0388 1.90129,0.47625 0.11189,0.26194 1.31566,3.38137 2.67506,6.93208 1.35939,3.55071 2.64802,6.91214 2.86361,7.46985 l 0.39198,1.01402 -1.73162,-0.0615 -1.73162,-0.0615 -0.61676,-1.85209 -0.61676,-1.85208 h -3.10687 -3.10687 l -0.63257,1.85208 -0.63258,1.85209 -1.53458,0.0622 c -1.23049,0.0499 -1.53458,10e-4 -1.53458,-0.24585 z m 9.2293,-7.38343 c -0.26861,-0.7276 -0.75335,-2.0611 -1.0772,-2.96333 -0.32384,-0.90223 -0.64749,-1.63973 -0.71921,-1.63888 -0.0717,8.4e-4 -0.54913,1.21528 -1.06092,2.69875 -0.51179,1.48346 -0.97442,2.81628 -1.02806,2.9618 -0.0741,0.20112 0.43868,0.26458 2.13812,0.26458 h 2.23566 z m 32.89236,2.06375 v -5.60916 h 1.37584 1.37583 v 5.60916 5.60917 h -1.37583 -1.37584 z m 24.97667,0 v -5.60916 h 1.36367 1.36366 l 0.0651,0.89958 0.0651,0.89958 0.3611,-0.65937 c 0.44114,-0.80555 1.52659,-1.35146 2.68714,-1.35146 h 0.8676 v 1.35088 1.35088 l -0.83111,0.0115 c -1.08788,0.015 -2.05113,0.53029 -2.56413,1.37163 -0.36352,0.59619 -0.41328,1.07834 -0.41397,4.01139 l -7.9e-4,3.33375 h -1.48167 -1.48167 z m 8.51607,0.0529 0.0564,-5.55625 1.42875,-0.0626 1.42875,-0.0626 v 5.61884 5.61884 h -1.48518 -1.48518 z m 17.28963,5.46835 c -0.0485,-0.0483 -0.0613,-2.57693 -0.0284,-5.61909 l 0.0598,-5.53119 1.31602,0.0628 c 1.14172,0.0545 1.32005,0.11891 1.34644,0.48617 0.0167,0.23284 0.0405,0.51259 0.0529,0.62169 0.0124,0.10909 0.28444,-0.0515 0.60459,-0.35695 0.76494,-0.72975 1.54089,-1.00557 2.82887,-1.00557 1.19007,0 2.07193,0.37898 2.67965,1.15157 l 0.41299,0.52503 0.47806,-0.50888 c 0.76097,-0.81 1.74556,-1.16772 3.21412,-1.16772 1.07969,0 1.49867,0.10264 2.10734,0.51624 1.39844,0.95027 1.5523,1.56611 1.62929,6.52168 l 0.0682,4.39208 h -1.39116 -1.39116 v -3.4993 c 0,-4.60261 -0.31749,-5.3907 -2.17169,-5.3907 -0.80189,0 -1.46247,0.56287 -1.84486,1.57198 -0.14078,0.3715 -0.22264,1.93898 -0.2045,3.91583 l 0.0302,3.29636 -1.3971,0.0626 -1.3971,0.0626 v -3.80343 c 0,-3.78301 -0.003,-3.80693 -0.54798,-4.45467 -0.45313,-0.53851 -0.70322,-0.65124 -1.44477,-0.65124 -0.66037,0 -1.01115,0.12556 -1.33057,0.47625 -0.83559,0.9174 -0.91002,1.31873 -0.91002,4.90733 v 3.50642 h -1.34055 c -0.73731,0 -1.38024,-0.0396 -1.42875,-0.0879 z m -50.54661,-12.9826 c -0.24538,-0.20373 -0.5052,-0.67616 -0.57738,-1.04985 -0.11055,-0.57236 -0.0259,-0.78475 0.53701,-1.34768 0.56293,-0.56293 0.77532,-0.64756 1.34768,-0.53701 1.97997,0.38243 1.84553,3.30496 -0.15203,3.30496 -0.39002,0 -0.9099,-0.16669 -1.15528,-0.37042 z m 33.43461,-0.18729 c -0.80761,-1.02671 -0.33713,-2.42222 0.92328,-2.73856 0.93211,-0.23394 2.00585,0.63194 2.01796,1.62731 0.0113,0.92603 -0.73953,1.66896 -1.6866,1.66896 -0.62937,0 -0.91626,-0.12753 -1.25464,-0.55771 z"
       id="path1" /></g></svg>
