<?xml version="1.0" encoding="UTF-8" standalone="no"?>
<!-- Created with Inkscape (http://www.inkscape.org/) -->

<svg
   width="1466"
   height="483"
   viewBox="0 0 387.87928 127.79414"
   version="1.1"
   id="svg1"
   xml:space="preserve"
   xmlns="http://www.w3.org/2000/svg"
   xmlns:svg="http://www.w3.org/2000/svg"><defs
     id="defs1" /><g
     id="layer1"><path
       style="fill:#ffffff"
       d="m 1.073576,126.17026 c -0.24083508,-0.26612 -0.43788208,-0.83762 -0.43788208,-1.27 0,-0.43238 0.142875,-0.92903 0.3175,-1.10366 0.24020348,-0.2402 4.36268528,-0.3175 16.93333208,-0.3175 13.122864,0 16.613237,-0.0695 16.603484,-0.33073 -0.0068,-0.1819 -0.286065,-1.34276 -0.620605,-2.5797 l -0.608256,-2.24896 -8.610384,-0.0697 c -6.813601,-0.0552 -8.671866,-0.1438 -8.905016,-0.42473 -0.21486,-0.25889 -0.276554,-15.3911 -0.227865,-55.889553 l 0.06677,-55.5344418 1.322917,-0.294278 c 0.727604,-0.16185 2.632604,-0.5001083 4.233333,-0.7516883 1.600729,-0.2515783 4.636823,-0.8004966 6.746875,-1.2198349 2.110052,-0.4193383 5.146146,-0.9447986 6.746875,-1.1677066 1.600729,-0.2229 3.862917,-0.6356283 5.027083,-0.9171766 1.164167,-0.28155 3.437326,-0.7572783 5.051465,-1.05716658 1.614138,-0.29989 3.340544,-0.54241828 3.836458,-0.53896828 0.495913,0.003 1.556504,0.28397828 2.356869,0.62339626 0.800365,0.3394103 3.657865,1.5757269 6.35,2.7473618 2.692135,1.1716366 5.925452,2.6069315 7.185148,3.1895598 1.259695,0.5826183 3.601091,1.6125649 5.2031,2.2887632 1.60201,0.6761983 2.982365,1.410885 3.067457,1.632625 0.08509,0.221747 0.154712,5.03685 0.154712,10.70025 v 10.29707 l 1.653646,-0.001 c 0.909505,-8.1e-4 7.011458,-0.239538 13.559895,-0.530508 6.548438,-0.290968 13.454073,-0.643748 15.345843,-0.783936 1.89177,-0.1402 7.24958,-0.38487 11.90625,-0.543718 4.65667,-0.15885 15.55088,-0.578858 24.20937,-0.933359 8.65849,-0.354497 18.18349,-0.759445 21.16667,-0.899895 2.98318,-0.14045 9.05536,-0.380388 13.49375,-0.533198 4.43839,-0.152811 13.07042,-0.458018 19.18229,-0.678229 6.11188,-0.220217 13.61281,-0.515857 16.66875,-0.656975 3.05594,-0.14113 5.87517,-0.25725 6.26496,-0.25806 0.38979,-8.1e-4 0.8958,0.18563 1.12448,0.414298 0.37463,0.37463 0.41577,4.757042 0.41577,44.289234 0,39.762844 0.0392,43.888594 0.41851,44.034144 0.23019,0.0883 1.05512,0.1606 1.83319,0.1606 0.93329,0 1.55615,0.14148 1.83044,0.41579 0.22868,0.22867 0.41578,0.67843 0.41578,0.99946 0,0.32103 -0.18535,0.8483 -0.41188,1.17173 l -0.41188,0.58804 H 131.88622 42.239643 l -0.272937,0.99219 c -0.150116,0.5457 -0.517947,1.63486 -0.817402,2.42033 -0.299456,0.78547 -0.481746,1.52961 -0.40509,1.65365 0.07666,0.12404 39.515544,0.22552 87.641986,0.22552 78.76846,0 87.56129,0.0411 88.09063,0.41188 0.33483,0.23452 0.58804,0.69024 0.58804,1.05833 0,0.35555 -0.23812,0.88458 -0.52917,1.17563 -0.52742,0.52743 -0.88194,0.52917 -107.7767,0.52917 -103.5636563,0 -107.2625828,-0.0166 -107.685424,-0.48385 z m 37.795153,-7.61291 c 0.504356,-1.73143 1.560181,-5.70792 2.346277,-8.83663 0.786097,-3.12871 2.465228,-9.974814 3.731402,-15.213544 1.266174,-5.23873 2.466174,-10.060742 2.666667,-10.71558 0.200492,-0.654838 0.717681,-2.63341 1.149307,-4.396825 0.431627,-1.763411 1.022214,-4.025593 1.312416,-5.027059 0.290201,-1.001476 1.084849,-3.844916 1.765883,-6.318766 0.681034,-2.473841 1.458807,-5.19075 1.728384,-6.037578 0.269578,-0.846816 0.400005,-1.501664 0.289839,-1.455204 -0.110166,0.0465 -0.850785,0.798847 -1.64582,1.671974 -0.795035,0.873116 -1.991252,2.301861 -2.658261,3.174988 -0.667009,0.873116 -1.929317,2.65905 -2.805129,3.968733 -0.875812,1.309687 -2.176978,3.512329 -2.89148,4.894773 -0.714502,1.382445 -1.694583,3.406498 -2.177958,4.497904 -0.483375,1.091395 -1.280522,3.115448 -1.771437,4.497892 -0.490915,1.382445 -1.306707,4.076613 -1.812872,5.987048 -0.506165,1.910432 -1.098713,4.529792 -1.316774,5.820808 -0.218061,1.291013 -0.587187,3.947054 -0.82028,5.902306 -0.233093,1.95526 -0.42283,5.16996 -0.421639,7.14376 0.0012,1.97381 0.122183,4.42796 0.268869,5.45366 0.146686,1.02571 0.500841,3.07277 0.78701,4.54901 0.28617,1.47626 0.656837,2.9392 0.823704,3.25099 0.166868,0.3118 0.35548,0.51483 0.419138,0.45117 0.06366,-0.0637 0.528398,-1.53238 1.032754,-3.26383 z m -6.390971,-3.85071 c 0.02959,-0.0501 -0.01815,-1.63893 -0.106094,-3.53071 -0.08795,-1.89178 -0.06189,-4.92788 0.0579,-6.7469 0.119792,-1.81901 0.40521,-4.616974 0.634263,-6.217698 0.229052,-1.600724 0.710977,-4.398684 1.070945,-6.217686 0.359968,-1.819004 1.078383,-4.736022 1.596479,-6.482266 0.518096,-1.746244 1.477811,-4.544203 2.1327,-6.217686 0.65489,-1.673484 1.922612,-4.467224 2.817161,-6.208318 0.894549,-1.741082 2.371719,-4.296493 3.2826,-5.678678 l 1.656148,-2.51306 0.0031,-30.304516 c 0.0029,-28.8440331 -0.0195,-30.30191 -0.465523,-30.2503597 -0.257732,0.0298 -2.849854,0.5239283 -5.760271,1.0980966 -2.910417,0.5741683 -5.767917,1.1203366 -6.35,1.2137166 -0.582083,0.0934 -3.499115,0.6378783 -6.482292,1.2100066 -2.983177,0.5721183 -5.959739,1.1364266 -6.614583,1.2540049 l -1.190625,0.21379 -0.06143,52.704101 -0.06143,52.704192 5.220805,0.0717 c 2.871443,0.0394 5.973554,0.0532 6.893581,0.0305 0.920026,-0.0226 1.696988,-0.0822 1.726581,-0.13229 z m 26.829289,0.0779 2.182812,-0.0367 V 73.902154 c 0,-32.354058 0.06876,-40.902486 0.33073,-41.119345 0.181901,-0.150579 1.997604,-0.373509 4.034895,-0.495418 l 3.704167,-0.221639 0.07234,-8.995806 c 0.03979,-4.947682 0.0081,-9.262237 -0.07038,-9.587884 -0.0845,-0.350558 -0.588689,-0.819617 -1.235928,-1.149806 C 67.724415,12.025508 66.267805,11.35819 65.088769,10.849322 63.909733,10.340444 62.230693,9.6256153 61.357568,9.260807 60.484443,8.8959987 59.174755,8.3194404 58.447151,7.9795701 57.719547,7.6396921 55.457359,6.6290155 53.420068,5.7336189 51.382776,4.8382306 49.567073,4.043864 49.385172,3.968374 c -0.263379,-0.10931 -0.330729,5.6336513 -0.330729,28.201358 0,19.290916 0.08713,28.338622 0.272887,28.338622 0.150088,0 0.341574,-0.178999 0.425524,-0.397768 0.08395,-0.21877 1.577197,-1.707044 3.318326,-3.307278 2.663381,-2.44786 3.301161,-2.909518 4.019476,-2.909518 0.469583,0 0.996662,0.142878 1.171287,0.317498 0.174625,0.17463 0.3175,0.754968 0.3175,1.289646 0,0.534688 -0.18078,1.484534 -0.401733,2.110782 -0.220954,0.626245 -0.816207,2.6355 -1.322786,4.465012 -0.506579,1.829524 -1.342073,4.814672 -1.856653,6.633676 -0.51458,1.819002 -1.473677,5.331329 -2.131327,7.80518 -0.65765,2.47384 -2.196227,8.486478 -3.419059,13.36141 -1.222833,4.874919 -2.882259,11.601936 -3.687614,14.948916 -0.805355,3.34698 -1.703317,6.8678 -1.995472,7.82401 -0.292154,0.95621 -0.53119,1.81539 -0.53119,1.90928 0,0.0939 1.279922,0.20451 2.844271,0.24582 1.564349,0.0413 4.68974,0.0618 6.945313,0.0456 2.255573,-0.0162 5.083307,-0.046 6.283854,-0.0661 z m 12.174519,-0.001 2.980249,-0.0353 -0.01186,-14.72436 -0.01186,-14.72429 -2.968389,0.17105 c -1.632614,0.0941 -3.831592,0.17159 -4.886618,0.17225 l -1.91823,0.001 v 14.52998 c 0,11.38395 0.07161,14.55593 0.33073,14.64953 0.181901,0.0657 1.045104,0.0915 1.918229,0.0574 0.873125,-0.0341 2.928612,-0.078 4.567748,-0.0974 z m 80.697004,-11.82648 c 0.0379,-6.521402 -0.0216,-11.943711 -0.13229,-12.04959 -0.11066,-0.10588 -2.52292,-0.033 -5.36058,0.161937 -2.83765,0.194941 -7.95734,0.48602 -11.37708,0.646849 -3.41974,0.16082 -8.12271,0.409527 -10.45104,0.552688 -2.32833,0.14316 -5.78115,0.375297 -7.67292,0.515878 -1.89177,0.14057 -5.46364,0.379007 -7.9375,0.529848 -2.47385,0.15085 -8.84371,0.513378 -14.155217,0.805618 -5.311511,0.292238 -11.205104,0.647465 -13.096875,0.789396 -1.891771,0.14193 -3.707474,0.25835 -4.034896,0.2587 l -0.595313,6.4e-4 v 9.778436 9.77849 l 2.050521,0.0773 c 1.127787,0.0425 17.945365,0.0624 37.37241,0.0441 l 35.32187,-0.0331 z m 34.78995,11.83355 c 0.43606,-0.0399 0.46325,-1.10913 0.46707,-18.364822 0.002,-11.179399 0.10256,-18.47704 0.25675,-18.719198 0.21648,-0.33999 1.23023,-0.38364 7.07355,-0.30457 3.75147,0.0508 7.02921,0.20378 7.28388,0.340039 0.43414,0.232279 0.46302,1.392265 0.46302,18.596848 v 18.349223 l 1.12448,0.15715 c 0.61846,0.0864 3.14854,0.1518 5.62239,0.14525 2.47386,-0.007 4.68142,-0.0639 4.90571,-0.12741 0.36475,-0.10332 0.41586,-4.61084 0.48425,-42.71306 l 0.0765,-42.597448 h -2.59607 c -1.42784,0 -8.37278,0.235138 -15.43321,0.522538 -7.06043,0.287398 -15.27793,0.645755 -18.26111,0.796336 -2.98317,0.15059 -10.30552,0.450278 -16.27187,0.665988 -5.96636,0.215709 -14.12214,0.515118 -18.12396,0.665358 -4.00182,0.150238 -10.72885,0.441588 -14.94896,0.647445 -4.2201,0.205851 -9.57791,0.44168 -11.90625,0.524058 -2.32833,0.0824 -7.38849,0.271611 -11.24479,0.420511 -3.8563,0.148888 -10.881,0.446268 -15.610427,0.660826 -4.729427,0.21457 -9.372865,0.444119 -10.31875,0.510107 -0.945886,0.066 -4.785651,0.265101 -8.532813,0.44246 l -6.813021,0.322469 V 58.95198 c 0,12.771702 0.0893,23.273192 0.198438,23.336632 0.109141,0.0634 2.996406,-0.0415 6.416146,-0.233151 3.419739,-0.191677 10.623021,-0.536098 16.007291,-0.765385 5.384271,-0.22928 10.801615,-0.474078 12.038542,-0.543998 1.236924,-0.0699 4.630224,-0.24641 7.540634,-0.392188 2.91042,-0.14579 5.88698,-0.32585 6.61459,-0.400141 0.7276,-0.0743 5.4901,-0.311867 10.58333,-0.527978 5.09323,-0.216097 13.54667,-0.570726 18.78542,-0.788045 5.23875,-0.21733 10.01727,-0.461448 10.61894,-0.542478 0.8034,-0.10821 1.20747,-0.0338 1.52136,0.280068 0.38509,0.38509 0.4274,2.205932 0.4274,18.392632 v 17.965332 l 3.63802,0.0736 c 2.00092,0.0405 8.99584,0.0629 15.54428,0.0499 6.54843,-0.0131 12.1146,-0.0428 12.36927,-0.0661 z M 144.70133,59.837305 c -1.89177,-0.186747 -7.30912,-0.589716 -12.03854,-0.895475 -4.72943,-0.305768 -10.32537,-0.674478 -12.43542,-0.819366 -2.11005,-0.14488 -8.3013,-0.560628 -13.75833,-0.923879 -5.45704,-0.363257 -12.557359,-0.837205 -15.778488,-1.053236 -3.22113,-0.216027 -6.048864,-0.466557 -6.283855,-0.556728 -0.375975,-0.144267 -0.427254,-0.887045 -0.427254,-6.188635 0,-5.0752 0.06356,-6.077446 0.403305,-6.359406 0.318614,-0.264428 0.971455,-0.273458 3.108854,-0.043 1.488052,0.16044 3.836643,0.358329 5.219091,0.439747 1.382448,0.0814 5.013854,0.320831 8.069797,0.532008 3.05594,0.211181 7.34219,0.509548 9.52501,0.663039 2.18281,0.15348 6.94531,0.507018 10.58333,0.785628 3.63802,0.278618 10.24599,0.754886 14.68437,1.058396 4.43839,0.303498 8.94161,0.667825 10.00717,0.809616 1.06556,0.14179 2.38225,0.2578 2.92599,0.2578 0.54374,0 1.19842,0.153408 1.45485,0.340918 0.42221,0.308717 0.46367,0.888556 0.43914,6.141045 -0.0198,4.246865 -0.11342,5.855009 -0.34951,6.005019 -0.17733,0.11268 -0.67962,0.19163 -1.11618,0.17546 -0.43656,-0.0162 -2.34156,-0.1822 -4.23333,-0.368951 z m 2.51354,-6.187035 v -2.889349 l -1.65365,-0.151059 c -0.9095,-0.0831 -4.19883,-0.328369 -7.30962,-0.545078 -3.11078,-0.21672 -5.75992,-0.329789 -5.88698,-0.25127 -0.12705,0.0785 -0.231,1.389636 -0.231,2.91358 0,1.986222 0.0936,2.799479 0.33073,2.872097 0.1819,0.0557 3.00963,0.271351 6.28385,0.4792 3.27422,0.207849 6.51868,0.396659 7.2099,0.419569 l 1.25677,0.0417 z m -18.25625,-1.327764 v -2.89419 l -1.12448,-0.1479 c -0.61846,-0.0814 -3.80338,-0.324498 -7.0776,-0.540338 -3.27422,-0.215848 -6.57828,-0.424478 -7.34235,-0.463628 l -1.38923,-0.0712 1.6e-4,2.94002 1.7e-4,2.940008 1.65364,0.15979 c 0.90951,0.0879 3.91584,0.296028 6.68073,0.462538 2.7649,0.1665 5.07669,0.349168 5.13733,0.405908 0.0606,0.0567 0.8643,0.10317 1.78594,0.10317 h 1.67569 z M 108.5857,50.97508 c 0,-2.108212 -0.0918,-2.944928 -0.33073,-3.013148 -0.1819,-0.0519 -2.17619,-0.2288 -4.43177,-0.393008 -2.25558,-0.16421 -6.720424,-0.473709 -9.921882,-0.687778 -3.201459,-0.21406 -6.029193,-0.439038 -6.283854,-0.499958 -0.420909,-0.10067 -0.463021,0.170929 -0.463021,2.986288 v 3.097038 l 6.813021,0.493947 c 3.747161,0.271681 7.705996,0.573539 8.797406,0.670819 1.09141,0.0973 2.84758,0.19659 3.9026,0.22069 l 1.91823,0.0438 z m 90.45251,63.77274 c 0.21995,0 0.29958,-4.53599 0.29958,-17.065656 V 80.616608 h -4.36563 -4.36562 v 17.047156 17.047256 l 0.59531,0.11597 c 0.32742,0.0638 2.15714,0.0721 4.06605,0.0184 1.9089,-0.0537 3.60554,-0.0976 3.77031,-0.0976 z M 85.037776,91.337208 c 3.856302,-0.21368 8.321146,-0.459518 9.921875,-0.546318 1.600729,-0.0868 3.386667,-0.20674 3.96875,-0.266551 0.582083,-0.0598 3.499129,-0.236747 6.482299,-0.393197 2.98318,-0.156451 5.81092,-0.342558 6.28386,-0.413588 l 0.85989,-0.12913 v -3.072298 -3.072298 l -4.82864,0.181187 c -2.65576,0.0997 -6.79319,0.287711 -9.194284,0.417901 -2.401094,0.130187 -7.997031,0.431158 -12.435417,0.668815 -4.438385,0.237651 -8.218619,0.4813 -8.40052,0.541429 -0.23877,0.0789 -0.33073,0.945398 -0.33073,3.116229 0,1.653793 0.07937,3.086279 0.176389,3.183288 0.09701,0.097 0.245842,0.175629 0.330729,0.174709 0.08489,-9.2e-4 3.309497,-0.176499 7.165799,-0.390178 z M 122.8732,89.082406 c 2.98318,-0.151661 7.03131,-0.391618 8.99584,-0.533258 1.96453,-0.141641 5.715,-0.381088 8.33437,-0.532098 2.61938,-0.151021 6.26649,-0.373908 8.1047,-0.495308 1.83821,-0.12141 3.47532,-0.303008 3.63802,-0.403558 0.18575,-0.1148 0.29582,-1.155696 0.29582,-2.79742 0,-1.438034 -0.11158,-2.68356 -0.24797,-2.76785 -0.13638,-0.0843 -4.09521,0.0273 -8.79739,0.24798 -4.70219,0.220669 -10.2163,0.516738 -12.25359,0.657928 -2.0373,0.141187 -5.25198,0.322998 -7.14375,0.404018 -1.89178,0.081 -4.42185,0.218159 -5.6224,0.304748 l -2.18281,0.15743 v 3.137078 3.137078 l 0.7276,-0.120511 c 0.40018,-0.0663 3.16839,-0.244597 6.15156,-0.396257 z m 126.97596,25.254384 c -0.66807,-0.2058 -1.76229,-0.85622 -2.4316,-1.44537 -0.8572,-0.75454 -1.3864,-1.51836 -1.79026,-2.58397 -0.40083,-1.05759 -0.5743,-2.10987 -0.5765,-3.49716 -0.002,-1.09142 0.12716,-2.46247 0.28644,-3.04679 0.15928,-0.58431 0.6286,-1.59635 1.04294,-2.24895 0.50345,-0.79297 1.22967,-1.44985 2.18933,-1.980305 1.31287,-0.725695 1.65148,-0.793685 3.94953,-0.793015 2.07145,6e-4 2.69968,0.10123 3.57187,0.572128 0.58209,0.314258 1.43196,0.968772 1.88861,1.454462 0.45665,0.4857 1.01111,1.24268 1.23212,1.68217 0.22102,0.4395 0.53,1.49236 0.68664,2.33968 0.19521,1.05602 0.20257,2.12032 0.0234,3.38367 -0.14377,1.0137 -0.44616,2.20038 -0.67199,2.63708 -0.22582,0.4367 -0.82983,1.25805 -1.34223,1.82521 -0.58429,0.64675 -1.47022,1.23273 -2.3762,1.57171 -0.87547,0.32755 -2.04002,0.53322 -2.956,0.52205 -0.83129,-0.0101 -2.05803,-0.18681 -2.7261,-0.3926 z m 4.23772,-3.41528 c 0.45072,-0.23308 0.91852,-0.81334 1.17749,-1.46057 0.25076,-0.62672 0.42725,-1.81525 0.42386,-2.85444 -0.004,-1.17148 -0.17715,-2.15796 -0.50668,-2.88372 -0.27547,-0.60673 -0.74128,-1.23181 -1.03513,-1.38907 -0.29384,-0.15726 -1.08963,-0.28593 -1.76842,-0.28593 -1.02682,0 -1.35724,0.13176 -1.96681,0.7843 -0.40295,0.43137 -0.80791,1.16063 -0.8999,1.62058 -0.092,0.45995 -0.16725,1.53336 -0.16725,2.38535 0,0.85199 0.19302,2.0315 0.42894,2.62112 0.23812,0.59513 0.73837,1.24017 1.12448,1.44997 0.38255,0.20786 1.0884,0.38271 1.56857,0.38853 0.48017,0.006 1.20955,-0.16343 1.62085,-0.37612 z m 13.11653,3.40632 c -0.7276,-0.22964 -1.7203,-0.79464 -2.206,-1.25555 -0.48569,-0.4609 -1.11051,-1.27924 -1.38848,-1.81853 -0.27797,-0.53929 -0.61575,-1.75968 -0.75061,-2.71199 -0.14666,-1.03561 -0.15033,-2.40143 -0.009,-3.3985 0.12984,-0.91685 0.4213,-2.11031 0.64768,-2.65212 0.22639,-0.54181 0.89892,-1.45802 1.49452,-2.03603 0.6872,-0.666904 1.57261,-1.196352 2.42309,-1.448913 0.7371,-0.218897 2.02709,-0.397987 2.86664,-0.397987 0.83955,0 2.09786,0.12291 2.79625,0.27314 0.69838,0.150228 1.44538,0.382158 1.65999,0.515388 0.33965,0.210858 0.3249,0.434388 -0.11382,1.725082 -0.27722,0.81556 -0.57975,1.52964 -0.67229,1.58682 -0.0925,0.0572 -0.63662,-0.0629 -1.20908,-0.26682 -0.57246,-0.20395 -1.54125,-0.37604 -2.15287,-0.38243 -0.61162,-0.006 -1.41353,0.12576 -1.78203,0.29366 -0.36851,0.16791 -0.90989,0.80081 -1.20308,1.40646 -0.37575,0.7762 -0.53307,1.6375 -0.53307,2.91849 0,1.29461 0.15688,2.14138 0.54544,2.94403 0.41248,0.85209 0.77606,1.20284 1.49163,1.43899 0.52462,0.17316 1.51132,0.24536 2.21459,0.16206 0.69762,-0.0826 1.75279,-0.39735 2.34483,-0.69938 l 1.07643,-0.54915 v 1.82732 1.82731 l -0.96697,0.45887 c -0.58406,0.27716 -1.8151,0.49814 -3.10885,0.55807 -1.46217,0.0677 -2.56171,-0.0333 -3.46481,-0.31829 z m 14.47166,-0.0646 c -0.77183,-0.27617 -1.74929,-0.83358 -2.17213,-1.23869 -0.42284,-0.40511 -1.03747,-1.28444 -1.36585,-1.95406 -0.50737,-1.03461 -0.5984,-1.65472 -0.60599,-4.12794 -0.008,-2.49088 0.0789,-3.10111 0.60056,-4.23333 0.33522,-0.72761 0.93054,-1.66124 1.32292,-2.07475 0.39238,-0.41351 1.18967,-0.99879 1.77175,-1.300608 0.70475,-0.365431 1.74877,-0.589988 3.12491,-0.672148 1.46812,-0.0876 2.55995,0.0102 3.77031,0.337797 0.93705,0.253651 1.70368,0.537248 1.7036,0.630229 -7e-5,0.093 -0.24869,0.82391 -0.55249,1.62427 -0.30379,0.80037 -0.57718,1.48061 -0.60752,1.51165 -0.0303,0.031 -0.63408,-0.11778 -1.34165,-0.33073 -0.70756,-0.21294 -1.77684,-0.38717 -2.37617,-0.38717 -0.59934,0 -1.355,0.18582 -1.67926,0.41294 -0.32425,0.22711 -0.78845,0.79266 -1.03156,1.25677 -0.29921,0.57121 -0.44819,1.52767 -0.46114,2.9605 -0.0152,1.6819 0.0925,2.30677 0.52416,3.04212 0.2988,0.50901 0.83441,1.0728 1.19025,1.25288 0.35584,0.18009 1.07454,0.32918 1.59711,0.33133 0.52258,0.002 1.47508,-0.16038 2.11667,-0.36117 0.64159,-0.20079 1.37489,-0.45166 1.62955,-0.55748 0.41387,-0.17198 0.46302,-0.005 0.46302,1.5692 v 1.76161 l -0.99219,0.41576 c -0.5457,0.22866 -1.94468,0.46467 -3.10885,0.52446 -1.62007,0.0832 -2.44591,-0.009 -3.52001,-0.39344 z m 34.20963,0.0274 c -0.72873,-0.26207 -1.76758,-0.8141 -2.30857,-1.22673 -0.56385,-0.43008 -1.2969,-1.3882 -1.71775,-2.24518 -0.65385,-1.33146 -0.73413,-1.78427 -0.73413,-4.14078 0,-2.20284 0.10205,-2.86735 0.60949,-3.96876 0.33523,-0.72761 0.93054,-1.66124 1.32292,-2.07475 0.39238,-0.41351 1.18967,-1.008494 1.77175,-1.322182 0.87134,-0.469578 1.50245,-0.570478 3.57188,-0.571078 2.24466,-6.5e-4 2.6409,0.0743 3.70416,0.701007 0.65485,0.385969 1.46537,1.075013 1.80116,1.531223 0.33579,0.45622 0.78228,1.31626 0.99219,1.91121 0.20991,0.59495 0.38165,1.9002 0.38165,2.90054 v 1.81883 h -4.87917 c -3.02976,0 -4.94237,0.10225 -5.0459,0.26976 -0.0917,0.14836 -0.0364,0.66452 0.12279,1.14699 0.15924,0.48247 0.64383,1.21668 1.07688,1.63157 0.63658,0.6099 1.08181,0.77565 2.3249,0.86557 0.89318,0.0646 2.19617,-0.0586 3.10913,-0.29398 0.86437,-0.22287 1.78601,-0.48873 2.0481,-0.59083 0.43275,-0.16858 0.4692,-0.033 0.39687,1.47595 l -0.0796,1.66157 -1.05833,0.37568 c -0.58208,0.20661 -2.18943,0.43083 -3.57188,0.49826 -1.98478,0.0968 -2.79226,0.0224 -3.8385,-0.35389 z m 5.426,-9.8748 c 0,-0.29827 -0.1865,-0.90296 -0.41444,-1.34376 -0.23425,-0.45299 -0.81551,-0.96902 -1.33686,-1.18686 -0.56492,-0.23604 -1.26721,-0.32072 -1.8121,-0.2185 -0.48934,0.0918 -1.14262,0.43614 -1.45175,0.76519 -0.30913,0.32905 -0.63245,1.03207 -0.71848,1.56226 l -0.15644,0.96398 h 2.94504 c 2.79243,0 2.94503,-0.0281 2.94503,-0.54231 z m 10.67142,10.0416 c -0.46088,-0.13343 -1.14091,-0.60264 -1.51119,-1.04269 -0.37027,-0.44005 -0.7962,-1.24288 -0.9465,-1.78407 -0.1503,-0.54118 -0.27394,-2.91874 -0.27475,-5.28347 l -0.001,-4.29948 h -1.05833 c -1.02414,0 -1.05833,-0.0286 -1.05833,-0.88649 0,-0.77062 0.16427,-0.98946 1.25677,-1.674243 1.07625,-0.674597 1.3354,-1.012808 1.8042,-2.354641 l 0.54742,-1.566894 1.37081,-0.08 1.3708,-0.08 v 1.733614 1.733614 h 2.24896 2.24895 v 1.58748 1.5875 h -2.24895 -2.24896 v 4.10105 c 0,3.74829 0.0455,4.14658 0.52916,4.63023 0.34986,0.34986 0.88195,0.52917 1.57028,0.52917 0.57261,0 1.34652,-0.11612 1.71979,-0.25804 l 0.67868,-0.25803 v 1.69133 1.69132 l -1.33594,0.2865 c -0.73476,0.15758 -1.89562,0.27577 -2.57968,0.26265 -0.68406,-0.0131 -1.62083,-0.13303 -2.08171,-0.26647 z m 12.43542,0 c -0.46088,-0.13343 -1.14091,-0.60264 -1.51119,-1.04269 -0.37027,-0.44005 -0.7962,-1.24288 -0.9465,-1.78407 -0.1503,-0.54118 -0.27394,-2.91874 -0.27475,-5.28347 l -10e-4,-4.29948 h -1.05833 c -1.02414,0 -1.05834,-0.0286 -1.05834,-0.88649 0,-0.77062 0.16428,-0.98946 1.25677,-1.674243 1.07626,-0.674597 1.33541,-1.012808 1.8042,-2.354641 l 0.54743,-1.566894 1.3708,-0.08 1.3708,-0.08 v 1.733614 1.733614 h 2.24896 2.24896 v 1.58748 1.5875 h -2.24896 -2.24896 v 4.10105 c 0,3.74829 0.0455,4.14658 0.52917,4.63023 0.34986,0.34986 0.88194,0.52917 1.57028,0.52917 0.57261,0 1.34651,-0.11612 1.71979,-0.25804 l 0.67868,-0.25803 v 1.69133 1.69132 l -1.33594,0.2865 c -0.73477,0.15758 -1.89563,0.27577 -2.57969,0.26265 -0.68406,-0.0131 -1.62083,-0.13303 -2.0817,-0.26647 z m 12.90204,-0.28626 c -0.83319,-0.31996 -1.90214,-1.02151 -2.56216,-1.68153 -0.77735,-0.77735 -1.26246,-1.57012 -1.5469,-2.52794 -0.22792,-0.76748 -0.4144,-2.26976 -0.4144,-3.33839 0,-1.24731 0.18713,-2.48532 0.52266,-3.45772 0.38297,-1.10993 0.87067,-1.83939 1.82485,-2.7295 0.83693,-0.780744 1.74114,-1.337652 2.53075,-1.55873 0.77948,-0.21824 1.94117,-0.29008 3.17809,-0.19653 1.07224,0.0811 2.22829,0.290577 2.56899,0.465538 0.3407,0.17495 1.0667,0.745648 1.61334,1.268202 0.56917,0.5441 1.2193,1.55257 1.52136,2.35989 0.32705,0.87413 0.52746,2.05945 0.52746,3.11965 v 1.70987 h -5.0617 -5.0617 l 0.1468,0.90467 c 0.0808,0.49758 0.35879,1.2282 0.61787,1.62361 0.25908,0.39541 0.85962,0.88128 1.33452,1.07971 0.47491,0.19843 1.43665,0.36078 2.13722,0.36078 0.70056,0 1.86525,-0.16769 2.58818,-0.37264 0.72294,-0.20496 1.58233,-0.45697 1.90975,-0.56003 0.572,-0.18005 0.59531,-0.12527 0.59531,1.39888 0,1.48368 -0.047,1.60504 -0.7276,1.87664 -0.40019,0.1597 -1.26339,0.40936 -1.91823,0.55479 -0.65485,0.14544 -2.02407,0.26114 -3.04271,0.25712 -1.22352,-0.005 -2.33729,-0.19365 -3.28175,-0.55634 z m 5.79529,-9.61841 c 0,-0.22295 -0.17431,-0.82255 -0.38735,-1.33243 -0.26992,-0.646 -0.68397,-1.051 -1.36569,-1.33584 -0.60181,-0.25146 -1.31214,-0.34616 -1.84566,-0.24607 -0.50274,0.0943 -1.15206,0.50112 -1.54473,0.96776 -0.37257,0.44278 -0.6774,0.96478 -0.6774,1.15999 0,0.19522 -0.0723,0.54327 -0.1606,0.77345 -0.14076,0.36682 0.21875,0.41852 2.91041,0.41852 2.58202,0 3.07102,-0.0646 3.07102,-0.40538 z M 227.38362,104.27104 V 94.058908 l 4.71576,0.0918 c 4.63072,0.0902 4.74404,0.106159 6.28386,0.885587 1.34343,0.680028 1.67233,0.999556 2.29569,2.230252 0.51389,1.014566 0.7259,1.830562 0.7218,2.778103 -0.003,0.7379 -0.22263,1.8189 -0.48764,2.40224 -0.265,0.58333 -0.89885,1.41676 -1.40856,1.85207 -0.50971,0.43531 -1.12669,0.91055 -1.37108,1.05606 -0.38807,0.2311 -0.131,0.73359 2.03038,3.96877 1.3611,2.0373 2.68746,4.03161 2.94748,4.43179 l 0.47275,0.72761 h -2.38451 -2.38452 l -2.4443,-3.96876 -2.4443,-3.96877 h -1.15474 -1.15474 v 3.96877 3.96876 h -2.11666 -2.11667 z m 8.20208,-1.62836 c 0.65196,-0.32569 1.0193,-0.74828 1.24111,-1.42782 0.18056,-0.55315 0.23095,-1.279684 0.11805,-1.701865 -0.10836,-0.405167 -0.48826,-0.951305 -0.84423,-1.213643 -0.40518,-0.2986 -1.36456,-0.542138 -2.56545,-0.651218 l -1.91823,-0.17425 v 2.816116 2.81611 l 1.52136,-4.1e-4 c 0.91815,-2.5e-4 1.88852,-0.18383 2.44739,-0.46302 z m 57.41459,0.9926 V 92.787392 h 2.11666 2.11667 v 4.018235 4.018243 l 0.7276,-0.68076 c 0.40019,-0.374404 1.10865,-0.872932 1.57437,-1.107822 0.47764,-0.240908 1.49053,-0.427078 2.3236,-0.427078 0.81226,0 1.9195,0.18491 2.46053,0.410908 0.54103,0.226 1.31391,0.727198 1.71752,1.113782 0.4036,0.38659 0.90961,1.29485 1.12448,2.01836 0.28984,0.97603 0.39065,2.73684 0.39065,6.82372 v 5.50826 h -2.11667 -2.11666 l -0.006,-4.69638 c -0.003,-2.583 -0.11665,-5.17262 -0.25152,-5.7547 -0.13487,-0.58209 -0.50241,-1.2667 -0.81675,-1.52136 -0.31434,-0.25466 -1.00483,-0.46126 -1.53441,-0.45912 -0.52958,0.002 -1.26053,0.15191 -1.62434,0.33282 -0.3638,0.1809 -0.89689,0.80424 -1.18465,1.38516 -0.44932,0.9071 -0.53748,1.73808 -0.62432,5.88491 l -0.10113,4.82867 h -2.08766 -2.08765 z M 257.63408,80.934047 c -0.75198,-0.267259 -1.78454,-0.804217 -2.29457,-1.193235 -0.51335,-0.391559 -1.2613,-1.387437 -1.67546,-2.230852 -0.66968,-1.363775 -0.74814,-1.801005 -0.74814,-4.169364 0,-2.202822 0.10205,-2.86733 0.6095,-3.968737 0.33522,-0.727605 0.93054,-1.661242 1.32292,-2.074741 0.39238,-0.413508 1.18967,-0.997876 1.77175,-1.298594 0.6598,-0.340871 1.76367,-0.592838 2.93142,-0.669128 1.25895,-0.0822 2.34332,0.0152 3.30729,0.297319 0.78881,0.230829 1.87312,0.783397 2.40958,1.227925 0.53645,0.444528 1.30105,1.473894 1.6991,2.287492 0.53767,1.098956 0.75415,2.004632 0.84204,3.522796 0.0818,1.413985 -0.0144,2.499879 -0.31233,3.524827 -0.23684,0.814707 -0.81765,1.988713 -1.29068,2.6089 -0.47496,0.622716 -1.44606,1.429165 -2.16882,1.801113 -0.96453,0.496358 -1.79898,0.692808 -3.17256,0.746868 -1.29434,0.0509 -2.28153,-0.0751 -3.23104,-0.412589 z m 4.3526,-3.376197 c 0.32425,-0.22712 0.78891,-0.792659 1.03257,-1.256766 0.30707,-0.584889 0.44303,-1.493374 0.44303,-2.960488 0,-1.467114 -0.13596,-2.375612 -0.44303,-2.960489 -0.24366,-0.464109 -0.70832,-1.029658 -1.03257,-1.256765 -0.32426,-0.22712 -1.08971,-0.412938 -1.70101,-0.412938 -0.80367,0 -1.33222,0.185758 -1.90869,0.670826 -0.59049,0.496867 -0.87602,1.050335 -1.10104,2.134242 -0.17522,0.844028 -0.2252,2.043893 -0.11808,2.83489 0.10215,0.754307 0.34968,1.691664 0.55006,2.083012 0.20039,0.391348 0.62964,0.897356 0.95389,1.124476 0.32426,0.227109 1.07235,0.412938 1.66244,0.412938 0.59008,0 1.33817,-0.185829 1.66243,-0.412938 z m 29.62868,3.418915 c -0.68895,-0.239027 -1.73485,-0.847365 -2.32423,-1.351843 -0.58938,-0.504488 -1.3007,-1.366324 -1.58071,-1.915192 -0.28002,-0.548878 -0.62522,-1.718894 -0.76713,-2.600041 -0.16362,-1.015996 -0.16741,-2.241871 -0.0104,-3.350907 0.13622,-0.961846 0.49589,-2.235362 0.79927,-2.83004 0.30339,-0.594678 0.98774,-1.481984 1.52078,-1.971792 0.53304,-0.489798 1.55008,-1.084226 2.26008,-1.320937 0.90356,-0.301247 1.85626,-0.393457 3.175,-0.307317 1.18515,0.0774 2.286,0.329107 2.96748,0.678468 0.59586,0.305468 1.45257,0.975886 1.90379,1.489794 0.45123,0.513918 0.95554,1.384134 1.1207,1.933812 0.16517,0.549678 0.36591,1.862614 0.44611,2.91764 l 0.14581,1.918222 h -5.06188 -5.06188 l 9.9e-4,0.727598 c 5.5e-4,0.400188 0.24128,1.121726 0.53496,1.603414 0.30059,0.493028 0.96509,1.056436 1.52037,1.289054 0.73817,0.30925 1.46925,0.37267 2.90515,0.252 1.05532,-0.0887 2.34978,-0.341349 2.87658,-0.561458 0.52681,-0.22011 1.0085,-0.400198 1.07043,-0.400198 0.0619,0 0.0772,0.744076 0.0338,1.653513 l -0.0788,1.653512 -1.05834,0.360711 c -0.58208,0.198388 -2.18943,0.407028 -3.57187,0.463648 -1.86386,0.0763 -2.83732,-0.009 -3.76618,-0.331661 z m 5.61826,-9.615181 c 0,-0.14258 -0.18785,-0.728718 -0.41745,-1.302526 -0.28341,-0.708329 -0.69977,-1.177276 -1.29675,-1.460564 -0.48362,-0.22949 -1.05191,-0.417258 -1.26287,-0.417258 -0.21095,0 -0.75065,0.127967 -1.19932,0.284378 -0.44868,0.15641 -0.98661,0.545108 -1.19541,0.863777 -0.2088,0.318669 -0.46424,0.964597 -0.56765,1.435405 l -0.18801,0.856016 h 3.06373 c 1.82391,0 3.06373,-0.10491 3.06373,-0.259228 z m 29.92346,9.472184 c -0.83319,-0.31996 -1.90214,-1.021496 -2.56216,-1.681514 -0.77735,-0.777348 -1.26246,-1.570104 -1.5469,-2.52792 -0.22792,-0.767478 -0.4144,-2.269752 -0.4144,-3.338368 0,-1.247306 0.18713,-2.4853 0.52266,-3.457697 0.38297,-1.109925 0.87067,-1.839383 1.82485,-2.729499 0.83693,-0.780738 1.74114,-1.337646 2.53075,-1.558724 0.77948,-0.21824 1.94117,-0.29008 3.17809,-0.19653 1.07224,0.0811 2.22829,0.290577 2.56899,0.465538 0.3407,0.17495 1.0667,0.745638 1.61334,1.268206 0.56917,0.544098 1.2193,1.552564 1.52136,2.35988 0.32705,0.874128 0.52746,2.059442 0.52746,3.119628 v 1.709864 h -5.0617 -5.0617 l 0.1468,0.904665 c 0.0808,0.49757 0.35879,1.228187 0.61787,1.623595 0.25908,0.39541 0.85962,0.881268 1.33452,1.079696 0.47491,0.19843 1.43665,0.36078 2.13722,0.36078 0.70056,0 1.86525,-0.16769 2.58818,-0.37264 0.72294,-0.204948 1.58233,-0.456958 1.90975,-0.560019 0.572,-0.180047 0.59531,-0.125277 0.59531,1.398867 0,1.483674 -0.0471,1.605024 -0.7276,1.876612 -0.40019,0.1597 -1.26339,0.409357 -1.91823,0.554798 -0.65485,0.14544 -2.02407,0.26114 -3.04271,0.25711 -1.22352,-0.005 -2.33729,-0.19364 -3.28175,-0.556328 z m 5.79529,-9.618334 c 0,-0.22295 -0.17431,-0.822549 -0.38735,-1.332437 -0.26992,-0.645985 -0.68397,-1.050986 -1.36569,-1.335833 -0.60181,-0.251451 -1.31214,-0.346148 -1.84566,-0.246061 -0.50274,0.0943 -1.15206,0.50111 -1.54473,0.967758 -0.37257,0.442779 -0.6774,0.964777 -0.6774,1.159984 0,0.195221 -0.0723,0.543269 -0.1606,0.773449 -0.14076,0.366818 0.21875,0.418518 2.91041,0.418518 2.58202,0 3.07102,-0.0645 3.07102,-0.405378 z M 227.38362,70.933653 V 60.721534 l 4.69635,0.0984 c 4.04562,0.0847 4.86134,0.173829 5.88698,0.643027 0.65485,0.29956 1.57109,0.977987 2.03609,1.507595 0.46501,0.529618 0.97036,1.412675 1.123,1.962353 0.15265,0.549678 0.27298,1.594734 0.26741,2.322329 -0.006,0.727599 -0.16294,1.750375 -0.34969,2.272813 -0.18675,0.522448 -0.66421,1.375565 -1.06103,1.895813 -0.39681,0.520248 -1.28059,1.213185 -1.96394,1.539855 -0.89639,0.428508 -1.94257,0.637405 -3.756,0.750006 l -2.51354,0.15607 -0.0736,3.638006 -0.0736,3.638006 h -2.1092 -2.1092 z m 7.74756,-0.996115 c 0.46827,-0.198198 1.07039,-0.606267 1.33804,-0.906816 0.31128,-0.349548 0.49313,-0.976256 0.50466,-1.739184 0.0104,-0.690256 -0.16565,-1.473054 -0.41799,-1.858172 -0.24439,-0.372989 -0.87317,-0.786848 -1.43071,-0.941676 -0.54707,-0.15193 -1.56023,-0.2769 -2.25146,-0.27771 l -1.25677,-0.001 v 3.042697 3.042701 h 1.33142 c 0.73228,0 1.71454,-0.16217 2.18281,-0.36036 z m 9.71494,3.403058 v -7.80518 h 2.24896 2.24896 v 7.80518 7.80518 h -2.24896 -2.24896 z m 27.79949,1.264385 c -1.37241,-3.605817 -2.71138,-7.121583 -2.97548,-7.812801 l -0.48019,-1.256764 h 2.21242 2.21242 l 1.6405,4.731762 c 0.90228,2.60247 1.72817,5.31113 1.83532,6.019246 l 0.19482,1.287486 0.46549,-1.984362 c 0.25603,-1.091406 1.08921,-3.770306 1.85151,-5.953108 l 1.38601,-3.968737 2.16947,-0.0769 c 1.19321,-0.0423 2.16855,0.0173 2.16743,0.132289 -0.001,0.11503 -1.29603,3.602407 -2.87756,7.749742 l -2.87552,7.540589 -2.21567,0.0738 -2.21567,0.0738 z m 31.99634,-1.277015 v -7.8178 l 1.63265,0.0788 c 1.55366,0.075 1.64501,0.117169 1.88831,0.872517 0.14061,0.436558 0.30013,0.844596 0.35448,0.906746 0.0544,0.0622 0.42501,-0.199419 0.82368,-0.581268 0.39866,-0.381858 1.1675,-0.879186 1.70853,-1.105186 0.54103,-0.226009 1.67212,-0.408299 2.51354,-0.405099 0.91261,0.004 1.95686,0.20189 2.58819,0.491789 0.58208,0.2673 1.26215,0.715528 1.51126,0.996066 0.24911,0.28053 0.63607,0.948367 0.8599,1.484065 0.32537,0.778727 0.40696,2.16925 0.40696,6.935602 v 5.961599 h -2.11666 -2.11667 v -5.30478 c 0,-4.138274 -0.0851,-5.469389 -0.38709,-6.053336 -0.2129,-0.4117 -0.57982,-0.822498 -0.81539,-0.912898 -0.23556,-0.0904 -0.88568,-0.164348 -1.44469,-0.164348 -0.70065,0 -1.26288,0.207398 -1.80985,0.667636 -0.56006,0.471269 -0.87734,1.058786 -1.07863,1.997394 -0.15685,0.731366 -0.28518,3.228877 -0.28518,5.550038 v 4.220294 h -2.11667 -2.11667 z M 245.258,62.830716 c -0.22653,-0.32342 -0.41188,-0.978256 -0.41188,-1.455195 0,-0.514398 0.21527,-1.082446 0.52917,-1.396335 0.37237,-0.372378 0.88194,-0.529168 1.71979,-0.529168 0.83785,0 1.34741,0.15679 1.71979,0.529168 0.32758,0.327579 0.52917,0.881937 0.52917,1.455203 0,0.573259 -0.20159,1.127627 -0.52917,1.455207 -0.38644,0.386428 -0.88194,0.529158 -1.83708,0.529158 -1.05162,0 -1.38862,-0.11523 -1.71979,-0.588038 z m 4.68304,-15.053304 c -0.47201,-0.136321 -1.25812,-0.647769 -1.74692,-1.136566 -0.5423,-0.542298 -1.00707,-1.358694 -1.19232,-2.094402 -0.18062,-0.717316 -0.3036,-3.462406 -0.3036,-6.777044 v -5.571358 h 2.10182 2.10181 l 0.081,5.535528 c 0.0796,5.44207 0.0918,5.54705 0.72243,6.217685 0.49912,0.530808 0.89743,0.682159 1.79525,0.682159 0.6346,0 1.43718,-0.185679 1.78353,-0.412608 0.34634,-0.22693 0.8184,-0.884186 1.04902,-1.460554 0.32829,-0.820468 0.41931,-2.080632 0.41931,-5.805088 v -4.757122 h 2.11667 2.11666 v 7.80518 7.80518 h -1.56698 c -1.55623,0 -1.56907,-0.006 -1.8726,-0.926046 -0.16809,-0.509318 -0.36997,-0.926036 -0.44861,-0.926036 -0.0786,0 -0.54241,0.350698 -1.03058,0.779316 -0.48818,0.428618 -1.33733,0.904205 -1.88701,1.056856 -0.54969,0.15264 -1.53521,0.26746 -2.19005,0.25515 -0.65484,-0.0123 -1.57682,-0.13392 -2.04883,-0.27023 z m 18.32071,-0.204499 c -0.58209,-0.268649 -1.32041,-0.773537 -1.64073,-1.121965 -0.32031,-0.34843 -0.85609,-1.227336 -1.19062,-1.953125 -0.52749,-1.144434 -0.60824,-1.741111 -0.60824,-4.494601 0,-2.75349 0.0807,-3.350178 0.60824,-4.494604 0.33453,-0.725786 0.87031,-1.604695 1.19062,-1.953132 0.32032,-0.348428 1.05864,-0.853306 1.64073,-1.121956 0.58208,-0.268648 1.6277,-0.491068 2.3236,-0.494258 0.6959,-0.003 1.6484,0.15474 2.11666,0.350969 0.46827,0.196229 1.20859,0.658297 1.64515,1.026836 l 0.79375,0.670047 -0.0852,-3.937234 -0.0852,-3.937246 h 2.13573 2.13572 v 10.84788 10.847878 h -1.69927 -1.69927 l -0.30562,-0.926046 c -0.16809,-0.509318 -0.397,-0.926036 -0.50868,-0.926036 -0.11168,0 -0.42987,0.254938 -0.70709,0.566537 -0.27721,0.311589 -0.98027,0.785227 -1.56236,1.052516 -0.58208,0.267289 -1.59411,0.485989 -2.24896,0.485989 -0.65484,0 -1.66687,-0.21981 -2.24895,-0.488449 z m 5.43861,-3.211927 c 0.27997,-0.14984 0.68661,-0.615828 0.90366,-1.035546 0.21704,-0.419711 0.46992,-1.403756 0.56194,-2.186752 0.092,-0.783008 0.0296,-2.087012 -0.13871,-2.8978 -0.192,-0.924866 -0.54211,-1.695925 -0.93961,-2.069352 -0.38001,-0.356998 -1.09507,-0.647228 -1.78671,-0.725187 -0.97265,-0.109629 -1.28503,-0.019 -1.99585,0.579126 -0.51274,0.431441 -0.95981,1.141827 -1.14176,1.814255 -0.16447,0.607838 -0.24341,1.891171 -0.17542,2.85186 0.0714,1.008506 0.32649,2.090132 0.60366,2.55934 0.26402,0.446948 0.72767,0.932796 1.03032,1.079656 0.30266,0.146857 1.00459,0.275068 1.55986,0.284918 0.55527,0.01 1.23865,-0.10469 1.51862,-0.254518 z m 21.49826,3.215007 c -0.7957,-0.374239 -1.27475,-0.844827 -1.69587,-1.665933 -0.52288,-1.019476 -0.60064,-1.656844 -0.71262,-5.840698 l -0.1257,-4.696332 h -0.89041 c -0.83664,0 -0.8904,-0.0544 -0.8904,-0.901748 0,-0.777026 0.1602,-1.003096 1.1583,-1.634535 0.98229,-0.621435 1.24873,-0.988915 1.75331,-2.418199 l 0.595,-1.685404 1.35555,0.0788 1.35555,0.0788 0.0788,1.653634 0.0788,1.653644 h 2.10404 2.10404 v 1.587494 1.587494 h -2.11666 -2.11667 v 4.192304 c 0,3.844483 0.0435,4.231714 0.52473,4.667182 0.44099,0.399088 0.7999,0.446688 2.24896,0.298228 l 1.72423,-0.176658 v 1.469124 c 0,1.357814 -0.0551,1.490524 -0.72761,1.751583 -0.40018,0.155359 -1.62057,0.336539 -2.71198,0.402619 -1.59874,0.0968 -2.19988,0.0188 -3.09333,-0.401429 z m 13.47761,-3.7e-4 c -0.76432,-0.264039 -1.65534,-0.706637 -1.98005,-0.983548 -0.3247,-0.276897 -0.74822,-0.682055 -0.94114,-0.900335 -0.19293,-0.218279 -0.66768,-1.051716 -1.05501,-1.852072 -0.59356,-1.226506 -0.7041,-1.808654 -0.70339,-3.704156 4.6e-4,-1.236926 0.14909,-2.74996 0.33028,-3.362298 0.18119,-0.612348 0.71425,-1.617874 1.18457,-2.234502 0.47033,-0.616638 1.42358,-1.413684 2.11834,-1.771223 0.87656,-0.45109 1.84762,-0.687187 3.17256,-0.771367 1.05014,-0.0667 2.41036,0.0142 3.02271,0.1798 0.61234,0.165608 1.62437,0.689046 2.24896,1.163205 0.62777,0.476568 1.49056,1.508645 1.92935,2.307891 0.74622,1.359215 0.79375,1.620094 0.79375,4.356204 0,2.54459 -0.0784,3.060058 -0.62383,4.101024 -0.34311,0.654838 -0.99183,1.577864 -1.44159,2.051152 -0.44976,0.473298 -1.45343,1.098376 -2.23036,1.389056 -0.82542,0.308828 -2.04088,0.524938 -2.92404,0.519888 -0.83128,-0.005 -2.13678,-0.22467 -2.90111,-0.488719 z m 4.2749,-3.243457 c 0.36363,-0.16568 0.87525,-0.731228 1.13693,-1.256766 0.34751,-0.697929 0.47432,-1.561814 0.47041,-3.204468 -0.004,-1.729505 -0.12118,-2.44236 -0.50675,-3.086298 -0.27577,-0.460548 -0.78497,-0.966556 -1.13157,-1.124476 -0.3466,-0.157921 -1.07433,-0.287128 -1.61719,-0.287128 -0.54286,0 -1.26421,0.194148 -1.603,0.431448 -0.33879,0.237298 -0.782,0.828786 -0.98491,1.314414 -0.20518,0.491057 -0.36893,1.771264 -0.36893,2.88433 0,1.113056 0.16375,2.39326 0.36893,2.884317 0.20291,0.48563 0.64612,1.077116 0.98491,1.314417 0.33879,0.237299 1.06014,0.431458 1.603,0.431458 0.54286,0 1.28453,-0.135561 1.64817,-0.301248 z m 34.46966,3.357486 c -0.55533,-0.198058 -1.25676,-0.579789 -1.55872,-0.848276 -0.30196,-0.268499 -0.76771,-0.964426 -1.03501,-1.546514 -0.4257,-0.927046 -0.48671,-1.804994 -0.4918,-7.077574 l -0.006,-6.019246 h 2.11667 2.11667 v 5.30479 c 0,4.138274 0.0851,5.469378 0.38709,6.053326 0.2129,0.411697 0.57982,0.822508 0.81539,0.912895 0.23556,0.0904 0.82967,0.164361 1.32025,0.164361 0.49057,0 1.17553,-0.129211 1.52213,-0.287128 0.3466,-0.15792 0.85822,-0.663938 1.13693,-1.124476 0.44276,-0.731608 0.51818,-1.480534 0.59724,-5.930558 l 0.0905,-5.09321 h 2.09231 2.09232 v 7.8178 7.81781 l -1.63783,-0.0788 c -1.60255,-0.0771 -1.64261,-0.0973 -1.85965,-0.938666 -0.12199,-0.472938 -0.28492,-0.859896 -0.36205,-0.859896 -0.0771,0 -0.57975,0.342468 -1.11692,0.761046 -0.53717,0.418577 -1.38139,0.894827 -1.87605,1.058326 -0.49466,0.16351 -1.44716,0.29206 -2.11667,0.28568 -0.6695,-0.006 -1.67165,-0.17366 -2.22699,-0.37172 z M 226.30863,43.376649 c 0.85405,-2.437471 2.38934,-6.813006 3.41175,-9.723403 1.02241,-2.910411 1.93966,-5.50001 2.03835,-5.754668 0.15454,-0.398799 0.55164,-0.462938 2.86309,-0.462448 l 2.68368,5.7e-4 3.51211,9.987412 c 1.93167,5.493078 3.50924,10.076712 3.50573,10.185851 -0.004,0.109139 -1.0139,0.198439 -2.2453,0.198439 h -2.23892 l -0.75114,-2.44739 -0.75115,-2.447393 h -3.69067 -3.69066 l -0.77694,2.447393 -0.77694,2.44739 h -2.32291 -2.32291 z m 10.86457,-4.266574 c 0,-0.127429 -0.57402,-2.097792 -1.2756,-4.378593 l -1.27561,-4.146894 -1.23793,4.095574 c -0.68087,2.252562 -1.23794,4.222924 -1.23794,4.378584 0,0.181108 0.9051,0.283018 2.51354,0.283018 1.38245,0 2.51354,-0.10426 2.51354,-0.231689 z m 46.56667,0.893147 v -7.80518 h 2.11667 2.11666 v 7.80518 7.80518 h -2.11666 -2.11667 z m 38.89375,0 v -7.80518 h 1.56967 c 1.26887,0 1.59465,0.0887 1.70004,0.463018 0.0717,0.254658 0.21168,0.865586 0.31105,1.357604 l 0.18069,0.894587 1.00021,-1.094206 c 0.55011,-0.601807 1.42636,-1.272265 1.94723,-1.489896 0.52087,-0.217627 1.48664,-0.395687 2.14615,-0.395687 1.06783,0 1.19888,0.0652 1.19683,0.595308 -0.001,0.327417 -0.0774,1.220386 -0.16915,1.984362 l -0.16684,1.389066 h -1.29661 c -0.76341,0 -1.71251,0.212168 -2.30798,0.515968 -0.61605,0.314278 -1.18075,0.872876 -1.44467,1.429034 -0.34883,0.735107 -0.43329,1.794893 -0.43329,5.43714 v 4.524062 h -2.11666 -2.11667 z m 12.96458,0 v -7.80518 h 2.11667 2.11667 v 7.80518 7.80518 h -2.11667 -2.11667 z m 27.51667,0 v -7.80518 h 1.7078 1.70781 l 0.17372,0.926036 c 0.0956,0.509318 0.26109,0.926036 0.36786,0.926036 0.10677,0 0.42094,-0.254938 0.69816,-0.566528 0.27721,-0.311598 0.98028,-0.785226 1.56236,-1.052516 0.62986,-0.289238 1.67543,-0.488348 2.58257,-0.491798 1.00259,-0.004 1.92512,0.18262 2.69559,0.544788 0.64425,0.302829 1.36905,0.852307 1.61067,1.221066 l 0.43931,0.670467 0.73833,-0.808377 c 0.40609,-0.444608 1.18282,-0.994086 1.72606,-1.221066 0.54324,-0.226978 1.66232,-0.412688 2.48684,-0.412688 1.03306,0 1.86133,0.18507 2.66418,0.595308 0.64078,0.327417 1.38829,0.902176 1.66113,1.277246 0.27284,0.375058 0.60439,1.148963 0.73678,1.719782 0.13239,0.570818 0.24355,3.567918 0.24702,6.660226 l 0.006,5.622378 h -2.09716 -2.09717 l -0.0856,-5.40529 c -0.0793,-5.00307 -0.12698,-5.460828 -0.6411,-6.151546 -0.40912,-0.549658 -0.82263,-0.768639 -1.56966,-0.831247 -0.55782,-0.0468 -1.30029,0.0681 -1.64994,0.255229 -0.34964,0.18712 -0.83197,0.701618 -1.07183,1.143326 -0.35099,0.646358 -0.45462,1.797203 -0.53094,5.896318 l -0.0948,5.09321 h -2.09232 -2.09232 v -5.14213 c 0,-2.82818 -0.10909,-5.42907 -0.24242,-5.779758 -0.13333,-0.350691 -0.4395,-0.834698 -0.68036,-1.075556 -0.24996,-0.24996 -0.8588,-0.437928 -1.41849,-0.437928 -0.53931,0 -1.24586,0.185818 -1.57012,0.412938 -0.32425,0.227107 -0.79004,0.792656 -1.03509,1.256765 -0.35748,0.677047 -0.46806,1.824363 -0.55949,5.804748 l -0.11395,4.960921 h -2.08483 -2.08483 z m -79.22771,-10.50988 c -0.22653,-0.32342 -0.41187,-0.902669 -0.41187,-1.287226 0,-0.384558 0.24676,-1.012906 0.54837,-1.396334 0.43708,-0.555658 0.77415,-0.697138 1.66092,-0.697138 0.6119,0 1.37716,0.18535 1.70059,0.411878 0.45221,0.31674 0.58803,0.673948 0.58803,1.546483 0,0.763179 -0.15839,1.277967 -0.48385,1.572496 -0.31747,0.287309 -0.94919,0.437879 -1.83708,0.437879 -1.09845,0 -1.43077,-0.11071 -1.76511,-0.588038 z m 52.32291,0.380168 c -0.1728,-0.10988 -0.44088,-0.533028 -0.59575,-0.940346 -0.15486,-0.407319 -0.20823,-1.032756 -0.11861,-1.389847 0.0896,-0.357097 0.41397,-0.825085 0.72076,-1.039966 0.3068,-0.214887 0.99438,-0.390707 1.52796,-0.390707 0.53511,0 1.22023,0.20763 1.52783,0.463018 0.30673,0.25466 0.62688,0.822088 0.71145,1.260946 0.1121,0.581728 -4.2e-4,0.993936 -0.41528,1.521344 -0.47626,0.605468 -0.77084,0.722768 -1.80662,0.719378 -0.68066,-0.002 -1.37894,-0.094 -1.55174,-0.20382 z"
       id="path2" /></g></svg>
